<?xml version="1.0" encoding="UTF-8" standalone="no"?>
<!-- Created with Inkscape (http://www.inkscape.org/) -->

<svg
   width="48"
   height="48"
   viewBox="0 0 48 48"
   version="1.1"
   id="svg1"
   inkscape:version="1.4.2 (f4327f4, 2025-05-13)"
   sodipodi:docname="apertura_bottiglia.svg"
   xmlns:inkscape="http://www.inkscape.org/namespaces/inkscape"
   xmlns:sodipodi="http://sodipodi.sourceforge.net/DTD/sodipodi-0.dtd"
   xmlns="http://www.w3.org/2000/svg"
   xmlns:svg="http://www.w3.org/2000/svg">
  <sodipodi:namedview
     id="namedview1"
     pagecolor="#ffffff"
     bordercolor="#000000"
     borderopacity="0.25"
     inkscape:showpageshadow="2"
     inkscape:pageopacity="0.0"
     inkscape:pagecheckerboard="0"
     inkscape:deskcolor="#d1d1d1"
     inkscape:document-units="px"
     inkscape:zoom="6.078125"
     inkscape:cx="-11.105398"
     inkscape:cy="32.411311"
     inkscape:window-width="1718"
     inkscape:window-height="1360"
     inkscape:window-x="1713"
     inkscape:window-y="0"
     inkscape:window-maximized="0"
     inkscape:current-layer="layer1" />
  <defs
     id="defs1" />
  <g
     inkscape:label="Livello 1"
     inkscape:groupmode="layer"
     id="layer1">
    <path
       d="m 11.806554,0.58666973 c -0.13478,0.100897 -0.23586,3.09415897 -0.23586,6.59190397 0,6.2892143 0,6.3901103 0.87605,7.7690293 1.2467,1.950665 2.62817,2.556044 5.86283,2.556044 h 2.69555 v 2.051562 c 0,2.455147 0.37064,3.228687 1.88689,3.867698 1.58363,0.672643 1.61733,1.950665 0,2.623308 -1.2467,0.538115 -1.65103,1.614344 -1.2467,3.565009 0.20217,1.042597 0.40434,1.210758 1.54995,1.479815 2.12274,0.437219 2.19013,0.470851 2.19013,1.008965 0,0.30269 -0.37064,0.605379 -0.84236,0.706276 -0.47172,0.100896 -1.213,0.235425 -1.68472,0.336321 -0.6065,0.134529 -0.90975,0.504483 -1.14561,1.412551 -0.50541,1.782504 0.10109,2.892366 1.75211,3.161423 1.58364,0.235425 2.05536,0.706275 1.75211,1.614344 -0.16847,0.538114 -0.50542,0.706275 -1.31408,0.706275 -1.48256,0 -2.35861,1.008965 -2.32492,2.623308 0.0337,1.24439 1.01084,2.421516 1.98797,2.421516 0.30325,0 0.47173,0.369954 0.47173,0.908068 0,1.24439 0.43802,1.883401 1.21299,1.71524 1.44886,-0.269057 0.70759,-4.304916 -0.87605,-4.809398 -1.04453,-0.336322 -0.80867,-1.07623 0.47172,-1.311655 2.96511,-0.571746 3.20097,-4.573973 0.30325,-5.112088 -0.6065,-0.100896 -1.213,-0.336322 -1.31408,-0.504482 -0.33694,-0.571747 0.23586,-1.647976 0.87605,-1.647976 1.71842,0 3.0325,-1.748873 2.32492,-3.127791 -0.67389,-1.278022 -1.38147,-1.917033 -2.15644,-1.917033 -0.43803,0 -0.97714,-0.235425 -1.213,-0.538115 -0.47172,-0.571746 -0.37064,-0.706275 1.213,-1.647976 0.30325,-0.201793 0.64019,-0.975332 0.74127,-1.782504 0.16847,-1.177126 0.37064,-1.547079 1.2467,-1.984298 1.54994,-0.807171 1.85319,-1.41255 1.88688,-3.733169 v -2.085194 h 2.86403 2.89771 l 1.75211,-1.71524 1.75211,-1.715241 0.10109,-6.6591673 c 0.10108,-6.289214 0.0674,-6.65916797 -0.53912,-6.79369697 -1.11191,-0.302689 -1.7521,0.336322 -1.7521,1.71524097 0,0.908068 -0.23586,1.479815 -0.80867,2.017929 -0.80867,0.739908 -0.90975,0.77354 -10.17571,0.739908 h -9.40074 l -1.07822,-1.24439 c -0.70758,-0.739908 -1.11191,-1.580712 -1.11191,-2.152458 0,-0.538115 -0.23586,-1.00896497 -0.53911,-1.14349397 -0.6402,-0.235425 -0.6402,-0.235425 -0.90975,0.03363 z m 3.30205,5.98652497 0.90975,0.874436 9.0301,-0.100897 c 8.92901,-0.100896 9.06379,-0.100896 9.77137,-0.874436 1.213,-1.278022 1.44886,-0.639011 1.213,3.26232 -0.26955,3.8676983 -0.64019,4.8766633 -2.12274,5.4484103 -0.53912,0.201793 -4.34658,0.302689 -9.56921,0.235425 l -8.69316,-0.100897 -1.1793,-1.177125 -1.17931,-1.177126 -0.0337,-3.6322733 c 0,-4.002227 0.20216,-4.271284 1.85319,-2.757837 z m 11.62457,12.6793243 c 0,1.984298 -0.16847,2.354251 -1.24669,2.892366 -0.57281,0.336321 -0.94345,0.269057 -1.71842,-0.168161 -0.84236,-0.504482 -1.04453,-0.840804 -1.14561,-2.118826 -0.20217,-2.253355 -0.10108,-2.354251 2.12275,-2.354251 h 1.98797 z"
       id="path4"
       style="fill:#000000;stroke:none;stroke-width:0.0336633" />
  </g>
</svg>
