<?xml version="1.0" encoding="UTF-8" standalone="no"?>
<!-- Created with Inkscape (http://www.inkscape.org/) -->

<svg
   width="48"
   height="48"
   viewBox="0 0 48 48"
   version="1.1"
   id="svg1"
   inkscape:version="1.4.2 (f4327f4, 2025-05-13)"
   sodipodi:docname="bianco.svg"
   xmlns:inkscape="http://www.inkscape.org/namespaces/inkscape"
   xmlns:sodipodi="http://sodipodi.sourceforge.net/DTD/sodipodi-0.dtd"
   xmlns="http://www.w3.org/2000/svg"
   xmlns:svg="http://www.w3.org/2000/svg">
  <sodipodi:namedview
     id="namedview1"
     pagecolor="#ffffff"
     bordercolor="#000000"
     borderopacity="0.25"
     inkscape:showpageshadow="2"
     inkscape:pageopacity="0.0"
     inkscape:pagecheckerboard="0"
     inkscape:deskcolor="#d1d1d1"
     inkscape:document-units="px"
     inkscape:zoom="6.078125"
     inkscape:cx="2.0565553"
     inkscape:cy="32.411311"
     inkscape:window-width="1718"
     inkscape:window-height="1360"
     inkscape:window-x="1713"
     inkscape:window-y="0"
     inkscape:window-maximized="0"
     inkscape:current-layer="layer1" />
  <defs
     id="defs1" />
  <g
     inkscape:label="Livello 1"
     inkscape:groupmode="layer"
     id="layer1">
    <path
       d="m 14.338922,1.9475086 c -0.843802,0.6591475 -0.843802,0.805626 -0.880489,7.2506123 0,7.3238461 -0.03668,7.3970901 -2.824899,10.1435311 -2.4580295,2.38025 -2.4947165,2.636579 -2.4947165,14.281501 0,5.749221 0.146748,10.839295 0.3301831,11.315348 0.183435,0.512669 0.9171751,1.281667 1.5775414,1.757719 1.137297,0.842243 1.504168,0.87886 7.080592,0.87886 6.456914,0 7.080593,-0.146468 8.254576,-2.12391 0.697054,-1.098583 0.733741,-1.904198 0.733741,-11.718156 0,-9.850574 -0.03668,-10.619583 -0.770427,-12.120973 C 24.941466,20.733181 24.024292,19.488131 23.363925,18.8656 20.905895,16.631828 20.869209,16.48535 20.759148,9.1981209 20.685773,2.8263684 20.649086,2.5334224 19.878659,1.9108917 18.741362,0.99541509 15.476218,0.99541509 14.338922,1.9474759 Z m 4.365753,1.5746351 c 0.256809,0.2563291 0.440244,1.2816672 0.440244,2.3436223 0,2.0506764 -0.293496,2.3436332 -2.164534,2.3436332 -1.394106,0 -1.871037,-0.6225197 -1.871037,-2.5633454 0,-1.9774426 0.476931,-2.5633455 2.017786,-2.5633455 0.623679,0 1.320732,0.1830954 1.577541,0.4394354 z m -0.146748,6.3717416 c 0.476931,0.1830957 0.586992,0.8422427 0.586992,3.4788327 0,3.588684 0.513619,4.833734 2.934961,7.104134 1.614228,1.501379 2.20122,2.783058 2.20122,4.7605 v 1.647858 l -7.043905,-0.07328 -7.080592,-0.109862 -0.110061,-0.87886 c -0.2934962,-1.830964 0.330183,-3.332354 2.237908,-5.419647 2.788212,-3.112632 3.008333,-3.552067 3.04502,-6.921038 0,-1.611241 0.146748,-3.149249 0.293497,-3.368972 0.293496,-0.4760414 1.981098,-0.5859029 2.93496,-0.2197123 z m 5.6498,24.3884147 -0.110062,5.602744 H 17.127134 10.156603 L 10.046542,34.2823 9.9364809,28.716174 h 7.1906531 7.190654 z m 0.07338,8.53228 c 0,0.805626 -0.293497,1.574635 -0.73374,2.014059 -0.660367,0.659148 -1.210672,0.732392 -6.420227,0.732392 -5.209554,0 -5.759859,-0.07328 -6.420225,-0.732392 -0.44025,-0.439424 -0.7337458,-1.208433 -0.7337458,-2.014059 v -1.281668 h 7.1539658 7.153967 z"
       id="path3-0"
       style="fill:#000000;stroke:none;stroke-width:0.0366531" />
    <path
       d="m 14.779165,31.499243 c -2.714838,2.270388 -1.247358,6.371741 2.347969,6.371741 3.485265,0 5.062807,-3.6253 2.604777,-6.078795 -1.577541,-1.574624 -3.301831,-1.684486 -4.952746,-0.292946 z m 3.55864,1.098572 c 0.880488,0.62253 1.10061,2.270388 0.36687,3.002781 -0.256809,0.256329 -0.953862,0.439424 -1.577541,0.439424 -1.35742,0 -2.017786,-0.585903 -2.017786,-1.721103 0,-0.915476 1.173985,-2.307005 1.944412,-2.307005 0.256809,0 0.8438,0.256329 1.284045,0.585903 z"
       id="path4-1"
       style="fill:#000000;stroke:none;stroke-width:0.0366531" />
    <path
       d="m 30.591266,23.919057 c -0.697054,0.439425 -1.981099,5.968934 -2.017786,8.642141 -0.03668,2.966153 1.247358,5.053457 3.815448,6.152029 l 1.797664,0.805626 v 3.002781 c 0,2.197154 -0.146748,3.039397 -0.440244,3.076014 -0.256809,0 -1.210671,0.03658 -2.09116,0.07328 -1.577541,0.07328 -2.751525,0.952104 -2.091158,1.611251 0.146747,0.146479 2.56809,0.292946 5.392989,0.329574 3.888823,0.03658 5.172869,-0.07328 5.503051,-0.439435 0.697053,-0.87886 -0.330182,-1.684486 -2.017785,-1.611241 -0.843801,0.03658 -1.724289,0.03658 -1.944412,0.03658 -0.330182,-0.03658 -0.476931,-0.87886 -0.476931,-3.076014 l 0.03668,-3.002781 1.760977,-0.842243 c 1.137297,-0.512669 2.164533,-1.354912 2.824899,-2.307016 0.880488,-1.318285 1.027237,-1.830954 0.990549,-3.954875 -0.03668,-2.343633 -0.660366,-5.529509 -1.540855,-7.836514 l -0.403556,-0.988722 h -4.29238 c -2.384656,0 -4.549188,0.146479 -4.805998,0.329574 z m 7.667583,1.904198 c 0.330184,0.183095 0.697054,0.769009 0.770428,1.318295 0.110061,0.585903 0.25681,1.281667 0.330183,1.574624 0.110062,0.476052 -0.513618,0.549286 -3.852136,0.659148 -2.237907,0.03658 -4.219006,0.03658 -4.475814,-0.07328 -0.36687,-0.146478 -0.36687,-0.512669 -0.07338,-1.574635 0.586991,-2.197154 0.843801,-2.343622 3.92551,-2.270388 1.540853,0.03658 3.045021,0.183095 3.375203,0.36619 z m 1.35742,6.847794 c 0.256809,3.735172 -4.035571,6.152039 -7.153966,3.991502 -1.650916,-1.098572 -2.971648,-4.614022 -2.054472,-5.492882 0.11006,-0.146478 2.237907,-0.219723 4.65925,-0.146478 l 4.439127,0.07328 z"
       id="path10-7"
       style="fill:#000000;stroke:none;stroke-width:0.0366531" />
  </g>
</svg>
