<?xml version="1.0" encoding="UTF-8" standalone="no"?>
<!-- Created with Inkscape (http://www.inkscape.org/) -->

<svg
   width="48"
   height="48"
   viewBox="0 0 48 48"
   version="1.1"
   id="svg1"
   inkscape:version="1.4.2 (f4327f4, 2025-05-13)"
   sodipodi:docname="bottiglia.svg"
   xmlns:inkscape="http://www.inkscape.org/namespaces/inkscape"
   xmlns:sodipodi="http://sodipodi.sourceforge.net/DTD/sodipodi-0.dtd"
   xmlns="http://www.w3.org/2000/svg"
   xmlns:svg="http://www.w3.org/2000/svg">
  <sodipodi:namedview
     id="namedview1"
     pagecolor="#ffffff"
     bordercolor="#000000"
     borderopacity="0.25"
     inkscape:showpageshadow="2"
     inkscape:pageopacity="0.0"
     inkscape:pagecheckerboard="0"
     inkscape:deskcolor="#d1d1d1"
     inkscape:document-units="px"
     inkscape:zoom="6.078125"
     inkscape:cx="-11.105398"
     inkscape:cy="32.411311"
     inkscape:window-width="1718"
     inkscape:window-height="1360"
     inkscape:window-x="1713"
     inkscape:window-y="0"
     inkscape:window-maximized="0"
     inkscape:current-layer="layer1" />
  <defs
     id="defs1" />
  <g
     inkscape:label="Livello 1"
     inkscape:groupmode="layer"
     id="layer1">
    <path
       d="m 23.830461,2.5771144 c -0.94344,0.235425 -1.85319,1.446182 -1.85319,2.522412 0,0.605378 -0.33694,1.109861 -1.01083,1.614343 -0.80867,0.571747 -1.01083,0.975333 -1.01083,1.984298 0,0.840804 0.23586,1.4798146 0.67388,1.8834006 0.57281,0.538114 0.67389,1.042597 0.67389,3.699537 0,3.598641 -0.50541,5.145721 -2.05536,6.289214 -0.5728,0.437218 -1.41516,1.378919 -1.81949,2.118826 -0.74128,1.24439 -0.80867,1.883401 -1.04453,7.567236 -0.13478,3.430481 -0.10108,8.038086 0.0337,10.257809 l 0.23587,4.03586 1.1793,1.07623 1.14561,1.10986 h 5.45849 c 4.88569,0 5.59327,-0.0673 6.57041,-0.67264 1.88689,-1.1435 2.02166,-1.91704 2.02166,-11.434938 0,-10.493234 -0.16847,-11.401302 -2.76294,-13.990979 -2.02166,-1.984297 -2.22383,-2.589676 -2.22383,-6.591903 0,-2.18609 0.13478,-2.858734 0.67389,-3.531377 1.01083,-1.2780216 0.87606,-2.6905726 -0.33694,-3.7331686 -0.53911,-0.504483 -1.01084,-1.143494 -1.01084,-1.479816 0,-1.109861 -0.77497,-2.253354 -1.7858,-2.623308 -0.53911,-0.168161 -1.01083,-0.302689 -1.04452,-0.302689 -0.0337,0.03363 -0.33695,0.100896 -0.70759,0.201793 z m 1.44886,1.849768 c 0.23586,0.235425 0.40433,0.672644 0.40433,1.008965 0,0.437218 -0.26955,0.605379 -1.01083,0.605379 -0.74127,0 -1.01083,-0.168161 -1.01083,-0.605379 0,-0.571747 0.6065,-1.412551 1.01083,-1.412551 0.10109,0 0.37064,0.168161 0.6065,0.403586 z m 2.25753,4.304917 c 0,0.807172 -0.0674,0.840804 -2.79664,0.9417 -2.89772,0.100897 -3.47052,-0.168161 -2.96511,-1.446183 0.16848,-0.437218 0.70759,-0.504482 2.96511,-0.437218 2.72925,0.100897 2.79664,0.134529 2.79664,0.941701 z m -1.17931,6.5919026 c 0.20217,4.069492 0.13478,3.901331 2.72925,6.726432 1.58364,1.71524 2.19014,3.195055 1.92058,4.876663 l -0.10108,0.807172 -6.30086,0.100897 -6.33454,0.06726 v -1.513447 c 0,-1.849769 0.53911,-2.95963 2.19013,-4.540342 2.08906,-1.984297 2.52708,-3.195055 2.52708,-7.062753 v -3.396849 l 1.61733,0.100897 1.58364,0.100896 z m 4.71722,19.30486 v 5.044824 h -6.40194 -6.40193 v -5.044824 -5.044824 h 6.40193 6.40194 z m 0,7.802658 c 0,2.25336 -0.97714,2.62331 -6.94105,2.62331 -4.07702,0 -4.58244,-0.0673 -5.18894,-0.67264 -0.40433,-0.40359 -0.67388,-1.10986 -0.67388,-1.84977 v -1.17713 h 6.40193 6.40194 z"
       id="path8-6"
       style="fill:#000000;stroke:none;stroke-width:0.0336633" />
    <path
       d="m 22.920711,31.803461 c -1.92058,1.008964 -2.22383,3.464112 -0.64019,5.14572 0.80867,0.840804 1.24669,1.042597 2.3923,1.042597 3.40314,0 4.68352,-4.67487 1.71842,-6.22195 -1.2467,-0.639011 -2.29122,-0.639011 -3.47053,0.03363 z m 3.0325,1.547079 c 0.23586,0.235425 0.40433,0.807172 0.40433,1.278022 0,1.109861 -0.5728,1.681608 -1.68472,1.681608 -1.11191,0 -1.68472,-0.571747 -1.68472,-1.681608 0,-1.109861 0.57281,-1.681608 1.68472,-1.681608 0.47172,0 1.04453,0.168161 1.28039,0.403586 z"
       id="path9-6"
       style="fill:#000000;stroke:none;stroke-width:0.0336633" />
  </g>
</svg>
