<?xml version="1.0" encoding="UTF-8" standalone="no"?>
<!-- Created with Inkscape (http://www.inkscape.org/) -->

<svg
   width="48"
   height="48"
   viewBox="0 0 48 48"
   version="1.1"
   id="svg1"
   xml:space="preserve"
   inkscape:version="1.4.2 (f4327f4, 2025-05-13)"
   sodipodi:docname="chiocciola.svg"
   xmlns:inkscape="http://www.inkscape.org/namespaces/inkscape"
   xmlns:sodipodi="http://sodipodi.sourceforge.net/DTD/sodipodi-0.dtd"
   xmlns="http://www.w3.org/2000/svg"
   xmlns:svg="http://www.w3.org/2000/svg"><sodipodi:namedview
     id="namedview1"
     pagecolor="#ffffff"
     bordercolor="#000000"
     borderopacity="0.25"
     inkscape:showpageshadow="2"
     inkscape:pageopacity="0.0"
     inkscape:pagecheckerboard="0"
     inkscape:deskcolor="#d1d1d1"
     inkscape:document-units="px"
     inkscape:zoom="12.15625"
     inkscape:cx="11.598972"
     inkscape:cy="40.349614"
     inkscape:window-width="3440"
     inkscape:window-height="1369"
     inkscape:window-x="-8"
     inkscape:window-y="-8"
     inkscape:window-maximized="1"
     inkscape:current-layer="layer1" /><defs
     id="defs1" /><g
     inkscape:label="Livello 1"
     inkscape:groupmode="layer"
     id="layer1"><g
       transform="matrix(0.00318521,0,0,-0.00318521,-4.7129098,51.225069)"
       fill="#000000"
       stroke="none"
       id="g3"><path
         d="m 6550,14104 c -85,-7 -193,-18 -240,-24 -47,-6 -119,-15 -160,-20 -41,-4 -102,-13 -135,-19 -33,-7 -96,-19 -140,-27 -44,-8 -100,-20 -125,-26 -25,-6 -66,-14 -92,-19 -26,-4 -56,-12 -67,-18 -11,-6 -30,-11 -43,-11 -13,0 -43,-6 -68,-14 -25,-8 -68,-21 -96,-30 -29,-9 -59,-16 -68,-16 -8,0 -30,-6 -48,-14 -42,-17 -94,-35 -133,-46 -40,-11 -85,-27 -175,-63 -41,-16 -93,-36 -115,-44 -41,-16 -55,-22 -160,-69 -103,-46 -337,-162 -400,-199 -33,-19 -67,-38 -75,-42 -8,-3 -33,-18 -55,-32 -56,-36 -77,-49 -100,-61 -37,-19 -112,-70 -305,-206 -90,-64 -95,-67 -199,-154 -36,-30 -88,-73 -116,-95 -119,-94 -495,-473 -577,-580 -20,-26 -114,-142 -151,-186 -32,-38 -145,-184 -175,-227 -18,-26 -43,-58 -55,-72 -12,-14 -26,-33 -32,-42 -5,-10 -44,-65 -85,-123 -88,-124 -79,-110 -201,-312 -151,-248 -269,-475 -349,-673 -12,-30 -28,-68 -35,-85 -7,-16 -21,-50 -30,-75 -9,-25 -23,-60 -31,-78 -8,-18 -14,-39 -14,-47 0,-8 -6,-29 -14,-47 -17,-42 -58,-183 -89,-313 -8,-33 -20,-80 -26,-105 -7,-25 -16,-80 -22,-124 -5,-43 -12,-83 -16,-89 -4,-6 -10,-52 -14,-101 -5,-50 -13,-122 -18,-161 l -10,-70 v -350 c 0,-192 4,-397 9,-455 5,-58 12,-148 15,-200 3,-52 13,-147 21,-210 36,-281 46,-350 60,-420 8,-41 22,-109 30,-150 8,-41 20,-95 26,-120 6,-25 14,-63 19,-85 10,-54 28,-123 41,-160 5,-16 14,-46 18,-65 4,-19 13,-50 19,-67 27,-80 33,-100 41,-128 15,-56 58,-172 76,-208 8,-16 14,-35 14,-44 0,-8 6,-27 13,-41 14,-28 40,-84 61,-137 32,-76 116,-246 180,-367 70,-128 79,-145 107,-186 16,-24 29,-45 29,-47 0,-2 20,-33 45,-69 25,-37 45,-70 45,-75 0,-5 7,-11 15,-15 8,-3 15,-10 15,-16 0,-29 225,-307 435,-540 270,-298 717,-660 1035,-838 51,-29 361,-183 405,-202 79,-34 245,-95 300,-110 17,-5 44,-13 60,-18 117,-41 404,-102 478,-102 23,-1 71,-7 107,-15 36,-8 90,-14 120,-15 30,0 107,-7 170,-16 l 115,-16 480,-1 480,-1 135,17 c 281,36 367,48 435,63 39,8 82,14 97,14 15,0 39,5 55,11 15,6 51,15 78,20 46,7 88,17 220,49 28,7 65,19 83,26 18,8 41,14 52,14 11,0 34,6 52,14 18,7 60,21 93,31 33,9 73,23 88,31 16,8 35,14 44,14 8,0 27,6 41,14 42,21 102,46 112,46 6,0 40,14 77,31 38,16 84,37 103,46 19,8 42,19 50,23 8,5 65,34 125,65 61,31 124,65 140,76 17,10 39,23 50,29 11,6 34,19 50,30 17,10 40,25 52,32 259,154 687,554 919,858 27,36 54,70 60,75 6,6 24,30 41,55 16,25 51,75 76,113 26,37 47,69 47,72 0,2 13,23 29,47 69,103 204,371 256,508 10,25 23,59 30,75 20,47 36,97 45,135 4,19 13,49 18,65 132,378 160,1166 61,1695 -6,30 -14,83 -20,118 -5,35 -14,72 -19,82 -6,10 -10,33 -10,50 0,17 -7,47 -15,67 -8,19 -15,45 -15,57 0,11 -6,41 -14,66 -8,25 -22,72 -31,105 -23,78 -53,175 -64,200 -13,32 -32,88 -38,110 -2,11 -18,54 -35,95 -16,41 -37,93 -45,115 -30,78 -54,133 -126,285 -60,128 -104,217 -116,240 -4,8 -15,29 -23,45 -34,68 -131,242 -183,330 -22,39 -44,77 -48,85 -4,8 -15,27 -25,42 -9,15 -35,55 -56,90 -38,60 -182,258 -196,268 -4,3 -30,32 -57,65 -155,185 -596,548 -763,628 -8,4 -28,16 -45,27 -32,20 -48,29 -135,77 -145,79 -401,200 -460,218 -14,4 -34,14 -45,21 -11,8 -29,14 -40,14 -11,0 -29,7 -39,15 -11,8 -28,15 -38,15 -10,0 -26,4 -36,10 -28,16 -104,41 -152,50 -25,5 -58,13 -73,19 -16,6 -40,11 -54,11 -15,0 -49,6 -77,14 -265,74 -841,89 -1191,30 -122,-20 -229,-42 -293,-59 -175,-48 -291,-85 -298,-96 -3,-5 -14,-9 -26,-9 -11,0 -32,-6 -46,-14 -15,-8 -52,-24 -82,-36 -98,-40 -220,-97 -280,-132 -19,-11 -53,-30 -75,-41 -262,-142 -618,-456 -863,-763 -23,-28 -107,-149 -127,-182 -5,-9 -22,-33 -36,-52 -14,-19 -29,-42 -33,-50 -3,-8 -22,-42 -41,-75 -42,-71 -135,-261 -135,-274 0,-5 -6,-22 -14,-38 -28,-56 -46,-104 -46,-121 0,-10 -4,-22 -9,-27 -5,-6 -14,-26 -19,-45 -6,-19 -20,-60 -32,-90 -12,-30 -25,-68 -30,-85 -5,-16 -13,-43 -18,-60 -25,-73 -35,-110 -42,-158 -4,-29 -12,-77 -18,-107 -43,-229 -42,-701 4,-957 8,-45 14,-94 14,-110 0,-15 6,-59 14,-98 24,-114 36,-177 45,-225 9,-51 26,-122 46,-195 8,-27 17,-69 21,-92 3,-24 10,-45 15,-49 5,-3 9,-14 9,-24 0,-11 7,-36 16,-57 9,-21 22,-51 29,-68 7,-16 24,-56 39,-87 14,-31 31,-67 36,-80 40,-92 226,-374 289,-439 9,-9 41,-45 71,-80 194,-223 486,-445 790,-600 66,-33 293,-129 306,-129 8,0 28,-6 46,-14 33,-14 97,-33 198,-59 141,-37 191,-47 222,-47 18,0 65,-7 103,-15 l 70,-15 h 210 c 116,0 239,5 275,11 36,6 97,14 135,18 67,8 104,16 205,41 25,6 65,15 90,21 24,5 49,14 54,19 6,6 20,10 33,10 12,0 37,6 55,14 18,8 53,22 78,32 25,9 73,30 108,46 34,15 64,28 67,28 4,0 147,81 175,100 8,6 22,13 30,17 8,4 67,45 130,92 l 115,85 130,131 c 72,71 140,144 153,160 95,128 123,170 159,245 76,157 115,264 156,435 41,167 47,196 47,227 0,18 7,68 15,111 l 15,79 v 206 207 l -15,120 c -9,66 -23,149 -31,185 -8,36 -14,76 -14,90 -1,14 -7,36 -15,50 -8,14 -14,39 -15,55 0,17 -7,43 -15,59 -8,15 -15,40 -15,55 -1,14 -7,37 -15,51 -8,14 -14,35 -15,47 0,12 -6,37 -14,55 -8,18 -22,53 -31,78 -21,55 -109,234 -135,275 -11,17 -24,39 -30,50 -78,154 -465,547 -600,608 -8,4 -28,15 -45,25 -239,145 -516,223 -843,239 l -112,6 -118,-17 c -154,-23 -317,-65 -352,-92 -8,-6 -22,-14 -32,-17 -9,-3 -55,-31 -103,-62 l -87,-56 -100,-97 c -89,-86 -202,-220 -221,-262 -4,-8 -16,-28 -26,-45 -65,-102 -181,-390 -181,-451 0,-11 -8,-39 -17,-64 l -17,-45 v -280 -280 l 17,-80 c 10,-44 22,-98 28,-120 6,-22 14,-56 19,-75 22,-95 96,-263 152,-348 15,-24 28,-45 28,-48 0,-3 33,-44 73,-90 l 72,-85 95,-73 c 99,-75 154,-106 188,-106 12,0 33,-5 49,-11 42,-16 262,-47 308,-42 239,21 404,125 486,303 39,85 49,112 49,133 0,12 7,66 16,119 l 17,97 -18,93 -18,93 -30,65 -30,65 -65,68 c -36,37 -73,67 -82,67 -10,0 -34,7 -53,15 l -36,15 h -119 -119 l -67,-21 -68,-21 -23,10 -24,11 -6,38 c -4,21 -11,51 -16,67 -12,38 -12,143 0,151 5,3 12,18 16,34 l 6,29 58,64 59,64 53,29 54,30 175,-1 175,-1 30,-16 c 17,-9 34,-17 39,-17 9,0 60,-25 112,-54 65,-36 234,-195 234,-220 0,-8 6,-18 13,-24 36,-30 109,-212 153,-382 l 16,-65 1,-165 v -165 l -17,-70 c -10,-39 -22,-79 -27,-90 -12,-27 -39,-105 -46,-130 -33,-129 -142,-271 -309,-406 -80,-64 -158,-113 -194,-121 -14,-3 -38,-11 -55,-17 -68,-24 -135,-41 -162,-41 -15,0 -53,-7 -83,-15 l -55,-15 h -130 -130 l -80,16 c -99,19 -181,41 -220,59 -86,39 -168,82 -188,100 -12,11 -53,46 -92,77 -133,108 -361,369 -408,469 -4,8 -23,41 -42,74 -19,33 -42,77 -51,98 -9,20 -25,54 -35,74 -11,21 -19,44 -19,53 0,8 -7,24 -15,34 -8,11 -15,28 -15,39 0,10 -6,33 -14,50 -34,80 -66,298 -72,492 l -5,160 20,165 c 27,213 56,353 87,428 8,18 14,39 14,47 0,14 4,24 55,140 75,167 129,260 234,400 113,150 354,374 451,418 8,4 29,16 45,27 17,10 53,30 80,45 28,14 57,29 65,34 8,4 33,16 55,25 22,10 53,24 68,32 16,8 33,14 39,14 5,0 24,6 41,14 35,14 101,33 162,45 22,5 60,13 85,19 248,60 678,45 895,-30 17,-6 44,-13 60,-16 17,-2 39,-11 50,-18 11,-8 27,-14 36,-14 10,0 30,-7 46,-15 15,-8 62,-30 103,-51 86,-42 99,-49 160,-89 46,-30 201,-144 210,-155 3,-3 30,-25 60,-50 175,-142 474,-499 543,-650 4,-8 16,-28 26,-45 29,-45 121,-230 121,-242 0,-6 7,-16 15,-23 8,-7 15,-21 15,-32 0,-11 6,-32 14,-46 16,-31 39,-91 86,-222 6,-19 16,-51 20,-70 4,-19 13,-48 18,-65 26,-77 59,-212 71,-290 4,-27 13,-77 19,-110 25,-131 36,-237 40,-385 l 4,-155 -11,-65 c -7,-36 -16,-108 -21,-160 -8,-91 -13,-125 -47,-290 -27,-137 -58,-252 -100,-375 -14,-38 -27,-79 -30,-90 -3,-11 -11,-34 -19,-52 -8,-17 -14,-36 -14,-41 0,-28 -244,-411 -348,-546 -159,-207 -353,-376 -587,-512 -27,-16 -59,-34 -70,-41 -19,-12 -31,-18 -57,-28 -7,-3 -20,-9 -28,-14 -35,-21 -159,-75 -267,-115 -21,-8 -56,-20 -78,-29 -105,-38 -324,-93 -427,-107 -38,-5 -73,-12 -78,-15 -43,-26 -517,-43 -719,-25 -233,21 -551,89 -689,146 -18,8 -38,14 -46,14 -36,0 -346,149 -476,228 -149,92 -515,351 -540,382 -3,3 -36,31 -75,62 -90,71 -196,181 -285,298 -19,24 -41,51 -48,60 -39,45 -191,267 -222,325 -6,11 -22,40 -36,65 -55,95 -155,303 -189,390 -9,25 -22,59 -29,75 -17,39 -36,93 -46,130 -5,17 -19,62 -30,100 -12,39 -25,88 -30,110 -5,22 -13,58 -19,80 -27,110 -41,183 -41,212 0,17 -6,62 -14,100 l -15,68 -11,385 -12,385 11,125 c 11,119 29,232 53,330 6,25 14,63 19,85 13,64 30,127 45,163 8,18 14,41 14,51 0,10 7,32 15,47 8,16 15,37 15,46 0,10 6,32 14,50 8,18 21,49 30,70 9,20 16,43 16,51 0,9 4,18 9,22 5,3 13,20 17,38 3,17 13,48 21,67 9,19 21,49 28,65 7,17 20,47 29,68 9,21 16,42 16,48 0,6 14,31 30,56 17,24 30,47 30,50 0,3 27,50 60,105 33,54 60,101 60,103 0,3 20,34 45,71 25,36 45,68 45,71 0,3 14,22 30,43 17,21 30,41 30,45 0,4 14,24 30,45 17,21 30,41 30,45 0,6 87,124 100,135 3,3 30,37 60,75 74,96 308,327 407,403 68,51 386,249 443,275 8,4 31,17 50,28 38,24 275,143 328,165 81,35 99,42 137,56 83,31 111,40 146,47 19,4 41,11 47,15 20,12 200,60 282,75 25,5 65,13 90,19 66,16 219,39 355,54 l 120,13 h 235 235 l 105,-13 c 108,-13 265,-38 335,-52 22,-5 69,-11 105,-15 117,-10 389,-74 478,-111 18,-8 39,-14 47,-14 8,0 31,-7 52,-16 58,-25 91,-39 178,-75 44,-18 102,-46 128,-61 26,-15 54,-28 62,-28 8,0 17,-4 20,-10 3,-5 30,-21 58,-36 29,-14 66,-34 82,-44 17,-11 37,-23 45,-27 8,-4 42,-25 75,-47 34,-23 69,-45 78,-51 71,-43 225,-159 377,-283 292,-240 529,-495 778,-840 91,-125 225,-330 262,-397 6,-11 16,-29 23,-40 114,-189 222,-404 353,-705 9,-19 22,-48 30,-63 8,-16 14,-36 14,-46 0,-9 6,-25 14,-36 7,-11 16,-31 19,-45 3,-14 24,-77 46,-140 23,-63 41,-124 41,-135 0,-12 4,-25 10,-31 5,-5 14,-30 19,-54 24,-113 42,-165 60,-184 l 20,-20 11,28 c 5,15 10,35 10,43 0,9 4,30 10,47 5,17 16,58 25,91 27,103 46,169 57,200 5,17 14,49 19,73 5,23 13,51 19,61 5,11 10,28 10,39 0,11 7,33 15,48 8,16 15,39 15,51 0,12 6,37 14,55 8,18 22,60 30,93 9,33 21,74 27,90 6,17 17,53 25,80 8,28 19,64 24,80 5,17 16,53 24,80 19,64 35,112 52,153 8,18 14,39 14,47 0,8 6,29 14,47 8,18 21,51 29,73 8,22 22,59 31,83 9,23 23,60 31,82 8,22 22,58 30,80 8,22 21,57 29,78 26,70 48,127 60,157 17,41 36,94 46,130 5,17 20,62 34,100 14,39 26,80 26,93 v 22 h -23 -22 l -87,75 c -47,41 -88,78 -90,83 -1,5 -38,47 -80,93 -42,46 -89,102 -104,124 -14,22 -30,42 -34,45 -17,13 -171,250 -287,443 -155,260 -316,497 -367,542 -6,6 -36,39 -66,75 -197,233 -509,514 -750,676 -25,17 -74,51 -110,75 -36,25 -72,48 -80,52 -24,12 -57,32 -71,44 -8,5 -41,25 -74,44 -33,18 -78,43 -100,55 -99,55 -469,236 -550,269 -49,20 -105,43 -123,51 -18,8 -41,14 -50,14 -10,0 -22,4 -28,9 -5,6 -27,14 -49,20 -22,5 -53,14 -70,19 -16,6 -55,17 -85,25 -30,8 -80,22 -110,30 -102,28 -155,40 -205,47 -47,6 -79,12 -255,46 -42,8 -89,14 -105,14 -17,0 -86,6 -155,15 -119,14 -583,47 -625,44 -11,-1 -90,-7 -175,-15 z m 575,-317 c 44,-2 87,-6 95,-10 15,-6 104,-15 205,-20 28,-1 57,-6 65,-9 18,-8 79,-18 140,-23 25,-2 65,-9 90,-15 25,-7 61,-13 82,-14 20,0 40,-4 44,-8 4,-5 20,-8 35,-8 15,0 31,-5 34,-11 4,-6 13,-8 21,-5 8,3 22,2 32,-3 34,-17 84,-30 97,-25 7,3 16,1 20,-5 3,-6 19,-11 34,-11 15,0 36,-7 47,-15 10,-8 30,-15 44,-15 14,0 34,-7 44,-15 11,-8 31,-15 45,-15 14,0 35,-7 45,-15 11,-8 29,-15 40,-15 12,0 46,-13 76,-29 30,-15 72,-31 93,-35 21,-4 46,-15 56,-25 10,-10 29,-21 43,-24 13,-4 40,-18 59,-31 19,-14 103,-60 187,-102 84,-42 155,-81 158,-85 7,-12 54,-11 54,1 0,6 4,10 9,10 6,0 9,-12 8,-27 l -2,-28 34,-17 c 19,-9 39,-22 44,-27 6,-6 18,-11 26,-11 9,-1 34,-19 56,-40 22,-22 49,-43 60,-46 11,-4 35,-20 53,-35 18,-16 39,-29 47,-29 9,0 25,-11 37,-25 12,-14 27,-25 33,-25 13,0 38,-20 127,-102 34,-32 66,-58 71,-58 5,0 24,-14 41,-30 17,-17 79,-77 139,-134 59,-57 107,-108 107,-113 0,-5 22,-29 50,-54 27,-24 50,-48 50,-54 0,-5 20,-32 44,-60 79,-90 86,-98 86,-109 0,-6 9,-19 20,-31 46,-47 70,-79 70,-92 0,-8 11,-25 25,-39 14,-13 34,-47 46,-73 11,-27 32,-59 45,-72 13,-12 24,-29 24,-36 0,-8 10,-24 23,-37 13,-13 29,-38 37,-55 7,-17 28,-51 46,-74 19,-23 34,-47 34,-54 0,-10 32,-54 90,-122 11,-13 20,-30 20,-38 0,-7 14,-27 30,-45 17,-17 30,-37 30,-44 0,-7 9,-18 19,-23 10,-6 23,-23 29,-38 5,-16 34,-55 65,-88 30,-33 63,-68 72,-78 8,-10 20,-29 25,-42 5,-14 14,-25 19,-25 5,0 23,-28 40,-63 l 31,-64 v -66 -66 l -10,-6 c -6,-4 -8,-15 -5,-25 3,-10 1,-21 -5,-25 -5,-3 -10,-18 -10,-33 0,-15 -7,-36 -15,-46 -8,-11 -15,-32 -15,-46 0,-14 -7,-35 -15,-46 -8,-10 -15,-28 -15,-39 0,-11 -11,-42 -25,-68 -14,-26 -23,-52 -20,-57 3,-4 -4,-24 -16,-44 -11,-19 -18,-39 -15,-44 3,-5 -3,-26 -14,-46 -10,-21 -17,-43 -14,-50 3,-7 -2,-19 -11,-26 -8,-7 -15,-18 -15,-26 0,-7 -9,-29 -21,-48 -11,-19 -18,-39 -15,-44 8,-13 -26,-75 -62,-117 l -31,-34 -36,-3 -37,-2 -19,24 c -10,14 -19,30 -19,37 0,7 -13,27 -28,45 -15,18 -33,45 -40,61 -6,15 -16,27 -21,27 -6,0 -33,48 -62,108 -28,59 -62,120 -75,135 -14,16 -35,53 -49,82 l -24,53 -23,4 -23,3 2,23 c 3,28 -17,70 -46,96 -12,11 -21,25 -21,32 0,7 -12,27 -27,44 -15,18 -34,45 -42,60 -32,56 -71,110 -81,110 -6,0 -10,6 -10,13 0,8 -11,24 -25,37 -14,13 -25,29 -25,36 0,7 -8,19 -18,26 -10,7 -32,31 -48,53 -37,52 -49,66 -106,126 -27,27 -48,54 -48,60 0,6 -33,44 -72,84 -40,40 -111,114 -157,164 -46,50 -87,91 -91,91 -4,0 -33,25 -65,55 -32,30 -63,55 -68,55 -5,0 -24,15 -42,33 -39,39 -124,111 -137,116 -10,3 -32,22 -73,61 -12,11 -25,20 -31,20 -6,0 -22,9 -35,20 -66,55 -96,77 -121,88 -16,6 -28,16 -28,21 0,6 -20,19 -45,30 -25,11 -45,25 -45,30 0,6 -34,27 -75,46 -41,19 -75,39 -75,44 0,6 -55,37 -122,71 -68,33 -130,64 -138,69 -63,36 -162,81 -169,76 -5,-2 -38,11 -75,31 -37,19 -71,32 -75,29 -5,-3 -25,4 -45,16 -19,11 -40,18 -45,15 -5,-4 -25,3 -44,14 l -34,20 -16,-5 c -8,-4 -18,-2 -21,4 -4,5 -31,13 -61,16 -31,4 -58,11 -61,16 -3,5 -16,9 -29,9 -13,0 -27,5 -31,11 l -6,11 -23,-6 -24,-6 -6,10 c -3,5 -24,10 -45,10 -21,0 -42,5 -45,11 l -7,10 -38,-6 -38,-6 -7,10 c -3,6 -24,11 -45,11 -21,0 -42,5 -46,11 l -6,11 -35,-7 -35,-6 -11,10 c -15,11 -112,23 -181,21 -26,0 -53,4 -60,9 -17,14 -154,21 -396,21 -242,0 -379,-7 -396,-21 -7,-5 -34,-9 -60,-9 -70,2 -167,-10 -181,-22 l -13,-10 -26,6 -25,7 -37,-13 c -20,-7 -42,-15 -47,-19 -6,-4 -39,-11 -75,-15 -36,-3 -70,-11 -77,-16 -7,-5 -17,-7 -23,-3 -6,4 -27,-3 -46,-14 -20,-12 -40,-18 -45,-15 -10,6 -40,-3 -106,-32 -17,-8 -40,-14 -51,-14 -12,0 -24,-4 -27,-10 -3,-5 -18,-10 -33,-10 -15,0 -34,-5 -42,-10 l -15,-10 h 18 17 v -15 c 0,-17 -25,-20 -35,-5 -9,15 -41,12 -55,-5 -7,-8 -28,-17 -47,-21 -19,-4 -74,-26 -122,-50 -47,-24 -96,-44 -109,-44 -12,0 -25,-7 -28,-15 l -6,-15 h -24 -25 l -5,-15 c -4,-8 -17,-15 -30,-15 -12,0 -29,-8 -36,-19 -7,-10 -61,-41 -119,-69 -58,-28 -109,-57 -112,-66 -4,-9 -15,-16 -26,-16 -11,0 -23,-5 -26,-10 -4,-6 -22,-17 -41,-25 -19,-8 -34,-19 -34,-25 0,-6 -19,-19 -42,-30 -24,-10 -37,-19 -30,-19 17,-1 15,-28 -4,-35 -9,-3 -29,-6 -45,-6 h -29 l -31,-27 c -17,-16 -40,-36 -50,-45 -10,-10 -23,-18 -27,-18 -5,0 -19,-11 -32,-25 -13,-14 -29,-25 -35,-25 -6,0 -63,-54 -126,-121 -63,-66 -147,-155 -186,-197 -40,-42 -73,-79 -73,-84 0,-8 -7,-17 -72,-87 l -40,-43 11,-11 c 19,-19 12,-33 -21,-42 l -33,-10 -22,-47 c -13,-27 -28,-48 -33,-48 -6,0 -16,-13 -21,-29 -6,-16 -17,-32 -25,-35 -8,-3 -25,-29 -37,-58 -13,-29 -36,-67 -51,-85 -14,-17 -33,-48 -42,-70 -9,-21 -27,-53 -41,-71 -33,-44 -183,-338 -183,-358 0,-9 -16,-48 -35,-85 -19,-38 -35,-77 -35,-87 0,-9 -11,-39 -25,-65 -14,-26 -23,-52 -20,-57 3,-4 -4,-24 -16,-44 -11,-19 -18,-40 -15,-45 4,-5 -3,-25 -15,-45 -11,-19 -18,-40 -15,-45 4,-5 -3,-25 -14,-44 l -20,-34 5,-16 c 4,-8 2,-18 -4,-22 -6,-3 -11,-19 -11,-35 0,-16 -5,-32 -10,-35 -6,-4 -8,-15 -5,-25 3,-10 1,-21 -5,-25 -5,-3 -10,-19 -10,-35 0,-16 -5,-32 -10,-35 -6,-4 -8,-15 -5,-25 3,-10 1,-21 -5,-25 -5,-3 -10,-24 -10,-45 0,-21 -4,-41 -10,-45 -5,-3 -9,-18 -8,-33 1,-42 -13,-135 -23,-157 l -10,-20 5,-450 4,-450 12,-95 c 6,-52 12,-112 11,-132 0,-20 4,-40 9,-43 6,-3 10,-26 10,-50 0,-24 5,-47 10,-50 l 10,-6 -6,-24 -6,-23 11,-6 c 6,-4 11,-25 11,-46 0,-21 5,-42 10,-45 6,-4 8,-15 5,-25 -3,-10 -1,-21 5,-25 5,-3 10,-19 10,-35 0,-16 5,-32 10,-35 6,-4 8,-15 5,-25 -3,-10 -1,-21 5,-25 5,-3 10,-18 10,-33 0,-15 6,-36 14,-47 7,-11 16,-33 18,-50 7,-36 24,-83 52,-145 11,-25 20,-51 19,-59 -1,-7 16,-47 38,-89 21,-42 39,-86 39,-99 0,-13 7,-26 15,-29 8,-4 15,-15 15,-25 0,-26 66,-156 84,-166 8,-4 28,-38 45,-75 17,-38 35,-68 40,-68 5,0 18,-17 28,-37 l 18,-38 22,-3 23,-3 v -19 c 0,-10 -6,-21 -12,-24 l -13,-5 21,-18 c 11,-10 27,-30 35,-44 28,-51 69,-109 78,-109 5,0 11,-6 13,-14 3,-15 67,-93 115,-141 18,-18 33,-37 33,-43 0,-12 259,-272 271,-272 5,0 17,-7 27,-16 9,-9 46,-42 81,-75 36,-32 71,-59 78,-59 7,0 23,-11 35,-25 12,-14 28,-25 35,-25 7,0 23,-11 35,-25 12,-14 27,-25 33,-25 7,0 20,-9 30,-20 10,-11 23,-20 29,-20 6,0 33,-18 59,-39 26,-22 63,-45 81,-51 19,-6 37,-18 40,-26 3,-8 44,-32 91,-54 47,-22 85,-44 85,-49 0,-15 54,-41 84,-41 h 25 l 11,-20 c 6,-11 20,-20 30,-20 11,0 28,-4 38,-9 71,-39 165,-81 180,-81 9,0 39,-11 65,-25 26,-14 52,-23 57,-20 4,3 24,-4 43,-15 l 34,-20 16,5 c 8,4 18,2 22,-4 3,-6 19,-11 35,-11 16,0 32,-5 35,-10 4,-6 15,-8 25,-5 10,3 21,1 25,-5 3,-5 17,-10 30,-10 13,0 27,-5 31,-11 l 6,-11 23,6 24,6 6,-10 c 3,-5 24,-10 45,-10 21,0 41,-4 45,-10 3,-5 18,-9 33,-9 48,2 147,-13 160,-24 l 12,-10 59,7 59,7 7,-11 6,-10 h 239 239 l 6,10 6,10 63,-6 63,-6 7,11 7,11 h 59 c 32,0 62,5 65,10 l 6,10 24,-6 23,-6 6,11 c 4,6 25,11 46,11 21,0 42,5 45,10 l 7,11 19,-6 c 11,-4 25,-2 32,3 7,5 30,13 52,16 36,6 83,19 125,34 8,3 24,7 35,8 37,4 90,21 122,37 18,10 39,17 48,17 9,0 37,11 63,25 26,14 55,25 64,25 27,0 210,98 225,120 l 14,20 h 30 c 34,0 129,45 129,61 0,5 25,21 55,35 31,13 58,31 61,39 3,8 16,17 27,21 12,4 32,16 43,28 38,37 75,66 87,66 6,0 27,16 46,35 182,177 291,292 301,318 6,15 12,23 74,92 25,28 46,55 46,61 0,7 7,14 15,18 8,3 26,30 39,61 14,30 30,55 36,55 6,0 26,34 46,75 20,41 40,75 45,75 11,0 158,291 156,311 -1,8 6,30 14,49 25,53 41,103 43,127 0,12 4,25 9,29 4,4 7,19 7,33 0,14 7,35 15,45 8,11 15,32 15,47 0,15 5,31 10,34 6,4 8,15 5,25 -3,10 -1,21 5,25 5,3 10,19 10,35 0,16 4,31 9,34 5,3 12,43 16,88 4,46 11,88 16,94 4,5 11,54 15,107 4,54 11,100 15,103 l 9,5 v 319 319 l -10,6 c -5,3 -10,33 -10,65 v 59 l -10,6 -11,7 7,33 6,33 -11,6 c -5,4 -13,38 -17,76 -4,39 -11,73 -15,76 -5,3 -9,18 -9,34 0,16 -5,32 -11,35 -6,4 -8,14 -5,22 4,9 2,21 -3,27 -4,6 -12,34 -16,61 -3,28 -15,65 -26,83 -11,19 -17,37 -14,42 3,4 -2,21 -10,36 -8,16 -15,37 -15,47 0,10 -11,39 -25,65 -14,26 -25,55 -25,64 0,10 -9,35 -20,55 -11,21 -20,46 -20,55 0,24 -142,307 -184,367 -18,26 -42,67 -53,91 -11,25 -30,54 -42,64 -11,11 -21,24 -21,31 0,6 -11,21 -25,33 -14,12 -25,29 -25,37 0,9 -11,27 -24,40 -13,13 -26,28 -27,33 -6,15 -80,101 -131,152 -27,26 -48,51 -48,56 0,12 -172,184 -184,184 -5,0 -23,13 -40,30 -66,63 -131,120 -138,120 -7,0 -18,9 -73,59 -11,11 -31,22 -44,26 -13,4 -35,19 -47,32 l -24,26 -15,-13 c -8,-7 -22,-9 -31,-6 l -16,6 5,21 5,20 -16,6 c -47,16 -101,46 -106,59 l -6,16 -15,-5 c -7,-3 -33,5 -57,18 -24,14 -50,27 -58,31 -8,3 -32,15 -52,25 -21,11 -42,18 -47,15 -5,-4 -25,3 -45,15 -19,11 -40,18 -46,14 -6,-4 -16,-3 -23,2 -22,16 -84,33 -100,27 -8,-3 -18,-1 -22,5 -3,6 -24,11 -45,11 -21,0 -42,5 -45,10 l -6,10 -53,-6 -53,-6 -7,11 -7,11 h -239 -239 l -7,-11 -7,-11 -53,6 -53,6 -6,-10 c -3,-5 -24,-10 -45,-10 -21,0 -41,-4 -44,-9 -3,-4 -29,-11 -57,-15 -28,-4 -58,-11 -67,-16 -10,-5 -38,-12 -64,-15 -26,-3 -50,-10 -53,-16 -4,-5 -14,-9 -24,-9 -10,0 -24,-7 -31,-15 -7,-9 -19,-14 -26,-11 -10,4 -69,-19 -114,-44 -8,-5 -70,-37 -137,-71 -68,-34 -123,-66 -123,-71 0,-5 -20,-18 -45,-29 -25,-11 -45,-24 -45,-30 0,-6 -15,-16 -32,-24 -31,-13 -77,-50 -154,-125 -17,-16 -35,-30 -40,-30 -12,0 -124,-113 -124,-124 0,-9 -31,-44 -102,-115 -21,-20 -38,-43 -38,-49 0,-7 -11,-22 -25,-34 -13,-11 -29,-36 -35,-54 -6,-18 -17,-35 -25,-38 -14,-5 -205,-382 -205,-405 0,-7 -6,-27 -13,-44 -24,-56 -39,-101 -41,-122 -2,-11 -5,-27 -8,-35 -4,-8 -14,-46 -23,-85 -9,-38 -22,-80 -27,-92 -6,-11 -7,-26 -3,-32 4,-7 2,-17 -3,-24 -9,-11 -16,-58 -25,-167 -1,-19 -6,-42 -11,-51 -7,-16 -1,-451 8,-569 4,-62 15,-110 27,-126 4,-5 6,-19 3,-31 -3,-11 -1,-24 5,-27 6,-4 11,-18 11,-31 0,-13 5,-27 10,-30 6,-4 8,-15 5,-25 -3,-10 -1,-21 5,-25 5,-3 10,-17 10,-29 0,-13 7,-37 15,-52 8,-16 15,-37 15,-47 0,-14 80,-186 111,-237 5,-8 29,-55 54,-105 48,-96 100,-175 116,-175 5,0 9,-6 9,-12 0,-11 33,-51 105,-129 8,-9 15,-20 15,-25 0,-13 172,-184 185,-184 6,0 24,-16 39,-35 16,-19 33,-35 40,-35 6,0 17,-9 24,-20 7,-11 19,-20 27,-20 8,0 25,-11 36,-24 11,-13 41,-32 65,-41 24,-9 49,-25 54,-36 l 11,-19 h 23 c 13,0 26,-6 29,-14 3,-7 23,-16 45,-19 22,-4 45,-14 52,-22 7,-8 18,-15 24,-15 7,0 29,-9 50,-20 22,-10 43,-17 48,-14 5,3 15,1 22,-5 7,-6 35,-14 62,-17 27,-4 54,-10 59,-14 33,-26 459,-26 489,-1 6,5 40,13 75,17 36,4 76,13 90,20 14,8 36,14 48,14 12,0 25,5 28,10 3,6 14,10 24,10 10,0 24,7 31,15 7,8 30,18 52,22 22,3 42,12 45,19 3,8 13,14 23,14 10,0 24,7 31,17 8,9 33,25 57,35 23,10 42,23 42,29 0,6 17,17 37,26 l 38,15 107,109 c 60,59 108,114 108,120 0,12 9,23 56,72 29,30 144,261 144,289 0,13 7,32 15,42 8,11 15,32 15,47 0,15 4,30 9,33 5,4 12,30 16,59 4,28 12,58 18,65 l 10,13 1,202 c 1,211 -2,265 -14,282 -4,6 -10,38 -13,73 l -7,62 -25,48 c -14,26 -25,54 -25,62 0,24 -117,254 -140,275 -11,10 -20,24 -20,31 0,7 -9,18 -20,24 -11,6 -20,16 -20,23 0,15 -171,187 -187,187 -6,0 -13,6 -16,13 -3,8 -22,22 -44,32 -21,10 -42,24 -46,31 -4,8 -39,29 -78,49 l -70,35 -5,-15 c -4,-8 -15,-15 -26,-15 h -20 l 5,19 5,19 -22,6 c -11,3 -35,6 -52,6 -16,0 -35,5 -40,10 -29,29 -305,27 -341,-2 -7,-5 -16,-7 -21,-4 -13,8 -192,-83 -199,-100 -3,-8 -9,-14 -14,-14 -5,0 -51,-42 -102,-92 l -92,-92 v -36 -35 l -32,-14 -33,-15 v -20 c 0,-12 -7,-34 -16,-51 l -16,-30 1,-75 1,-75 18,-50 c 20,-57 21,-58 156,-196 l 99,-100 13,5 13,5 -5,-12 -5,-13 38,-16 c 21,-9 53,-19 70,-23 18,-4 35,-11 38,-16 4,-5 21,-9 39,-9 h 34 l 12,-15 c 7,-8 20,-15 29,-15 10,0 38,-20 64,-45 l 47,-44 -6,-14 c -3,-8 2,-20 11,-27 l 15,-12 v -48 -48 l -15,-12 c -9,-7 -13,-19 -11,-27 l 6,-14 -70,-69 -71,-68 -74,-7 c -41,-4 -104,-4 -139,0 l -65,6 -12,15 c -6,8 -17,14 -24,14 -43,0 -187,118 -258,212 -28,37 -108,200 -117,238 -9,40 -28,97 -42,123 -5,10 -11,59 -14,110 -4,51 -10,96 -15,102 l -9,9 1,176 v 175 l 12,55 c 7,30 15,60 20,67 4,6 4,18 1,26 -3,8 -1,18 5,22 6,3 11,19 11,35 0,16 5,32 10,35 6,3 10,15 10,25 0,27 121,273 142,288 10,7 18,19 18,26 0,19 74,100 221,241 9,8 23,15 32,15 9,0 18,4 21,9 8,12 146,79 181,87 17,4 35,11 42,16 7,6 34,12 60,14 26,3 53,10 60,16 l 14,11 142,-1 c 200,-2 210,-2 222,-11 5,-5 39,-12 75,-16 36,-4 70,-11 75,-15 6,-4 26,-11 45,-15 19,-4 40,-11 45,-15 6,-4 26,-11 45,-15 19,-4 40,-11 45,-15 6,-4 26,-10 46,-14 21,-4 42,-13 49,-21 7,-8 19,-15 27,-15 9,0 29,-12 47,-26 48,-39 97,-72 135,-89 18,-9 58,-41 90,-71 31,-29 60,-54 65,-54 10,0 81,-70 87,-86 3,-10 73,-92 131,-155 9,-10 27,-40 38,-68 12,-27 30,-57 40,-66 23,-20 130,-236 130,-261 0,-11 7,-28 15,-38 8,-11 15,-32 15,-46 0,-14 7,-35 15,-46 8,-10 15,-31 15,-46 0,-15 5,-30 10,-33 6,-4 8,-15 5,-25 -3,-10 -1,-21 5,-25 5,-3 10,-19 10,-35 0,-16 5,-32 10,-35 l 10,-6 -6,-24 -6,-23 11,-6 c 6,-4 11,-24 11,-45 0,-21 3,-41 8,-45 11,-12 13,-56 18,-390 l 5,-308 -11,-13 -11,-13 6,-35 7,-35 -11,-6 c -6,-4 -11,-24 -11,-44 -1,-20 -7,-48 -15,-62 -8,-14 -14,-41 -15,-60 0,-19 -7,-48 -15,-64 -8,-15 -15,-36 -15,-45 0,-9 -6,-28 -14,-42 -7,-14 -16,-42 -20,-61 -4,-20 -13,-41 -21,-48 -8,-7 -15,-16 -15,-21 0,-20 -63,-141 -85,-163 -14,-14 -25,-31 -25,-39 0,-8 -10,-26 -22,-40 -13,-14 -48,-53 -78,-87 -30,-34 -57,-68 -60,-74 -9,-20 -44,-56 -55,-56 -17,0 -95,-77 -95,-94 v -16 h -19 c -11,0 -32,-11 -47,-25 -15,-14 -33,-25 -41,-25 -7,0 -27,-14 -45,-30 -17,-17 -35,-30 -41,-30 -5,0 -20,-11 -33,-25 -13,-14 -32,-25 -42,-25 -11,0 -25,-7 -32,-15 -7,-8 -21,-15 -31,-15 -10,0 -21,-5 -24,-10 -9,-14 -75,-43 -101,-45 -12,0 -32,-8 -45,-17 -13,-8 -39,-19 -57,-23 -18,-4 -45,-13 -60,-21 -15,-8 -37,-14 -49,-14 -12,0 -25,-5 -28,-11 -4,-6 -13,-8 -20,-5 -13,5 -62,-8 -96,-25 -9,-4 -26,-5 -37,-2 -11,2 -23,0 -26,-6 -4,-6 -25,-11 -46,-11 -21,0 -42,-4 -45,-10 -8,-13 13,-12 -645,-11 -25,0 -54,4 -65,9 -56,26 -77,31 -103,26 l -28,-6 -36,21 -35,21 -16,-5 c -8,-4 -18,-2 -21,4 -4,5 -28,13 -54,16 -26,4 -63,15 -83,26 -21,10 -43,17 -51,14 -8,-3 -21,1 -28,10 -7,8 -19,15 -27,15 -7,0 -25,8 -40,17 -14,9 -35,17 -47,18 -27,1 -216,94 -216,106 0,5 -29,23 -65,40 -36,16 -77,41 -91,54 -15,14 -33,25 -40,25 -7,0 -18,9 -24,20 -6,11 -17,20 -25,20 -7,0 -41,27 -76,60 -34,33 -66,60 -72,60 -11,0 -207,195 -207,207 0,4 -18,28 -40,52 -22,24 -40,50 -40,58 0,8 -8,17 -18,19 -18,5 -41,37 -82,117 -14,27 -32,54 -41,61 -17,13 -149,277 -160,321 -7,29 -24,80 -40,120 -4,11 -11,40 -15,65 -3,25 -10,50 -14,55 -7,9 -19,61 -22,95 0,8 -4,20 -9,25 -4,6 -11,39 -15,75 -3,36 -11,70 -15,76 -5,6 -12,47 -15,90 -4,43 -10,84 -15,90 -5,6 -11,61 -15,123 -4,61 -11,114 -16,117 l -8,5 v 314 314 l 10,6 c 5,3 10,20 10,38 0,52 11,131 21,143 5,6 7,18 3,27 -3,8 -1,18 5,22 6,3 11,19 11,34 0,15 3,31 8,35 4,4 7,15 7,24 1,10 8,33 17,52 21,46 38,96 49,145 6,22 14,44 20,50 5,5 9,18 9,30 0,12 22,64 50,117 28,53 50,105 50,117 0,11 5,23 10,26 6,3 10,15 10,26 0,11 7,22 16,26 9,3 34,44 56,90 22,46 55,100 75,121 19,20 43,55 54,78 10,22 27,49 39,59 11,10 20,23 20,29 0,6 9,17 20,24 11,7 20,16 20,21 0,5 25,35 55,68 30,32 55,61 55,65 0,11 196,208 207,208 5,0 37,26 72,58 95,87 113,102 126,102 6,0 21,11 33,25 12,14 29,25 37,25 9,0 27,11 40,24 13,13 52,37 87,54 35,16 72,39 82,51 11,11 27,21 36,21 9,0 20,4 25,9 19,19 230,121 250,121 11,0 40,11 63,25 24,14 48,23 53,20 4,-3 30,6 56,20 26,14 58,25 70,25 12,0 25,5 28,11 4,6 13,8 20,5 13,-5 63,8 97,25 10,5 24,6 32,3 8,-3 17,-1 21,5 3,6 26,11 50,11 24,0 47,5 50,10 l 6,10 24,-6 23,-6 6,11 7,11 h 53 c 29,0 56,3 60,8 14,13 587,20 716,8 102,-9 165,-19 176,-27 6,-5 20,-8 30,-7 28,3 117,-13 131,-24 7,-5 17,-7 22,-4 6,4 18,3 28,-2 35,-18 85,-31 98,-26 7,3 16,1 20,-5 3,-6 19,-11 34,-11 15,0 36,-7 47,-15 10,-8 29,-15 42,-15 12,0 46,-13 75,-30 30,-16 62,-30 72,-30 10,0 58,-20 106,-45 48,-25 97,-45 108,-45 11,0 23,-4 26,-10 3,-5 14,-10 24,-10 10,0 26,-9 37,-21 10,-11 74,-47 141,-80 68,-33 123,-64 123,-69 0,-6 24,-21 54,-35 30,-14 70,-39 88,-55 18,-17 41,-30 51,-30 9,0 20,-7 23,-15 5,-13 38,-37 103,-75 14,-8 50,-39 80,-67 30,-29 59,-53 64,-53 5,0 23,-16 40,-35 17,-19 35,-35 40,-35 12,0 147,-135 147,-147 0,-5 16,-23 35,-40 19,-17 35,-35 35,-40 0,-5 18,-27 40,-48 22,-21 40,-44 40,-50 0,-6 11,-21 25,-33 14,-12 25,-28 25,-35 0,-7 11,-23 25,-35 14,-12 25,-29 25,-37 0,-8 14,-29 30,-47 17,-17 30,-37 30,-44 0,-7 18,-31 39,-54 l 39,-42 7,-34 6,-34 29,-30 c 17,-17 30,-39 30,-48 0,-10 4,-22 9,-27 5,-6 66,-125 136,-265 69,-140 130,-262 136,-270 17,-29 39,-83 39,-99 1,-9 14,-41 30,-71 17,-30 30,-63 30,-73 0,-10 11,-39 25,-65 14,-26 25,-56 25,-67 0,-12 5,-26 11,-32 6,-6 15,-29 19,-50 9,-41 27,-97 42,-126 5,-10 6,-22 3,-28 -4,-5 3,-25 14,-44 11,-19 18,-41 15,-49 -3,-8 -1,-17 5,-21 6,-3 11,-19 11,-35 0,-16 5,-32 11,-35 6,-4 8,-13 5,-20 -5,-13 8,-63 25,-97 5,-10 6,-24 3,-32 -3,-8 -1,-17 5,-20 5,-4 13,-38 17,-76 4,-39 11,-73 15,-76 5,-3 9,-25 9,-49 0,-24 5,-47 11,-50 l 10,-7 -6,-29 -7,-30 10,-12 c 38,-48 38,-1075 0,-1154 -6,-13 -9,-25 -6,-28 3,-3 -1,-31 -9,-63 -8,-31 -16,-66 -17,-77 -1,-11 -5,-27 -8,-35 -9,-23 -22,-73 -23,-90 0,-8 -8,-29 -18,-47 -9,-17 -14,-38 -11,-46 3,-8 1,-18 -5,-22 -6,-3 -11,-16 -11,-28 0,-12 -14,-48 -30,-80 -16,-32 -32,-74 -36,-92 -3,-19 -12,-39 -20,-46 -8,-6 -14,-16 -14,-21 0,-20 -141,-298 -150,-298 -6,0 -21,-25 -35,-55 -14,-30 -41,-71 -60,-92 -20,-21 -44,-56 -54,-78 -10,-22 -35,-56 -55,-74 -20,-19 -36,-40 -36,-46 0,-6 -20,-33 -45,-60 -25,-28 -45,-54 -45,-59 0,-13 -4,-17 -217,-228 -254,-253 -249,-248 -259,-248 -5,0 -30,-19 -57,-43 -82,-73 -100,-87 -113,-87 -7,0 -19,-9 -26,-19 -7,-10 -30,-26 -49,-34 -44,-18 -55,-33 -38,-53 17,-21 3,-30 -25,-15 l -24,13 -31,-18 c -17,-10 -31,-22 -31,-26 0,-8 -364,-188 -380,-188 -5,0 -19,-9 -31,-21 l -21,-21 -14,6 c -9,3 -36,-5 -62,-19 -26,-14 -56,-25 -67,-25 -11,0 -40,-11 -63,-25 -24,-14 -48,-22 -53,-19 -5,3 -26,-4 -45,-15 -20,-12 -40,-19 -44,-16 -5,3 -24,-2 -42,-12 -18,-10 -40,-18 -48,-18 -23,-2 -72,-15 -107,-31 -17,-8 -40,-14 -51,-14 -12,0 -23,-4 -27,-9 -3,-5 -36,-13 -73,-16 -37,-4 -71,-10 -77,-14 -5,-3 -19,-7 -30,-8 -11,0 -46,-8 -78,-16 -32,-8 -67,-13 -77,-10 -10,3 -21,0 -24,-6 -4,-6 -25,-11 -46,-11 -21,0 -42,-5 -45,-11 l -7,-10 -38,6 -38,6 -7,-10 -6,-11 h -68 c -37,0 -71,-3 -75,-7 -9,-10 -41,-12 -216,-19 -74,-3 -139,-8 -145,-12 -15,-11 -658,-4 -820,8 -77,6 -162,12 -190,13 -27,1 -57,6 -65,9 -8,4 -46,10 -85,13 -123,9 -140,11 -155,17 -19,8 -85,19 -132,21 -20,1 -40,5 -44,9 -4,5 -23,8 -43,8 -20,0 -49,7 -65,15 -15,8 -42,15 -60,15 -17,0 -44,7 -60,15 -15,8 -36,15 -45,15 -9,0 -29,7 -45,15 -15,8 -36,15 -45,15 -9,0 -41,13 -71,30 -30,16 -64,29 -74,30 -24,0 -506,240 -506,251 0,4 -20,17 -45,28 -25,11 -45,25 -45,31 0,5 -18,17 -40,26 -22,9 -45,25 -51,35 -5,11 -15,19 -23,19 -7,0 -28,14 -46,30 -18,17 -40,30 -47,30 -7,0 -31,17 -53,38 -52,49 -106,92 -115,92 -10,0 -31,20 -300,289 -273,274 -304,307 -329,346 -10,17 -25,37 -32,45 -51,58 -64,74 -64,86 0,7 -8,19 -18,26 -10,7 -25,25 -33,39 -28,52 -69,109 -79,109 -6,0 -10,6 -10,13 0,8 -10,22 -21,33 -12,10 -31,39 -42,64 -11,25 -28,54 -38,65 -10,11 -43,71 -73,133 -31,61 -60,112 -65,112 -10,0 -51,79 -51,97 0,6 -7,16 -15,23 -8,7 -15,23 -15,37 0,13 -25,72 -55,131 -30,59 -55,115 -55,125 0,10 -11,38 -25,63 -14,25 -23,50 -19,55 3,5 -4,26 -15,45 -12,20 -19,40 -16,44 3,5 -2,24 -12,42 -9,18 -18,42 -19,53 -2,18 -14,57 -35,110 -4,11 -11,40 -15,65 -3,25 -11,54 -17,65 -6,11 -14,40 -18,65 -12,74 -29,144 -39,162 -6,10 -10,29 -10,42 0,14 -5,28 -11,32 l -11,6 7,25 c 5,23 -7,77 -26,116 -5,9 -6,28 -3,42 3,14 2,31 -4,38 -10,13 -25,113 -24,167 1,19 -3,39 -7,45 -5,5 -12,74 -16,153 -4,78 -11,145 -16,148 l -9,5 v 584 584 l 10,6 c 5,3 10,20 10,38 0,49 11,131 20,142 4,6 11,40 15,77 3,37 11,70 16,74 5,3 7,14 4,24 -3,10 -1,21 5,25 5,3 10,19 10,35 0,16 5,32 10,35 6,4 8,15 5,25 -3,10 -1,21 5,25 5,3 10,18 10,33 0,15 7,36 15,46 8,11 15,32 15,47 0,15 5,31 10,34 6,3 10,16 10,28 0,12 9,39 20,60 11,20 20,45 20,56 0,10 11,39 25,62 14,24 25,53 25,63 0,11 20,59 45,107 25,48 45,95 45,105 0,28 114,252 136,266 6,4 26,40 44,80 18,40 40,77 48,82 8,4 29,41 48,82 18,41 38,74 44,74 6,0 16,12 23,28 6,15 19,32 28,39 9,7 24,32 33,58 10,25 26,50 37,55 10,6 19,17 19,24 0,7 14,27 30,44 17,18 30,38 30,45 0,13 25,46 70,92 11,12 20,26 20,31 0,10 14,28 64,84 7,8 21,29 32,45 10,17 31,41 46,54 15,13 28,29 28,35 0,6 9,17 20,24 11,7 20,19 20,28 0,8 25,39 55,68 30,29 55,57 55,62 0,5 32,41 70,79 39,38 70,73 70,78 0,11 250,262 267,268 11,4 123,103 204,182 22,20 44,37 51,37 7,0 21,9 33,20 43,42 78,70 89,70 5,0 19,9 31,20 44,43 78,70 89,70 6,0 22,14 36,30 l 25,30 h 22 c 12,0 28,9 35,19 8,11 33,27 56,36 23,10 48,25 55,34 6,10 44,32 84,51 40,18 79,41 88,50 22,24 317,170 344,170 12,0 24,7 27,15 4,8 14,15 24,15 10,0 40,11 67,24 26,13 55,27 63,30 8,3 35,17 59,31 24,14 48,22 52,19 5,-3 30,6 55,20 26,14 56,26 68,26 12,0 31,7 42,15 10,8 31,15 45,15 14,0 34,7 45,15 10,8 29,15 40,15 12,0 35,7 50,15 16,8 38,15 50,15 11,0 24,3 28,8 4,4 17,8 29,9 33,2 165,35 207,51 8,3 22,6 30,7 18,1 69,14 90,23 8,3 31,7 50,7 19,1 62,9 94,18 33,8 65,13 73,10 7,-3 19,-1 26,5 11,9 71,19 162,27 22,2 76,9 120,16 44,7 108,11 143,10 34,-1 70,3 80,9 l 17,10 235,-5 c 129,-3 271,-6 315,-8 z"
         id="path1" /><path
         d="m 13299,10617 c -21,-5 -47,-19 -59,-32 l -23,-24 v -53 -53 l 44,-67 c 24,-37 62,-96 83,-130 22,-35 74,-114 115,-176 42,-63 83,-124 91,-137 8,-13 38,-56 65,-97 28,-40 52,-77 54,-83 2,-5 17,-26 32,-46 16,-20 29,-40 29,-43 0,-3 19,-34 43,-69 24,-34 47,-69 51,-77 8,-17 20,-37 57,-95 14,-22 29,-47 32,-55 4,-8 16,-28 26,-45 11,-16 38,-66 61,-110 23,-44 45,-87 50,-95 14,-24 66,-141 85,-190 9,-25 22,-58 29,-75 21,-50 38,-98 46,-135 4,-19 13,-48 18,-65 15,-43 39,-162 57,-286 l 17,-106 -5,-139 c -4,-142 -20,-282 -40,-344 -6,-19 -14,-53 -18,-75 -8,-45 -25,-97 -45,-137 -8,-14 -14,-33 -14,-41 0,-13 -12,-41 -41,-97 -5,-8 -20,-37 -34,-65 -113,-221 -368,-484 -555,-572 -104,-49 -197,-82 -261,-93 -25,-5 -64,-14 -85,-20 l -39,-11 -140,4 -140,4 -55,15 c -130,35 -234,92 -425,237 -243,183 -425,407 -519,636 -7,17 -20,46 -28,65 -25,57 -45,111 -63,175 -10,33 -22,71 -27,85 -6,14 -13,45 -18,70 -4,25 -12,65 -18,90 -19,78 -41,229 -57,390 l -15,155 v 190 l 1,190 14,120 c 8,66 15,145 15,175 0,49 10,133 41,330 6,36 14,103 19,150 4,47 13,112 19,145 6,33 16,123 22,200 l 11,141 -12,94 c -7,52 -16,100 -20,105 -4,6 -10,22 -14,37 -3,15 -16,43 -27,63 l -21,35 h -22 -22 l -24,-72 c -12,-40 -27,-77 -31,-83 -5,-5 -9,-17 -9,-27 0,-9 -6,-32 -14,-50 -17,-42 -35,-94 -46,-133 -5,-16 -14,-46 -21,-65 -6,-19 -17,-51 -24,-70 -7,-19 -20,-60 -28,-90 -29,-97 -77,-254 -88,-285 -6,-16 -15,-46 -19,-65 -4,-19 -12,-48 -18,-65 -15,-45 -38,-128 -87,-307 -7,-29 -21,-77 -29,-107 -9,-29 -16,-63 -16,-75 0,-13 -6,-42 -14,-67 -20,-67 -38,-139 -46,-189 -9,-55 -27,-129 -46,-190 -8,-25 -14,-57 -14,-71 0,-15 -7,-43 -15,-62 -8,-20 -15,-50 -15,-67 0,-17 -4,-40 -10,-50 -5,-10 -14,-47 -20,-82 -5,-35 -14,-81 -19,-103 -6,-22 -17,-76 -26,-120 -9,-44 -21,-100 -27,-125 -5,-25 -14,-72 -18,-105 -4,-33 -12,-80 -18,-105 -14,-58 -33,-176 -42,-265 -4,-38 -13,-101 -19,-140 -15,-98 -41,-378 -41,-450 -1,-33 -7,-105 -15,-160 -8,-55 -15,-132 -15,-171 0,-39 -5,-96 -10,-125 -6,-30 -15,-115 -20,-189 -5,-74 -14,-175 -19,-225 -5,-49 -15,-229 -21,-400 l -12,-310 16,-263 c 9,-145 18,-268 21,-273 3,-4 10,-56 15,-114 5,-57 14,-113 19,-123 l 10,-19 68,-6 c 37,-4 113,-11 167,-17 l 99,-10 91,11 c 50,6 136,15 191,19 111,9 207,24 305,46 36,8 74,14 84,14 11,0 42,6 70,14 76,21 136,36 181,46 22,4 54,12 70,18 17,6 57,18 90,27 33,10 76,23 95,30 19,7 62,20 95,30 33,10 74,24 92,31 17,8 36,14 42,14 6,0 25,6 43,14 18,8 53,22 78,31 76,30 322,153 378,190 30,19 56,35 59,35 2,0 30,17 61,37 321,208 685,535 947,852 11,13 27,31 36,40 38,39 205,271 314,436 65,99 125,191 135,205 23,34 170,334 170,348 0,6 6,23 14,39 37,77 93,223 103,273 3,14 10,30 15,37 6,7 14,27 18,45 8,31 15,52 45,138 7,19 21,62 30,95 10,33 23,76 30,95 7,19 18,51 24,70 7,19 16,49 21,65 4,17 12,41 18,55 5,14 19,54 31,90 11,36 30,90 41,120 12,30 25,66 30,80 94,278 332,685 544,931 17,19 49,58 71,85 70,86 407,416 510,499 55,44 105,85 111,90 6,6 27,21 46,35 83,56 85,142 4,209 l -16,13 -49,1 -49,1 -44,-18 c -184,-78 -257,-119 -403,-230 -128,-97 -339,-318 -500,-524 -85,-108 -214,-269 -288,-360 l -52,-64 -39,-19 c -94,-45 -278,6 -387,108 l -50,47 -117,173 c -64,96 -122,181 -127,191 -6,9 -29,45 -53,80 -23,35 -42,66 -42,68 0,3 -9,17 -19,32 -11,15 -50,74 -87,132 -135,212 -319,486 -356,535 -83,107 -138,185 -138,195 0,5 -4,10 -8,10 -4,0 -15,13 -25,29 -26,45 -77,98 -132,141 l -50,38 -45,9 -45,9 z m 1478,-2081 c 12,-1 28,-7 35,-13 6,-7 18,-13 25,-13 8,0 27,-10 43,-22 l 30,-22 v -45 c 0,-25 -7,-58 -14,-73 -8,-16 -18,-49 -22,-74 -3,-25 -17,-64 -30,-87 -42,-76 -58,-112 -60,-140 -1,-16 -10,-37 -19,-47 -9,-10 -14,-23 -10,-29 9,-15 -24,-80 -47,-92 l -20,-11 6,-33 7,-34 -21,-11 -22,-12 6,-13 c 2,-7 -6,-26 -19,-41 l -23,-27 -14,6 -15,5 -1,391 -2,390 25,25 25,25 42,4 c 24,2 50,1 58,-1 8,-3 25,-5 37,-6 z m -3373,-532 c 10,-14 19,-39 20,-55 l 1,-28 20,-15 c 11,-8 17,-17 13,-21 -4,-4 2,-24 13,-43 10,-20 19,-44 19,-53 0,-9 7,-30 15,-45 8,-16 15,-38 15,-49 0,-11 7,-29 15,-39 8,-11 15,-29 15,-40 0,-12 41,-105 92,-208 l 93,-187 20,-3 20,-3 3,-27 c 2,-16 8,-28 13,-28 5,0 15,-12 21,-27 12,-28 20,-38 86,-106 17,-19 32,-38 32,-43 0,-12 173,-184 184,-184 9,0 24,-12 72,-59 l 25,-24 11,11 c 20,20 31,14 25,-13 l -4,-26 33,-14 c 19,-8 34,-18 34,-24 0,-6 20,-19 45,-30 25,-11 45,-25 45,-30 0,-12 256,-141 280,-141 8,0 28,-7 45,-16 16,-8 50,-18 75,-21 25,-3 50,-9 55,-14 11,-8 120,-21 170,-20 89,1 213,12 230,20 11,6 41,12 67,16 26,3 50,11 54,16 3,5 13,7 22,5 17,-5 85,14 98,27 4,4 15,7 24,7 10,0 23,7 30,15 7,8 28,18 49,21 l 36,7 22,23 c 12,13 31,24 42,24 11,0 23,5 26,11 4,5 35,23 68,38 l 62,29 51,49 c 28,28 55,52 61,54 22,8 243,223 243,237 0,14 20,40 68,87 12,12 22,29 22,38 0,9 21,36 46,61 l 46,45 -7,12 -7,11 36,30 37,30 -5,13 c -6,18 38,69 55,63 l 13,-4 3,-37 2,-37 -21,-11 -20,-11 6,-33 7,-34 -22,-11 -21,-12 6,-33 7,-34 -21,-11 -21,-11 5,-17 c 3,-10 -2,-33 -13,-52 -10,-19 -16,-41 -14,-47 3,-7 -2,-16 -11,-19 -9,-3 -16,-16 -16,-28 v -21 l -21,-13 -20,-13 6,-19 6,-19 -15,-8 c -8,-4 -35,-52 -61,-105 -25,-54 -50,-98 -56,-98 -5,0 -17,-16 -25,-36 -9,-21 -22,-43 -30,-51 -8,-8 -14,-19 -14,-24 0,-11 -16,-32 -43,-57 -10,-9 -25,-33 -33,-53 -9,-20 -31,-49 -50,-65 -19,-16 -34,-34 -34,-40 0,-6 -10,-22 -22,-36 -57,-64 -108,-127 -108,-134 0,-8 -1,-9 -239,-251 -99,-101 -184,-183 -189,-183 -4,0 -22,-16 -39,-35 -17,-19 -35,-35 -40,-35 -4,0 -28,-18 -53,-41 -24,-22 -52,-45 -62,-50 -10,-6 -17,-18 -16,-27 l 3,-17 h -27 c -14,0 -35,-8 -45,-17 -48,-46 -77,-68 -90,-68 -8,0 -25,-11 -39,-25 -13,-14 -49,-36 -79,-50 -30,-13 -55,-29 -55,-34 0,-12 -328,-175 -355,-176 -11,-1 -38,-11 -60,-23 -22,-12 -50,-22 -62,-22 -12,0 -24,-4 -27,-9 -4,-5 -24,-12 -46,-16 -22,-4 -42,-10 -45,-15 -3,-4 -20,-11 -39,-14 -20,-4 -48,-13 -63,-21 -15,-8 -38,-15 -50,-15 -12,0 -25,-5 -28,-11 -4,-6 -14,-8 -22,-4 -9,3 -31,-3 -49,-14 l -33,-20 -63,-7 c -35,-4 -68,-11 -75,-16 -7,-5 -16,-7 -21,-4 -9,5 -60,-8 -93,-25 -9,-4 -45,-11 -80,-15 -35,-3 -69,-11 -76,-16 l -11,-9 -35,6 -35,7 -6,-11 -7,-11 h -54 c -30,0 -57,-4 -60,-10 l -6,-10 h -75 c -41,0 -82,4 -92,9 -9,5 -36,14 -59,20 l -42,12 -20,44 c -11,25 -25,45 -30,45 -6,0 -11,10 -11,23 0,13 -3,27 -7,31 -5,4 -8,24 -9,44 -3,130 -2,782 1,852 10,218 18,326 25,335 4,6 11,80 15,165 l 7,155 10,13 11,12 -6,60 -5,60 9,6 c 5,3 9,45 9,94 v 89 l 11,6 10,7 -2,66 c -3,90 11,244 24,260 l 10,12 -6,44 c -4,23 -2,47 3,52 4,5 11,34 13,64 10,105 28,215 39,237 6,11 7,26 3,32 -4,7 -2,17 3,24 10,12 22,67 23,99 0,10 4,20 10,23 5,4 9,16 9,28 0,12 7,35 15,51 8,15 15,42 15,59 v 30 l 23,22 c 12,13 33,23 47,24 h 25 z"
         id="path2" /><path
         d="m 10303,5542 c -6,-4 -34,-52 -62,-107 -71,-140 -165,-282 -270,-405 -217,-255 -486,-492 -804,-708 -229,-155 -378,-245 -554,-334 -45,-22 -91,-49 -102,-60 l -20,-18 6,-16 6,-17 159,7 c 88,4 198,14 246,21 48,8 106,15 129,15 23,0 75,6 115,14 40,8 102,20 138,26 145,24 226,42 285,62 17,6 48,14 70,18 22,4 54,13 70,19 102,36 184,64 210,70 17,4 39,12 50,18 11,5 37,17 58,26 20,9 52,23 70,30 78,34 293,142 299,151 9,13 0,202 -18,359 -8,71 -14,179 -14,240 0,62 -5,166 -10,232 -5,66 -10,167 -11,225 -2,140 -8,157 -46,132 z"
         id="path3" /></g></g></svg>
