<?xml version="1.0" encoding="UTF-8" standalone="no"?>
<!-- Created with Inkscape (http://www.inkscape.org/) -->

<svg
   width="48"
   height="48"
   viewBox="0 0 48 48"
   version="1.1"
   id="svg1"
   inkscape:version="1.4.2 (f4327f4, 2025-05-13)"
   sodipodi:docname="costo.svg"
   xmlns:inkscape="http://www.inkscape.org/namespaces/inkscape"
   xmlns:sodipodi="http://sodipodi.sourceforge.net/DTD/sodipodi-0.dtd"
   xmlns="http://www.w3.org/2000/svg"
   xmlns:svg="http://www.w3.org/2000/svg">
  <sodipodi:namedview
     id="namedview1"
     pagecolor="#ffffff"
     bordercolor="#000000"
     borderopacity="0.25"
     inkscape:showpageshadow="2"
     inkscape:pageopacity="0.0"
     inkscape:pagecheckerboard="0"
     inkscape:deskcolor="#d1d1d1"
     inkscape:document-units="px"
     inkscape:zoom="6.078125"
     inkscape:cx="-11.105398"
     inkscape:cy="32.411311"
     inkscape:window-width="1718"
     inkscape:window-height="1360"
     inkscape:window-x="1713"
     inkscape:window-y="0"
     inkscape:window-maximized="0"
     inkscape:current-layer="layer1" />
  <defs
     id="defs1" />
  <g
     inkscape:label="Livello 1"
     inkscape:groupmode="layer"
     id="layer1">
    <path
       d="M 27.91552,0.76538056 C 27.392389,0.94541468 25.03829,1.7735698 22.684201,2.5657194 20.330102,3.3938757 16.55608,4.690119 14.276716,5.446262 8.7838205,7.3186141 8.1112207,7.5706614 8.073859,7.894723 c -0.1494691,2.556481 0,39.355412 0.1868308,39.643458 0.1868308,0.324062 4.0355882,0.432086 14.4982462,0.432086 15.955532,0 16.030266,0 16.7776,-2.520473 0.224204,-0.792152 0.3363,-7.561425 0.261566,-18.831547 L 39.686006,9.0109321 38.565009,8.1467703 C 37.817675,7.5706614 36.883509,7.2826075 35.575672,7.2105932 L 33.707342,7.1025734 33.595245,4.9061597 C 33.5205,3.0338075 33.33368,2.5657194 32.436887,1.7375632 31.31588,0.69336736 29.410189,0.29729249 27.91552,0.76538056 Z m 3.288264,2.48446764 c 0.224204,0.3240606 0.448396,1.332251 0.448396,2.3044336 v 1.7283257 h -8.295378 c -4.55873,0 -8.183294,-0.1080209 -8.033825,-0.2160407 0.485769,-0.5040946 14.274042,-4.7528947 14.797173,-4.5728606 0.3363,0.1080199 0.822069,0.4680881 1.083634,0.756142 z m 6.165494,6.6252464 c 0.597866,0.6841294 0.635228,2.0523864 0.635228,17.7153354 0,14.114654 -0.07474,17.103217 -0.523131,17.715336 -0.523131,0.648122 -1.158369,0.684127 -13.489347,0.792151 -9.416385,0.07205 -13.115674,0 -13.489346,-0.324061 C 9.7553474,45.197741 9.7179857,9.2269728 10.465309,8.9749255 c 0.224193,-0.072009 6.240218,-0.072009 13.339877,0 12.405713,0.1440275 12.928844,0.1800341 13.564082,0.9001691 z"
       id="path2-5"
       style="fill:#000000;stroke:none;stroke-width:0.0366805" />
    <path
       d="m 16.331876,12.50359 c -0.224203,0.540102 -0.373672,1.11621 -0.373672,1.296245 0,0.21604 -0.747323,0.684128 -1.681488,1.080203 l -1.6815,0.720136 0.07474,11.918243 0.112095,11.918243 1.494669,0.828156 c 1.008901,0.540102 1.606765,1.152221 1.830958,1.908357 0.186831,0.684128 0.635238,1.188222 1.120996,1.332252 0.448407,0.07205 3.73666,0.108024 7.323863,0.07205 l 6.539156,-0.108024 0.635227,-1.260243 c 0.373672,-0.684126 1.307838,-1.584293 2.055161,-2.016374 l 1.419934,-0.756142 0.112097,-11.954251 0.07474,-11.954251 -1.606766,-0.648121 c -1.270457,-0.540103 -1.718853,-0.936178 -1.980418,-1.872354 l -0.373661,-1.22423 -7.361225,-0.108021 -7.361225,-0.07201 z m 14.124574,2.124399 c 0.411034,0.684129 1.270465,1.512285 1.905703,1.836347 l 1.158358,0.576108 V 27.626436 38.21243 l -1.120996,0.576108 c -0.597866,0.288054 -1.419934,1.008189 -1.756234,1.548292 -0.373662,0.540101 -0.822058,1.080207 -1.046262,1.224235 -0.18683,0.144019 -2.765122,0.288047 -5.679725,0.288047 h -5.306053 l -1.0089,-1.296242 C 17.041838,39.868742 16.107673,39.040586 15.509808,38.752531 L 14.463546,38.21243 V 27.662443 17.076451 l 1.270465,-0.720136 c 0.709962,-0.396074 1.569393,-1.22423 1.905692,-1.836345 l 0.597866,-1.11621 h 5.717098 5.754449 z"
       id="path3-9"
       style="fill:#000000;stroke:none;stroke-width:0.0366805" />
    <path
       d="m 20.703764,18.552729 c -0.822058,0.612116 -1.756223,3.960745 -1.756223,6.229173 0,2.088393 1.0089,3.672691 2.914591,4.536854 0.934166,0.468088 1.008901,0.612115 1.008901,2.988562 v 2.520474 l -1.494669,0.180035 c -1.195731,0.144027 -1.494658,0.32406 -1.494658,0.900169 0,0.684128 0.261566,0.720135 4.110322,0.720135 3.848758,0 4.110322,-0.03601 4.110322,-0.720135 0,-0.576109 -0.298926,-0.756142 -1.494657,-0.900169 l -1.494668,-0.180035 v -2.520474 c 0,-2.376447 0.03738,-2.520474 1.008899,-2.988562 1.756235,-0.79215 2.914591,-2.628495 2.914591,-4.500848 0,-1.836345 -0.896792,-5.58105 -1.494657,-6.15716 -0.597865,-0.576107 -6.128122,-0.648122 -6.838094,-0.108019 z m 5.866556,2.268427 c 0.560504,1.404264 0.298938,1.584298 -2.354087,1.584298 -2.727762,0 -3.21353,-0.252047 -2.839869,-1.44027 0.186831,-0.612116 0.560504,-0.720137 2.615664,-0.720137 1.793596,0 2.391461,0.144027 2.578292,0.576109 z m 0.485769,3.600677 c 0.373673,0.972183 -0.373661,2.412455 -1.718861,3.168597 -1.270465,0.684129 -1.270465,0.684129 -2.615665,0 -1.382561,-0.720135 -2.204629,-2.160407 -1.793596,-3.168597 0.3363,-0.864162 5.791822,-0.864162 6.128122,0 z"
       id="path4-9"
       style="fill:#000000;stroke:none;stroke-width:0.0366805" />
  </g>
</svg>
