<?xml version="1.0" encoding="UTF-8" standalone="no"?>
<!-- Created with Inkscape (http://www.inkscape.org/) -->

<svg
   width="48"
   height="48"
   viewBox="0 0 48 48"
   version="1.1"
   id="svg1"
   inkscape:version="1.4.2 (f4327f4, 2025-05-13)"
   sodipodi:docname="fermentazione alcolica.svg"
   xmlns:inkscape="http://www.inkscape.org/namespaces/inkscape"
   xmlns:sodipodi="http://sodipodi.sourceforge.net/DTD/sodipodi-0.dtd"
   xmlns="http://www.w3.org/2000/svg"
   xmlns:svg="http://www.w3.org/2000/svg">
  <sodipodi:namedview
     id="namedview1"
     pagecolor="#ffffff"
     bordercolor="#000000"
     borderopacity="0.25"
     inkscape:showpageshadow="2"
     inkscape:pageopacity="0.0"
     inkscape:pagecheckerboard="0"
     inkscape:deskcolor="#d1d1d1"
     inkscape:document-units="px"
     inkscape:zoom="6.078125"
     inkscape:cx="-11.105398"
     inkscape:cy="32.411311"
     inkscape:window-width="1718"
     inkscape:window-height="1360"
     inkscape:window-x="1713"
     inkscape:window-y="0"
     inkscape:window-maximized="0"
     inkscape:current-layer="layer1" />
  <defs
     id="defs1" />
  <g
     inkscape:label="Livello 1"
     inkscape:groupmode="layer"
     id="layer1">
    <path
       d="m 7.2706398,0.66837149 c -0.572805,0.201793 -0.977138,0.63901101 -1.111915,1.21075801 -0.101084,0.504482 -0.404333,1.647976 -0.640194,2.589676 -0.269555,0.908069 -0.606499,2.522412 -0.808666,3.531377 -0.202166,1.008965 -0.606499,3.1277905 -0.909748,4.7085015 -0.741277,3.934963 -0.539111,8.71073 0.471721,10.728659 0.404333,0.840804 0.741277,1.681608 0.741277,1.849769 0.03369,0.437218 1.010832,1.580712 1.752109,2.051562 2.089053,1.311654 3.9759392,2.690573 3.9759392,2.892366 0,0.134528 0.84236,0.369954 1.853192,0.47085 1.010832,0.134529 1.954275,0.403586 2.089053,0.605379 0.168472,0.269057 0.202166,8.004454 0.101083,14.461829 0,0.16816 -1.617331,0.269057 -3.605301,0.235425 -5.4247982,-0.100897 -5.2226322,-0.100897 -5.0878542,0.773539 l 0.101083,0.739908 9.0974882,0.100896 c 9.535515,0.100897 10.613736,0.03363 10.613736,-0.773539 0,-0.807172 -0.673888,-0.941701 -4.75091,-0.874436 l -3.97594,0.06726 -0.101083,-7.16365 c -0.06739,-3.934963 0,-7.298179 0.134778,-7.46634 0.168472,-0.201793 1.044526,-0.538114 1.954275,-0.773539 0.943443,-0.235425 2.425997,-0.975333 3.268357,-1.614344 0.84236,-0.639011 1.651025,-1.177126 1.752109,-1.177126 0.23586,0 2.055358,1.647976 2.055358,1.849769 0,0.06726 -0.404333,0.504483 -0.909749,0.975333 -1.145609,1.042597 -1.212998,2.724205 -0.168472,3.598641 0.909749,0.739907 0.943443,1.412551 0.06739,2.01793 -0.673888,0.47085 -0.808666,1.042597 -0.741277,2.724205 0.06739,0.706275 0.404333,1.143493 1.415165,1.782504 1.549942,0.975333 2.459691,1.008965 3.874856,0.201793 0.876054,-0.504482 1.212998,-1.109861 1.718411,-2.95963 0.0674,-0.235425 0.53911,-0.437218 1.07822,-0.437218 1.44886,0 2.76294,-0.739908 2.96511,-1.681608 0.33694,-1.54708 0.43803,-1.681608 1.31408,-1.681608 1.34778,0 2.76294,-0.874436 3.13358,-2.01793 0.30325,-0.840804 0.53911,-1.008965 1.41517,-1.008965 0.77497,0 1.41516,-0.336321 2.22383,-1.143493 1.44886,-1.446183 1.54994,-3.060527 0.30325,-4.237652 l -0.80867,-0.77354 0.64019,-0.840804 c 0.94345,-1.143493 0.80867,-2.387883 -0.30325,-3.73317 -0.77497,-0.9417 -1.21299,-1.177125 -2.25752,-1.210757 -1.51625,-0.03363 -2.83033,-0.77354 -2.83033,-1.54708 0,-0.840804 2.76294,-3.464112 4.04333,-3.834066 1.38147,-0.403586 1.65102,-1.177126 0.64019,-1.782504 -0.64019,-0.403586 -0.90975,-0.336322 -2.3923,0.571746 -0.90975,0.571747 -1.7858,1.042597 -1.92058,1.042597 -0.33695,0 -1.38147,1.849769 -1.38147,2.48878 0,1.311654 -2.79664,1.513447 -3.20097,0.201793 -0.13478,-0.369954 -0.6065,-0.9417 -1.04453,-1.24439 -0.70758,-0.437218 -1.04452,-0.47085 -2.156437,-0.134529 -0.741277,0.201793 -1.482554,0.706276 -1.68472,1.042597 -0.640194,1.210758 -0.909749,0.706276 -1.14561,-2.253354 C 27.925308,11.161601 27.318809,7.6974895 26.577532,5.1414445 26.40906,4.5696985 26.206894,3.6616295 26.072116,3.1235155 25.971033,2.5517685 25.499311,1.6773325 25.02759,1.1728505 l -0.84236,-0.90806901 -7.985573,0.03363 c -4.380272,0.03363 -8.3899062,0.201793 -8.9290162,0.369954 z M 23.511341,2.7199335 c 0.202166,0.235425 0.606499,1.479815 0.876054,2.724205 0.30325,1.278022 0.741277,2.623308 0.977138,3.026894 0.269555,0.369954 0.572804,1.311654 0.673888,2.0515615 0.134777,0.739908 0.303249,1.614344 0.404332,1.917033 0.168472,0.538115 -0.06739,0.605379 -1.617331,0.605379 -1.179304,0 -2.156441,-0.235425 -2.897718,-0.672643 -0.606499,-0.369954 -1.314082,-0.672643 -1.583637,-0.672643 -0.269555,0 -0.505416,-0.201793 -0.505416,-0.470851 0,-0.269057 -0.876054,-0.908068 -1.920581,-1.4461825 C 15.525768,8.6055615 12.425883,8.5046645 10.067275,9.4799975 7.6749728,10.45533 6.3608908,10.690755 6.1587248,10.186272 5.9902528,9.7490545 7.9108328,3.6616335 8.4836378,2.6863015 8.8879708,2.0809225 22.97223,2.1145545 23.511341,2.7199315 Z M 17.37896,11.901513 c 2.628163,1.71524 4.75091,2.556044 7.176907,2.791469 l 2.190136,0.201793 0.101083,1.614343 c 0.101083,1.54708 0.06739,1.614344 -1.044526,2.085194 -1.752109,0.739908 -2.156442,2.690573 -0.876055,4.304917 0.774972,1.008965 0.774972,1.042597 -1.617331,3.464112 -1.078221,1.076229 -1.987969,1.614344 -3.672689,2.118826 -2.796636,0.874437 -4.2118,0.874437 -7.075824,0 -2.055359,-0.605378 -2.5607752,-0.9417 -4.4139672,-2.925997 -1.179304,-1.210758 -2.291219,-2.757838 -2.52708,-3.430481 -0.572805,-1.547079 -0.572805,-8.508936 0,-9.181579 0.235861,-0.269058 1.179304,-0.571747 2.089053,-0.639012 0.909749,-0.100896 2.055358,-0.47085 2.5944692,-0.807171 2.122747,-1.446183 4.481355,-1.311655 7.075824,0.403586 z m 15.533121,5.246617 c 0.64019,0.639011 0.50541,2.219722 -0.26956,2.623308 -0.74127,0.403586 -1.51625,0.100896 -2.527078,-0.874436 -0.505416,-0.504483 -0.471722,-0.605379 0.202166,-1.345287 0.808662,-0.874436 1.954272,-1.042597 2.594472,-0.403585 z m 4.71721,2.017929 c 0.90975,0.908068 0.0674,3.295952 -1.1793,3.295952 -0.97714,0 -2.12275,-1.076229 -2.12275,-2.01793 0,-1.345286 2.32492,-2.253355 3.30205,-1.278022 z m -8.423597,1.412551 c 0.336944,1.71524 -0.909749,2.95963 -2.22383,2.253355 -1.314082,-0.706276 -1.280387,-2.892366 0.06739,-3.396849 0.84236,-0.336321 1.987969,0.30269 2.15644,1.143494 z m 12.803877,0.9417 c 0.5728,0.571747 0.50541,1.614344 -0.16848,2.354252 -0.67388,0.739907 -1.24669,0.773539 -1.92058,0.06726 -1.07822,-1.042597 -0.47172,-2.825102 0.97714,-2.825102 0.40433,0 0.87605,0.168161 1.11192,0.403586 z m -8.69316,0.605379 c 0.84236,0.840804 0.84236,1.378919 -0.0337,2.48878 -0.80867,1.008965 -1.213,1.076229 -2.05536,0.302689 -0.74128,-0.672643 -0.774974,-2.051561 -0.0337,-2.858733 0.70759,-0.77354 1.28039,-0.77354 2.12275,0.06726 z m 4.51505,1.984298 c 0.90975,1.008964 0.6065,2.791469 -0.53911,3.195055 -1.85319,0.639011 -3.06619,-1.71524 -1.61733,-3.161423 0.84236,-0.840804 1.41516,-0.840804 2.15644,-0.03363 z m -8.895322,1.547079 c 0.673888,0.706275 0.741277,0.9417 0.404333,1.647976 -0.202167,0.47085 -0.673888,1.008965 -1.078221,1.210758 -0.572805,0.302689 -0.808666,0.235425 -1.516248,-0.470851 -1.010832,-1.008964 -1.044526,-1.210757 -0.134778,-2.354251 0.876055,-1.076229 1.314082,-1.109861 2.324914,-0.03363 z m 13.410372,0.908068 c 0.23586,0.235425 0.40433,0.706276 0.40433,1.109862 0,0.403586 -0.16847,0.874436 -0.40433,1.109861 -0.23586,0.235425 -0.70758,0.403586 -1.11192,0.403586 -0.40433,0 -0.87605,-0.168161 -1.11191,-0.403586 -0.23586,-0.235425 -0.40433,-0.706275 -0.40433,-1.109861 0,-0.403586 0.16847,-0.874437 0.40433,-1.109862 0.23586,-0.235425 0.70758,-0.403586 1.11191,-0.403586 0.40434,0 0.87606,0.168161 1.11192,0.403586 z m -8.76054,1.008965 c 0.94344,0.941701 -0.0337,3.632273 -1.34778,3.632273 -1.280388,0 -2.190137,-2.65694 -1.212999,-3.632273 0.505419,-0.504482 2.055359,-0.504482 2.560779,0 z m 4.44766,2.253355 c 0.64019,1.210758 0.40433,2.354251 -0.53911,2.791469 -1.58364,0.739908 -2.76295,-1.008965 -1.8195,-2.757837 0.47172,-0.874436 1.88688,-0.874436 2.35861,-0.03363 z m -8.62577,2.118826 c 0.269555,0.739907 0.202166,1.076229 -0.30325,1.614344 -0.741277,0.807171 -1.415165,0.840804 -2.257525,0.100896 -1.280387,-1.143493 -0.505416,-2.892366 1.246693,-2.724205 0.741277,0.06726 1.078221,0.336322 1.314082,1.008965 z m 3.84116,1.143493 c 0.47172,0.336322 0.74128,0.874437 0.74128,1.479815 0,0.874437 -0.97714,2.01793 -1.75211,2.01793 -0.53911,0 -1.617332,-1.345286 -1.617332,-2.01793 0,-0.672643 1.078222,-2.017929 1.617332,-2.017929 0.13478,0 0.6065,0.235425 1.01083,0.538114 z m -4.245493,3.73317 c 0.741277,0.672643 0.774971,1.210758 0.06739,2.286987 -0.741277,1.143493 -1.68472,1.076229 -2.324914,-0.201793 -0.505416,-0.9417 -0.505416,-1.109861 0,-1.849769 0.606499,-0.9417 1.38147,-1.042597 2.257524,-0.235425 z"
       id="path1"
       style="fill:#000000;stroke:none;stroke-width:0.0336633" />
  </g>
</svg>
