<?xml version="1.0" encoding="UTF-8" standalone="no"?>
<!-- Created with Inkscape (http://www.inkscape.org/) -->

<svg
   width="48"
   height="48"
   viewBox="0 0 48 48"
   version="1.1"
   id="svg1"
   inkscape:version="1.4.2 (f4327f4, 2025-05-13)"
   sodipodi:docname="imbottigliamento.svg"
   xmlns:inkscape="http://www.inkscape.org/namespaces/inkscape"
   xmlns:sodipodi="http://sodipodi.sourceforge.net/DTD/sodipodi-0.dtd"
   xmlns="http://www.w3.org/2000/svg"
   xmlns:svg="http://www.w3.org/2000/svg">
  <sodipodi:namedview
     id="namedview1"
     pagecolor="#ffffff"
     bordercolor="#000000"
     borderopacity="0.25"
     inkscape:showpageshadow="2"
     inkscape:pageopacity="0.0"
     inkscape:pagecheckerboard="0"
     inkscape:deskcolor="#d1d1d1"
     inkscape:document-units="px"
     inkscape:zoom="6.078125"
     inkscape:cx="-11.105398"
     inkscape:cy="32.411311"
     inkscape:window-width="1718"
     inkscape:window-height="1360"
     inkscape:window-x="1713"
     inkscape:window-y="0"
     inkscape:window-maximized="0"
     inkscape:current-layer="layer1" />
  <defs
     id="defs1" />
  <g
     inkscape:label="Livello 1"
     inkscape:groupmode="layer"
     id="layer1">
    <path
       d="m 12.027667,3.706275 c -1.954275,0.975333 -2.2575248,1.446183 -2.2912188,3.699538 0,1.71524 0.101083,2.051562 1.0108318,2.925998 1.448859,1.378918 2.257525,1.748872 4.009634,1.748872 1.482553,0 1.549942,0.03363 1.549942,0.975333 0,3.598641 3.200968,5.381145 5.424798,3.026894 0.539111,-0.571746 1.010832,-1.311654 1.044527,-1.614343 0.03369,-0.30269 0.06739,-0.77354 0.134777,-1.042597 0.0337,-0.269058 0.06739,-0.706276 0.101084,-0.941701 0.03369,-0.336321 0.707582,-0.403586 2.76294,-0.336321 l 2.729247,0.100896 v 12.443899 c -0.03369,6.827329 -0.03369,12.645692 -0.03369,12.847485 -0.03369,0.30269 -0.673888,0.437218 -2.055358,0.437218 h -2.021664 v -6.221949 -6.188318 l -1.078221,-1.24439 c -0.876054,-0.975332 -1.111915,-1.647975 -1.347776,-3.363216 -0.134777,-1.210757 -0.336944,-2.320619 -0.438027,-2.488779 -0.235861,-0.369954 -2.83033,-0.470851 -3.67269,-0.134529 -0.404332,0.168161 -0.53911,0.706275 -0.53911,2.18609 0,1.681608 -0.134778,2.118826 -1.010832,3.094159 -1.617331,1.849769 -1.752109,2.589676 -1.617331,8.643465 l 0.101083,5.549307 -5.1215488,0.16816 c -5.020465,0.168161 -5.155243,0.201793 -6.031297,1.07623 -0.707583,0.706275 -0.943444,1.311654 -1.044527,2.690572 -0.134777,1.580712 -0.03369,1.950666 0.909749,3.228688 0.606499,0.773539 1.4151651,1.479815 1.7858031,1.580711 0.404333,0.100897 6.9747407,0.134529 14.6233697,0.100897 l 13.848398,-0.100897 0.909749,-0.840804 c 0.505416,-0.47085 1.212998,-1.412551 1.549942,-2.085194 0.6065,-1.177125 0.640194,-2.18609 0.640194,-16.412494 V 12.080683 h 2.156442 c 1.92058,0 2.257524,0.100897 3.234662,1.008965 1.314082,1.210758 2.291219,1.278022 3.504218,0.168161 0.673888,-0.639011 0.876054,-1.109861 0.876054,-2.286987 0,-2.825102 -2.796635,-3.968595 -4.683522,-1.883401 -0.876054,0.9417 -1.07822,1.008965 -2.931412,0.908068 L 37.028917,9.894593 36.826751,8.347513 C 36.456112,5.825101 35.647447,4.479815 34.030115,3.672643 32.682339,3.033632 31.974757,3 23.012047,3 14.015642,3 13.375448,3.03363 12.027672,3.706275 Z m 21.193778,1.614344 c 0.943443,0.336322 2.055358,2.589676 1.886886,3.766802 -0.06739,0.672643 -0.336944,0.840804 -1.38147,0.908068 -2.223831,0.201793 -1.954275,2.085194 0.303249,2.085194 h 1.14561 v 14.865415 c 0,11.233141 -0.101083,15.10084 -0.438027,15.739851 -0.235861,0.47085 -0.943443,1.109861 -1.583637,1.412551 -1.044526,0.538114 -2.425997,0.571746 -14.421203,0.504482 L 5.4572593,44.535722 4.7833713,43.694918 c -0.7749711,-0.941701 -0.6064991,-2.48878 0.336944,-3.464113 0.539111,-0.538114 1.6173309,-0.571747 12.8038717,-0.605379 10.95068,-0.03363 12.231067,-0.100896 12.466928,-0.605379 0.134778,-0.302689 0.202167,-6.928225 0.134778,-14.764518 L 30.42481,10.062758 h -8.154045 c -4.481355,0 -8.490989,-0.100897 -8.929016,-0.201793 C 12.937416,9.726436 12.330917,9.188321 12.061362,8.650207 11.623334,7.809403 11.58964,7.473081 11.960278,6.565013 12.196139,5.993266 12.566778,5.42152 12.73525,5.286991 13.27436,4.917037 32.278002,4.950669 33.221445,5.320621 Z m 11.658262,5.616571 c 0.06739,0.739907 -0.06739,1.109861 -0.471721,1.278022 -0.741277,0.269057 -1.482554,-0.369954 -1.482554,-1.311654 0,-0.941701 0.30325,-1.24439 1.179304,-1.109862 0.471722,0.06726 0.707582,0.403586 0.774971,1.143494 z m -23.754552,1.109861 c 0.404333,0.06726 0.269555,2.219723 -0.168472,2.656941 -0.53911,0.538114 -2.122747,0.504482 -2.560774,-0.03363 -0.572805,-0.739908 -0.808666,-1.950666 -0.438027,-2.387884 0.303249,-0.369954 1.886886,-0.47085 3.167273,-0.235425 z m -1.179304,8.979787 c 0.134778,1.311654 1.179304,3.531377 2.055359,4.304916 0.404332,0.369954 0.707582,1.042597 0.707582,1.614344 v 0.9417 h -3.200968 c -1.752109,0 -3.200968,-0.134528 -3.200968,-0.302689 0,-0.706275 0.741277,-2.18609 1.516248,-3.127791 0.640194,-0.739907 0.84236,-1.378918 0.84236,-2.589676 0,-0.874436 0.101083,-1.71524 0.235861,-1.849769 0.438027,-0.437218 0.943443,0.03363 1.044526,1.008965 z m 2.762941,11.06498 v 2.522412 h -3.200968 -3.200968 v -2.522412 -2.522412 h 3.200968 3.200968 z m 0.101083,4.775767 c 0.134778,0.100897 0.06739,0.403586 -0.134777,0.672643 -0.269556,0.30269 -1.212999,0.437218 -2.83033,0.437218 -2.762941,0 -3.537912,-0.201793 -3.537912,-0.874436 0,-0.369954 0.673888,-0.47085 3.133579,-0.47085 1.752109,0 3.268357,0.100896 3.36944,0.235425 z"
       id="path11-9"
       style="fill:#000000;stroke:none;stroke-width:0.0336633" />
  </g>
</svg>
