<?xml version="1.0" encoding="UTF-8" standalone="no"?>
<!-- Created with Inkscape (http://www.inkscape.org/) -->

<svg
   width="48"
   height="48"
   viewBox="0 0 48 48"
   version="1.1"
   id="svg1"
   inkscape:version="1.4.2 (f4327f4, 2025-05-13)"
   sodipodi:docname="macerazione.svg"
   xmlns:inkscape="http://www.inkscape.org/namespaces/inkscape"
   xmlns:sodipodi="http://sodipodi.sourceforge.net/DTD/sodipodi-0.dtd"
   xmlns="http://www.w3.org/2000/svg"
   xmlns:svg="http://www.w3.org/2000/svg">
  <sodipodi:namedview
     id="namedview1"
     pagecolor="#ffffff"
     bordercolor="#000000"
     borderopacity="0.25"
     inkscape:showpageshadow="2"
     inkscape:pageopacity="0.0"
     inkscape:pagecheckerboard="0"
     inkscape:deskcolor="#d1d1d1"
     inkscape:document-units="px"
     inkscape:zoom="6.078125"
     inkscape:cx="2.0565553"
     inkscape:cy="32.411311"
     inkscape:window-width="1718"
     inkscape:window-height="1360"
     inkscape:window-x="1713"
     inkscape:window-y="0"
     inkscape:window-maximized="0"
     inkscape:current-layer="layer1" />
  <defs
     id="defs1" />
  <g
     inkscape:label="Livello 1"
     inkscape:groupmode="layer"
     id="layer1">
    <path
       d="m 21.438503,0.93609466 c -1.75211,0.84080004 -1.98797,1.95067004 -2.02166,9.14795034 l -0.0337,6.22195 -2.02166,1.17712 c -1.14561,0.63901 -2.19014,1.51345 -2.35861,1.91704 -0.13478,0.40358 -0.6065,0.9417 -0.97714,1.17712 -2.52708,1.54708 -3.80746,7.02912 -3.06619,13.04928 0.57281,4.50671 2.15644,10.35871 2.93142,10.6614 0.26955,0.10089 0.47172,0.43721 0.47172,0.7399 0,0.63901 1.41516,2.0852 2.59447,2.69058 0.94344,0.47085 13.17451,0.50448 14.48859,0 1.213,-0.43722 2.79663,-1.95067 2.79663,-2.65695 0,-0.30268 0.13478,-0.67264 0.26956,-0.8408 1.01083,-1.24439 3.09988,-11.13224 3.09988,-14.69725 0,-2.62331 -1.44886,-6.72644 -3.03249,-8.74436 -0.57281,-0.67265 -1.01083,-1.37892 -1.01083,-1.54708 0,-0.43722 -3.13358,-2.42152 -3.80747,-2.42152 -0.30325,0 -0.6065,-0.13453 -0.70758,-0.26906 -0.0674,-0.13453 -0.16848,-2.89236 -0.23587,-6.12105 -0.0674,-6.6255403 -0.33694,-8.1053503 -1.7521,-9.2824803 -1.17931,-1.00896004 -3.84117,-1.10986004 -5.62697,-0.20179004 z m 4.61613,1.64798004 c 0.87606,1.10986 1.17931,2.21972 0.70759,2.52241 -0.50542,0.30269 -4.34658,0.36995 -5.12155,0.0673 -0.84236,-0.33632 -0.6402,-1.07623 0.53911,-2.18609 1.28038,-1.14349 3.09988,-1.34528 3.87485,-0.40358 z m 0.50542,4.64123 c 0.33694,0.13453 0.40433,1.1435 0.30325,4.5403503 -0.0337,2.42151 0,4.74213 0.10108,5.17935 0.13478,0.53811 0.67389,0.9417 1.78581,1.37892 0.90974,0.33632 2.05535,1.00896 2.56077,1.47981 1.54994,1.44619 3.26836,3.80044 3.26836,4.43945 0,0.60538 -0.50542,0.63901 -10.61374,0.63901 -7.44646,0 -10.61374,-0.1009 -10.61374,-0.36995 0,-0.2018 0.40434,-0.84081 0.94345,-1.37892 3.03249,-3.39685 4.04333,-4.33855 5.12155,-4.77577 2.08905,-0.8408 2.15644,-1.0426 1.88688,-6.08742 -0.13477,-2.4887803 -0.13477,-4.7085003 -0.0337,-4.8766603 0.20217,-0.33633 4.48135,-0.47085 5.29002,-0.16817 z m 8.89532,19.7084503 c 0.64019,1.0426 -0.23586,9.82059 -1.24669,12.343 -0.16847,0.43722 -0.30325,1.07623 -0.30325,1.41255 0,0.63902 -0.30325,0.67265 -9.6029,0.67265 h -9.60291 v -0.77354 c 0,-0.40359 -0.26955,-1.1435 -0.5728,-1.58071 -0.90975,-1.27803 -1.88689,-8.30715 -1.54995,-11.03135 l 0.20217,-1.41255 h 11.22024 c 7.68232,0 11.28762,0.10089 11.45609,0.36995 z m -2.56077,16.44613 c 0,0.87443 -1.11192,2.42151 -1.95428,2.7242 -1.04452,0.40359 -11.15284,0.53812 -12.77018,0.16816 -0.70758,-0.16816 -1.34777,-0.67264 -1.92058,-1.54708 -0.47172,-0.7399 -0.87605,-1.41255 -0.87605,-1.51344 0,-0.1009 3.94224,-0.16816 8.76054,-0.16816 5.89652,0 8.76055,0.10089 8.76055,0.33632 z"
       id="path6-20"
       style="fill:#000000;stroke:none;stroke-width:0.0336633" />
    <path
       d="m 22.483033,30.868715 c -1.61733,0.87444 -2.29122,2.79147 -1.58364,4.33855 0.30325,0.60538 0.70758,1.10986 0.94344,1.10986 0.23586,0 0.6402,0.30269 0.87606,0.67265 0.50541,0.8408 2.45969,0.90806 3.26835,0.13453 1.78581,-1.78251 1.95428,-4.70851 0.33695,-6.08743 -1.07822,-0.9417 -2.32491,-0.97533 -3.84116,-0.16816 z m 2.79663,1.81614 c 0.70758,1.00896 0.67389,1.71524 -0.10108,2.42152 -1.44886,1.31165 -3.0325,-0.60538 -1.92058,-2.32062 0.67389,-1.0426 1.34777,-1.07623 2.02166,-0.1009 z"
       id="path7-97"
       style="fill:#000000;stroke:none;stroke-width:0.0336633" />
  </g>
</svg>
