<?xml version="1.0" encoding="UTF-8" standalone="no"?>
<!-- Created with Inkscape (http://www.inkscape.org/) -->

<svg
   width="48"
   height="48"
   viewBox="0 0 48 48"
   version="1.1"
   id="svg1"
   inkscape:version="1.4.2 (f4327f4, 2025-05-13)"
   sodipodi:docname="malolattica.svg"
   xmlns:inkscape="http://www.inkscape.org/namespaces/inkscape"
   xmlns:sodipodi="http://sodipodi.sourceforge.net/DTD/sodipodi-0.dtd"
   xmlns="http://www.w3.org/2000/svg"
   xmlns:svg="http://www.w3.org/2000/svg">
  <sodipodi:namedview
     id="namedview1"
     pagecolor="#ffffff"
     bordercolor="#000000"
     borderopacity="0.25"
     inkscape:showpageshadow="2"
     inkscape:pageopacity="0.0"
     inkscape:pagecheckerboard="0"
     inkscape:deskcolor="#d1d1d1"
     inkscape:document-units="px"
     inkscape:zoom="6.078125"
     inkscape:cx="2.0565553"
     inkscape:cy="32.411311"
     inkscape:window-width="1718"
     inkscape:window-height="1360"
     inkscape:window-x="1713"
     inkscape:window-y="0"
     inkscape:window-maximized="0"
     inkscape:current-layer="layer1" />
  <defs
     id="defs1" />
  <g
     inkscape:label="Livello 1"
     inkscape:groupmode="layer"
     id="layer1">
    <path
       d="M 10.236453,2.8821533 C 8.2791455,3.7206981 7.5405506,4.7688869 5.8786903,8.9616208 3.5520858,14.866382 2.9242779,18.779609 3.1827883,26.151826 c 0.1846488,5.974646 0.8493929,9.25895 2.8436253,13.975784 0.1477124,0.38433 0.5170208,1.222875 0.7755312,1.886724 0.2585104,0.628911 0.8863182,1.642152 1.3664137,2.201189 1.8465085,2.06143 1.8834455,2.06143 15.5476035,2.026482 13.405659,0 13.701106,-0.03491 15.473753,-1.851786 1.440275,-1.432519 3.914592,-8.10595 4.874783,-13.067355 0.480096,-2.725278 0.517021,-12.263747 0,-13.52157 -0.184649,-0.524089 -0.369308,-1.397571 -0.369308,-1.956608 0,-1.153 -2.732828,-9.1541283 -3.619157,-10.5866471 C 39.743661,4.7339497 38.820407,3.8604573 38.00795,3.3363681 L 36.567664,2.3930013 24.159132,2.3230854 C 12.673844,2.2182634 11.639791,2.2531694 10.236453,2.8821118 Z m 4.431623,1.3975816 c 0.110787,0.1397592 -0.07387,1.1530004 -0.44317,2.1662416 l -0.627808,1.8867333 -2.363529,0.104822 C 9.9410059,8.5074478 8.7223156,8.4026258 8.5376669,8.2278878 7.8729227,7.5989769 10.014867,4.7339497 11.56594,4.2098501 c 0.886319,-0.3144452 2.880551,-0.279508 3.102136,0.069916 z m 8.161568,1.956608 v 2.0963669 l -3.434508,0.034906 c -1.883445,0 -3.545295,-0.1397592 -3.656093,-0.3144556 -0.25851,-0.4192669 0.664744,-3.4939381 1.14484,-3.8433413 0.221585,-0.1397488 1.66186,-0.2096336 3.175997,-0.1746964 l 2.769764,0.104822 z m 8.309291,-1.4325188 c 0.184648,0.489152 0.369297,1.467456 0.443159,2.2011892 l 0.110787,1.3276965 -2.954413,0.069916 c -4.210039,0.06992 -4.246964,0.03491 -4.246964,-2.1313042 0,-1.0132411 0.110787,-1.9566079 0.25851,-2.0614299 0.110787,-0.1397488 1.551063,-0.2445708 3.139061,-0.2445708 2.732839,0 2.917487,0.034906 3.24986,0.8385448 z m 6.167335,0.2445812 c 1.144839,1.0132412 2.068094,2.6553936 1.772647,3.1096081 -0.332372,0.5240894 -4.874783,0.4192674 -5.244081,-0.104822 -0.480095,-0.6638481 -1.181764,-3.5288857 -0.96019,-3.8782785 0.406233,-0.5590264 3.471444,0.034906 4.431624,0.8734924 z M 13.301652,10.673648 c -0.923255,3.668645 -1.144829,6.114405 -1.144829,13.556507 0,7.511987 0.184649,9.817987 1.144829,13.52157 0.184648,0.76867 0.110798,0.803607 -2.769764,0.803607 -1.7357107,0 -3.1021354,-0.174696 -3.2129224,-0.38434 C 6.8388702,37.437269 5.6571052,32.40599 5.2508715,29.296382 4.5861273,24.30004 5.2139352,17.067571 6.8019448,11.826659 7.0235189,11.057988 7.2820402,10.324255 7.3928273,10.149559 7.4667003,10.0098 8.870028,9.9049878 10.531888,9.9049878 c 2.880562,0 2.954412,0.03491 2.769764,0.7686602 z m 9.417194,13.556507 V 38.380636 H 18.878115 15.074299 L 14.778863,36.633662 C 14.224906,33.558991 14.040257,17.696483 14.520353,14.272419 15.185097,9.4507728 14.741927,9.8700398 18.988902,9.9748618 l 3.693018,0.1048222 z m 9.675715,-14.045659 c 0.553946,0.838555 1.403339,12.158936 1.21869,16.316723 -0.221574,4.646949 -0.886318,11.250506 -1.21869,11.774595 -0.110798,0.139759 -1.883445,0.279518 -3.951528,0.279518 h -3.76688 l 0.03694,-14.255292 c 0.03694,-7.826443 0.07387,-14.255293 0.110798,-14.3251782 0.110787,-0.209633 7.422962,-0.03491 7.570685,0.2096342 z m 7.755334,0.03491 c 0.997116,1.502393 2.400466,9.78304 2.400466,14.010711 0,4.332494 -1.366425,12.438444 -2.326604,13.9059 -0.184649,0.279519 -1.329489,0.419278 -3.249859,0.419278 h -2.954413 l 0.221585,-0.943367 c 0.664744,-2.865037 1.329489,-9.538469 1.329489,-13.381811 0,-3.773456 -0.553958,-9.25895 -1.329489,-13.207103 L 34.019485,9.9049458 h 2.954413 c 1.66186,0 3.06521,0.1397602 3.175997,0.3144562 z m -26.146563,31.02622 c 0.110787,0.559036 0.369297,1.432518 0.553946,1.991555 0.406234,1.257823 0.44317,1.153001 -0.184649,1.362634 -0.775531,0.279519 -3.619156,-0.419267 -4.3946868,-1.083126 -0.9232546,-0.803597 -1.8095837,-2.44576 -1.5510733,-2.865027 0.110798,-0.209644 1.3664136,-0.349393 2.7697631,-0.349393 2.511253,0 2.585115,0.03491 2.8067,0.943357 z m 8.826312,1.15301 v 1.921661 l -3.065211,0.104822 c -3.397571,0.104822 -3.360646,0.104822 -3.988454,-2.865038 l -0.221585,-1.292759 3.619157,0.104822 3.656093,0.104822 z m 8.863237,-1.6771 c 0.110798,0.244582 -0.03694,1.153001 -0.295436,2.026493 l -0.480096,1.572268 -3.212922,0.104822 -3.212923,0.104822 v -1.886734 c 0,-1.013241 0.110787,-1.991545 0.25851,-2.096367 0.44316,-0.454215 6.758218,-0.279518 6.942867,0.174696 z m 7.386036,-0.06992 c 0.295447,0.489152 -1.070967,2.585519 -2.141945,3.21443 -1.034041,0.663848 -3.249859,1.048178 -3.840741,0.698785 -0.406234,-0.244581 -0.221585,-1.607215 0.480095,-3.843341 0.147723,-0.524089 5.170219,-0.593964 5.502591,-0.06992 z"
       id="path1-2"
       style="fill:#000000;stroke:none;stroke-width:0.0359211" />
  </g>
</svg>
