<?xml version="1.0" encoding="UTF-8" standalone="no"?>
<!-- Created with Inkscape (http://www.inkscape.org/) -->

<svg
   width="48"
   height="48"
   viewBox="0 0 48 48"
   version="1.1"
   id="svg1"
   inkscape:version="1.4.2 (f4327f4, 2025-05-13)"
   sodipodi:docname="note.svg"
   xmlns:inkscape="http://www.inkscape.org/namespaces/inkscape"
   xmlns:sodipodi="http://sodipodi.sourceforge.net/DTD/sodipodi-0.dtd"
   xmlns="http://www.w3.org/2000/svg"
   xmlns:svg="http://www.w3.org/2000/svg">
  <sodipodi:namedview
     id="namedview1"
     pagecolor="#ffffff"
     bordercolor="#000000"
     borderopacity="0.25"
     inkscape:showpageshadow="2"
     inkscape:pageopacity="0.0"
     inkscape:pagecheckerboard="0"
     inkscape:deskcolor="#d1d1d1"
     inkscape:document-units="px"
     inkscape:zoom="6.078125"
     inkscape:cx="-11.105398"
     inkscape:cy="32.411311"
     inkscape:window-width="1718"
     inkscape:window-height="1360"
     inkscape:window-x="1713"
     inkscape:window-y="0"
     inkscape:window-maximized="0"
     inkscape:current-layer="layer1" />
  <defs
     id="defs1" />
  <g
     inkscape:label="Livello 1"
     inkscape:groupmode="layer"
     id="layer1">
    <path
       d="m 10.190954,2.2084602 c -1.65103,0.874436 -2.426,2.48878 -2.25753,4.708503 0.10109,1.681608 0.0674,1.782504 -0.74127,1.950665 -0.47172,0.100896 -1.14561,0.269057 -1.48256,0.369954 -0.6065,0.168161 -1.58363,1.7488718 -1.58363,2.5896758 0,0.874436 1.48255,2.253355 2.69555,2.522412 1.07822,0.201793 1.1793,0.336322 1.1793,1.378919 0,1.042597 -0.10108,1.177125 -1.1793,1.378918 -1.213,0.269057 -2.69555,1.647976 -2.69555,2.522412 0,0.269057 0.23586,0.941701 0.50541,1.479815 0.40434,0.77354 0.84236,1.042597 1.88689,1.210758 1.48255,0.235425 1.8195,0.706275 1.51625,1.917033 -0.13478,0.571747 -0.53911,0.874436 -1.41517,1.109861 -1.58363,0.369954 -2.66186,1.748873 -2.35861,2.95963 0.30325,1.210758 1.51625,2.219723 2.62817,2.219723 0.70758,0 0.97714,0.201793 1.14561,0.840804 0.30325,1.24439 -0.0337,1.748872 -1.34778,1.984297 -1.1793,0.235426 -2.56077,1.54708 -2.56077,2.455148 0,1.210758 1.04452,2.421516 2.3586,2.791469 1.34778,0.369954 1.34778,0.369954 1.34778,2.051566 0,2.11882 0.80867,3.90133 2.15644,4.7085 0.97714,0.60538 1.95428,0.63901 14.96032,0.63901 15.36464,0 15.29725,0 16.57764,-2.11883 0.64019,-1.04259 0.67389,-1.81613 0.67389,-20.011132 0,-20.6165138 0.0337,-20.1120308 -1.92058,-21.4573178 -0.87606,-0.605379 -1.8195,-0.639011 -14.92662,-0.739907 -13.10712,-0.06727 -14.05057,-0.03363 -15.16248,0.538114 z m 29.4489,2.186091 c 0.40434,0.605379 0.50542,3.699537 0.53911,18.9012738 0.0337,9.988751 0.0337,18.430428 0.0337,18.733108 -0.0337,0.33633 -0.33694,0.90807 -0.70758,1.27803 -0.6402,0.63901 -1.11192,0.67264 -14.4549,0.67264 -15.73529,0 -15.12879,0.1009 -15.43204,-2.79147 -0.20216,-1.816136 0.13478,-2.421515 1.58364,-2.724204 0.70758,-0.134529 1.1793,-0.504483 1.54994,-1.345287 0.53911,-1.076229 0.53911,-1.210757 -0.0674,-2.253354 -0.40433,-0.672644 -1.07822,-1.24439 -1.81949,-1.479815 -0.97714,-0.336322 -1.213,-0.571747 -1.28039,-1.446183 -0.10108,-1.109862 -0.0337,-1.177126 1.71841,-1.580712 1.31409,-0.269057 2.12275,-2.152458 1.51625,-3.43048 -0.47172,-0.941701 -0.87605,-1.24439 -2.3923,-1.782505 -0.80867,-0.302689 -0.94344,-0.504482 -0.84236,-1.41255 0.0674,-0.874436 0.26955,-1.143494 0.94344,-1.278022 1.28039,-0.269058 1.85319,-0.739908 2.32492,-1.917034 0.40433,-0.975332 0.37063,-1.177125 -0.30325,-2.085193 -0.40434,-0.571747 -1.17931,-1.143494 -1.78581,-1.311655 -0.94344,-0.235425 -1.07822,-0.437218 -1.1793,-1.513447 -0.10108,-1.109861 -0.0337,-1.24439 0.70758,-1.24439 1.07822,0 2.45969,-1.109861 2.72925,-2.18609 0.30325,-1.210758 -0.6065,-2.7914688 -1.75211,-3.0605268 -0.50542,-0.100896 -1.11192,-0.235425 -1.31408,-0.336321 -0.6402,-0.168161 -0.53911,-2.455148 0.16847,-3.834067 0.43803,-0.9417 0.80867,-1.210757 1.75211,-1.345286 0.64019,-0.100896 7.04213,-0.134529 14.21904,-0.06726 l 13.07342,0.06726 z m -28.8424,6.3564778 c 0.70758,0.706275 0.47172,1.614344 -0.50542,1.984297 -0.87605,0.336322 -3.16727,0.201793 -3.84116,-0.201793 -0.50542,-0.336321 -0.33694,-1.446182 0.30325,-1.816136 0.80867,-0.47085 3.53791,-0.47085 4.04333,0.03363 z m -0.47172,8.004454 c 1.92058,0.706275 0.64019,2.354251 -1.8532,2.354251 -1.38147,0 -2.32491,-0.571747 -2.32491,-1.378918 0,-1.109862 2.35861,-1.681608 4.17811,-0.975333 z m 0.23586,8.071718 c 0.33694,0.201793 0.64019,0.639011 0.64019,1.008965 0,0.840804 -0.97714,1.345287 -2.52708,1.345287 -0.67389,0 -1.51625,-0.168161 -1.88689,-0.336322 -0.80866,-0.437218 -0.84236,-1.547079 -0.0337,-1.984297 0.74128,-0.470851 2.96511,-0.470851 3.80747,-0.03363 z m 0.10108,8.273512 c 0.64019,0.235425 0.70758,1.177125 0.13478,1.748872 -0.50542,0.504482 -3.09989,0.538115 -4.00964,0.06726 -0.70758,-0.403586 -0.87605,-1.547079 -0.20216,-1.782504 0.6065,-0.269057 3.47052,-0.269057 4.07702,-0.03363 z"
       id="path10-0"
       style="fill:#000000;stroke:none;stroke-width:0.0336633" />
    <path
       d="m 20.737304,8.8676282 c -0.50542,0.235425 -1.2467,2.5560438 -1.95428,6.1210528 -0.50542,2.556044 -0.50542,2.892366 0,4.439445 0.64019,1.883401 2.66186,3.934963 4.2455,4.271285 1.21299,0.235425 1.38147,0.807171 1.24669,3.968594 l -0.10109,2.354252 h -2.19013 c -2.12275,0 -2.19014,0.03363 -2.19014,0.840804 v 0.840804 h 5.22263 c 4.8183,0 5.22264,-0.03363 5.32372,-0.639011 0.20217,-0.941701 -0.5728,-1.24439 -2.52708,-1.042597 -1.48255,0.16816 -1.75211,0.134528 -1.88689,-0.403586 -0.13477,-0.504483 -0.0674,-4.775767 0.0674,-5.515675 0,-0.134528 0.47172,-0.302689 1.01083,-0.403585 1.213,-0.269058 3.20097,-1.950666 3.90855,-3.329584 0.6402,-1.311655 0.6402,-3.834067 0.0337,-6.659168 -0.87606,-3.8676978 -1.1793,-4.6076058 -1.98797,-4.8430308 -0.87605,-0.235425 -7.64863,-0.235425 -8.22143,0 z m 7.85079,2.6569408 c 0.26956,0.639011 0.50542,1.513447 0.57281,1.917033 0.0674,0.739907 0,0.773539 -3.87486,0.807172 -2.19014,0 -4.11072,-0.06726 -4.27919,-0.201793 -0.37064,-0.201793 0.16847,-2.48878 0.74128,-3.295952 0.20216,-0.269057 1.31408,-0.403586 3.33574,-0.403586 h 2.99881 z m 0.74128,4.506709 c 0.5728,0.03363 0.50541,2.18609 -0.10109,3.363216 -0.90974,1.816137 -2.3923,2.724205 -4.38027,2.724205 -1.54994,0 -1.92058,-0.134529 -2.86402,-1.109861 -0.57281,-0.571747 -1.213,-1.412551 -1.38147,-1.849769 -0.40433,-1.008965 -0.40433,-2.522412 0,-2.95963 0.26955,-0.235425 5.4248,-0.336322 8.72685,-0.168161 z"
       id="path11-38"
       style="fill:#000000;stroke:none;stroke-width:0.0336633" />
  </g>
</svg>
