<?xml version="1.0" encoding="UTF-8" standalone="no"?>
<!-- Created with Inkscape (http://www.inkscape.org/) -->

<svg
   width="48"
   height="48"
   viewBox="0 0 48 48"
   version="1.1"
   id="svg1"
   inkscape:version="1.4.2 (f4327f4, 2025-05-13)"
   sodipodi:docname="orange.svg"
   xmlns:inkscape="http://www.inkscape.org/namespaces/inkscape"
   xmlns:sodipodi="http://sodipodi.sourceforge.net/DTD/sodipodi-0.dtd"
   xmlns="http://www.w3.org/2000/svg"
   xmlns:svg="http://www.w3.org/2000/svg">
  <sodipodi:namedview
     id="namedview1"
     pagecolor="#ffffff"
     bordercolor="#000000"
     borderopacity="0.25"
     inkscape:showpageshadow="2"
     inkscape:pageopacity="0.0"
     inkscape:pagecheckerboard="0"
     inkscape:deskcolor="#d1d1d1"
     inkscape:document-units="px"
     inkscape:zoom="6.078125"
     inkscape:cx="2.0565553"
     inkscape:cy="32.411311"
     inkscape:window-width="1718"
     inkscape:window-height="1360"
     inkscape:window-x="1713"
     inkscape:window-y="0"
     inkscape:window-maximized="0"
     inkscape:current-layer="layer1" />
  <defs
     id="defs1" />
  <g
     inkscape:label="Livello 1"
     inkscape:groupmode="layer"
     id="layer1">
    <path
       d="M 22.030092,0.92569808 C 20.1769,1.8337671 20.008428,2.4727781 20.008428,9.4682681 v 6.3228459 l -0.909749,0.201793 c -2.52708,0.538114 -4.009634,1.71524 -5.930215,4.67487 l -1.07822,1.681608 -0.101084,10.257809 c -0.134777,12.78022 -0.134777,12.847485 1.752109,13.957346 l 1.448859,0.840804 h 9.670293 c 7.985573,0 9.838765,-0.100896 10.647431,-0.504482 1.954275,-1.008965 2.021664,-1.446183 2.021664,-13.116543 V 23.156557 l -1.14561,-2.455148 C 35.103519,17.90994 34.19377,17.1364 31.36344,16.295596 L 29.44286,15.757482 V 9.5019001 c 0,-5.246617 -0.101084,-6.356479 -0.572805,-7.197283 -1.14561,-1.91703302 -4.447661,-2.58967602 -6.839963,-1.37891902 z m 4.986771,1.84976902 c 0.202166,0.235425 0.404333,1.278023 0.471721,2.286988 l 0.101084,1.816136 H 24.725644 21.86162 l -0.101084,-1.580711 c -0.134777,-2.219723 0.640194,-2.959631 3.099885,-2.959631 1.078221,0 1.954275,0.168161 2.156442,0.437218 z m 0.438027,9.9887519 c -0.134778,4.338549 -0.06739,4.473078 2.122747,4.843031 0.707583,0.134529 1.617331,0.403586 2.021664,0.605379 0.370639,0.201793 0.943443,0.47085 1.212999,0.605379 0.741276,0.336322 2.695552,3.699538 2.695552,4.607606 v 0.77354 H 24.691949 13.876047 l 0.202166,-0.941701 c 0.134778,-0.504482 0.774971,-1.71524 1.415165,-2.690573 1.246693,-1.883401 3.133579,-3.060526 4.885688,-3.094158 1.549942,0 1.752109,-0.639011 1.482554,-4.50671 -0.134778,-1.950665 -0.134778,-3.6995369 0,-3.9013299 0.134777,-0.235425 1.246692,-0.336322 2.965107,-0.269058 l 2.762941,0.100897 z m 8.154045,13.419232 c 0.134777,0.03363 0.202166,3.026895 0.168472,6.659168 l -0.101083,6.659167 -10.849597,0.06726 -10.883291,0.06726 v -6.659168 c 0,-3.665905 0.06739,-6.726432 0.134777,-6.793696 0.101083,-0.100896 20.115557,-0.100896 21.530722,0 z m -9.232266,15.504426 h 9.56921 l -0.202167,1.378918 c -0.370638,2.724205 -0.101083,2.656941 -10.849596,2.656941 -10.546348,0 -10.344181,0.03363 -10.815903,-2.286987 -0.336944,-1.71524 0,-2.219722 1.482554,-1.950665 0.673888,0.100896 5.559576,0.201793 10.815902,0.201793 z"
       id="path5-8"
       style="stroke-width:0.0336633" />
    <path
       d="m 18.155236,30.152046 c -0.336944,0.235425 -0.505416,0.639011 -0.404333,0.9417 0.303249,0.739908 13.545149,0.77354 13.814704,0.03363 0.438027,-1.143494 -0.707583,-1.378919 -6.839963,-1.378919 -4.312884,-0.03363 -6.166076,0.100897 -6.570408,0.403586 z"
       id="path6-2"
       style="stroke-width:0.0336633" />
    <path
       d="m 21.592064,34.154273 c -0.134777,0.134529 -0.23586,0.605379 -0.23586,1.042597 0,0.807172 0.03369,0.807172 3.302051,0.706275 3.234662,-0.100896 3.268357,-0.100896 3.268357,-0.9417 0,-0.840804 -0.0337,-0.840804 -3.032496,-0.941701 -1.68472,-0.03363 -3.167274,0 -3.302052,0.134529 z"
       id="path7-9"
       style="stroke-width:0.0336633" />
  </g>
</svg>
