<?xml version="1.0" encoding="UTF-8" standalone="no"?>
<!-- Created with Inkscape (http://www.inkscape.org/) -->

<svg
   width="48"
   height="48"
   viewBox="0 0 48 48"
   version="1.1"
   id="svg1"
   inkscape:version="1.4.2 (f4327f4, 2025-05-13)"
   sodipodi:docname="rose.svg"
   xmlns:inkscape="http://www.inkscape.org/namespaces/inkscape"
   xmlns:sodipodi="http://sodipodi.sourceforge.net/DTD/sodipodi-0.dtd"
   xmlns="http://www.w3.org/2000/svg"
   xmlns:svg="http://www.w3.org/2000/svg">
  <sodipodi:namedview
     id="namedview1"
     pagecolor="#ffffff"
     bordercolor="#000000"
     borderopacity="0.25"
     inkscape:showpageshadow="2"
     inkscape:pageopacity="0.0"
     inkscape:pagecheckerboard="0"
     inkscape:deskcolor="#d1d1d1"
     inkscape:document-units="px"
     inkscape:zoom="6.078125"
     inkscape:cx="2.0565553"
     inkscape:cy="32.411311"
     inkscape:window-width="1718"
     inkscape:window-height="1360"
     inkscape:window-x="1713"
     inkscape:window-y="0"
     inkscape:window-maximized="0"
     inkscape:current-layer="layer1" />
  <defs
     id="defs1" />
  <g
     inkscape:label="Livello 1"
     inkscape:groupmode="layer"
     id="layer1">
    <path
       d="m 15.23732,0.7056919 c -1.280388,0.6053789 -1.482554,1.681608 -1.482554,8.2062463 0,7.0291218 -0.202166,7.9371898 -2.22383,9.2824768 -0.673888,0.437218 -1.5836373,1.513447 -2.0890533,2.455147 l -0.909749,1.681608 v 11.300406 c 0,10.863188 0.03369,11.36767 0.673888,12.073945 1.2803873,1.446183 2.4933863,1.681608 8.3899063,1.681608 5.458492,0 5.559576,0 6.570408,-0.874436 0.572804,-0.47085 1.179304,-1.41255 1.347776,-2.085194 0.202166,-0.672643 0.336944,-5.885628 0.370638,-11.569463 V 22.499331 l -0.909749,-1.748872 c -0.471721,-0.975333 -1.314081,-2.152458 -1.853192,-2.556044 -1.886886,-1.54708 -2.055358,-2.286987 -2.021664,-9.1143158 0,-3.464112 -0.06739,-6.5246385 -0.168472,-6.8609601 C 20.561035,0.8402206 16.955734,-0.1351121 15.23732,0.7056919 Z m 3.6053,2.522412 c 0,0.5381146 0.06739,1.4461826 0.168472,2.0851936 0.168472,1.3789187 -0.336944,2.0515617 -1.549942,2.0515617 -1.785803,0 -2.021664,-0.269057 -2.021664,-2.1860903 0,-2.6233082 0.168472,-2.8587333 1.886886,-2.8587333 1.381471,0 1.482554,0.067264 1.516248,0.9080683 z m -0.03369,8.2398791 c 0,3.363216 0.404333,4.910295 1.549942,6.154685 0.471722,0.504482 0.741277,1.042597 0.572805,1.177125 -0.134777,0.134529 -1.010832,0.807172 -1.886886,1.479816 l -1.617331,1.210757 -1.246693,-0.672643 c -0.673888,-0.336322 -1.516248,-1.042597 -1.853192,-1.513447 -0.606499,-0.807172 -0.606499,-0.874436 0.03369,-1.782505 0.909749,-1.278022 1.14561,-2.522412 1.111915,-5.582938 0,-1.446183 0.06739,-2.7578368 0.168472,-2.9259978 0.101084,-0.168161 0.84236,-0.30269 1.68472,-0.30269 h 1.482554 z m -4.043328,10.358705 c 2.257525,1.513447 2.628163,1.580711 3.740078,0.739907 1.347776,-1.008964 3.740079,-2.118826 4.2118,-1.950665 0.84236,0.336322 1.516248,2.186091 1.415165,4.002227 l -0.101083,1.748872 h -6.907356 -6.907352 l 0.03369,-1.917033 c 0.0337,-1.446183 0.235861,-2.118826 0.84236,-2.925998 0.438028,-0.538114 1.010832,-1.008964 1.246693,-1.008964 0.235861,-0.03363 1.347776,0.571746 2.425997,1.311654 z m 9.434432,11.771256 v 5.717467 l -6.974741,-0.06726 -7.008435,-0.100897 -0.06739,-4.876663 c -0.03369,-2.690573 0,-5.212985 0.101083,-5.650203 0.134778,-0.739907 0.168472,-0.739907 7.04213,-0.739907 h 6.907352 z m 0,9.047051 c 0,0.807172 -0.269555,1.614344 -0.707582,2.18609 l -0.673888,0.874436 h -5.32372 c -5.323715,0 -5.323715,0 -6.233464,-0.908068 -0.943443,-0.9417 -1.4151643,-2.152458 -1.07822,-2.95963 0.134777,-0.437218 1.246692,-0.504482 7.109518,-0.504482 h 6.907352 z"
       id="path9-3"
       style="stroke-width:0.0336633" />
    <path
       d="m 15.574264,30.604682 c -1.010832,0.504482 -1.819498,2.085194 -1.819498,3.565009 0,2.455147 2.796635,4.136755 5.020466,2.95963 1.752108,-0.874436 2.392302,-1.71524 2.392302,-3.127791 0,-1.479815 -0.134778,-1.681608 -1.718414,-2.858734 -1.246693,-0.9417 -2.628164,-1.109861 -3.874856,-0.538114 z m 2.965107,1.883401 c 0.876054,0.773539 0.774971,2.18609 -0.269555,3.161423 -0.774972,0.739907 -0.909749,0.739907 -1.752109,0.302689 -1.111915,-0.639011 -1.549943,-2.354251 -0.84236,-3.363216 0.572805,-0.807172 2.021664,-0.874436 2.864024,-0.100896 z"
       id="path10-5"
       style="stroke-width:0.0336633" />
    <path
       d="m 34.173572,31.445486 c -2.796635,1.008964 -5.59327,3.766802 -6.637796,6.524639 -0.471722,1.210757 -0.640194,2.556044 -0.640194,4.809399 0,2.858733 0.06739,3.228687 0.774971,3.867698 0.673888,0.639011 1.179304,0.739907 3.537912,0.739907 2.291219,0 3.032496,-0.134528 4.649827,-0.908068 2.931413,-1.446183 3.032496,-1.513447 3.537912,-2.320619 0.269556,-0.403586 0.977138,-1.446183 1.617332,-2.320619 1.111915,-1.547079 1.145609,-1.748872 1.314081,-5.381146 0.168472,-3.733169 0.134778,-3.834066 -0.707582,-4.67487 -0.808666,-0.807172 -1.111915,-0.874436 -3.504218,-0.840804 -1.448859,0.03363 -3.234662,0.269058 -3.942245,0.504483 z m 6.166076,1.614343 c 0.269555,0.30269 0.370638,1.412551 0.269555,3.127791 -0.134778,2.892366 -1.14561,5.650203 -2.190136,5.952893 -0.30325,0.100896 -1.179304,0.773539 -1.920581,1.479815 -0.741277,0.706275 -1.785803,1.446182 -2.358608,1.681608 -1.179304,0.437218 -4.885688,0.47085 -5.424798,0 -0.471722,-0.369954 -0.30325,-5.717468 0.202166,-6.6928 0.202166,-0.336322 0.673888,-0.975333 1.111915,-1.378919 0.404333,-0.437218 1.212999,-1.345286 1.785803,-2.017929 1.482554,-1.681608 2.29122,-2.051562 5.188938,-2.286987 1.38147,-0.134529 2.628163,-0.269058 2.729246,-0.269058 0.134778,-0.03363 0.404333,0.134529 0.6065,0.403586 z"
       id="path15-7"
       style="stroke-width:0.0336633" />
  </g>
</svg>
