<?xml version="1.0" encoding="UTF-8" standalone="no"?>
<!-- Created with Inkscape (http://www.inkscape.org/) -->

<svg
   width="48"
   height="48"
   viewBox="0 0 48 48"
   version="1.1"
   id="svg1"
   inkscape:version="1.4.2 (f4327f4, 2025-05-13)"
   sodipodi:docname="rosso frizzante.svg"
   xmlns:inkscape="http://www.inkscape.org/namespaces/inkscape"
   xmlns:sodipodi="http://sodipodi.sourceforge.net/DTD/sodipodi-0.dtd"
   xmlns="http://www.w3.org/2000/svg"
   xmlns:svg="http://www.w3.org/2000/svg">
  <sodipodi:namedview
     id="namedview1"
     pagecolor="#ffffff"
     bordercolor="#000000"
     borderopacity="0.25"
     inkscape:showpageshadow="2"
     inkscape:pageopacity="0.0"
     inkscape:pagecheckerboard="0"
     inkscape:deskcolor="#d1d1d1"
     inkscape:document-units="px"
     inkscape:zoom="6.078125"
     inkscape:cx="2.0565553"
     inkscape:cy="32.411311"
     inkscape:window-width="1718"
     inkscape:window-height="1360"
     inkscape:window-x="1713"
     inkscape:window-y="0"
     inkscape:window-maximized="0"
     inkscape:current-layer="layer1" />
  <defs
     id="defs1" />
  <g
     inkscape:label="Livello 1"
     inkscape:groupmode="layer"
     id="layer1">
    <path
       d="m 21.455325,0.76565296 c -3.26836,1.61434304 -3.74008,4.37218004 -1.213,7.23091404 3.30205,3.73317 3.94224,4.405813 4.51505,4.708502 0.53911,0.269058 1.04453,-0.100896 3.26836,-2.320619 3.74007,-3.699537 4.51505,-5.885628 2.9988,-8.138982 -1.04453,-1.54708004 -3.13358,-2.25335504 -4.71722,-1.58071204 -0.90975,0.36995404 -1.28039,0.36995404 -2.12275,0.03363 -1.31408,-0.571746 -1.48255,-0.571746 -2.72924,0.06727 z m 2.89772,2.11882604 c 0.80866,0.639011 0.84236,0.639011 1.61733,0 1.01083,-0.77354 2.02166,-0.807172 2.9651,-0.03363 0.97714,0.77354 1.213,1.647976 0.74128,2.522412 -0.5728,1.109862 -4.00963,5.112089 -4.48135,5.212985 -0.20217,0.03363 -1.2467,-0.975332 -2.29122,-2.286987 -1.61733,-2.051561 -1.92058,-2.623308 -1.92058,-3.766802 0,-2.152458 1.65102,-2.95963 3.36944,-1.647975 z"
       id="path8-1"
       style="fill:#000000;stroke:none;stroke-width:0.0336633" />
    <path
       d="m 13.132805,13.613138 c -0.33694,0.336321 -0.5728,0.840804 -0.5728,1.109861 0,0.269057 -0.6065,1.210758 -1.34778,2.152458 -0.74128,0.908069 -1.5162504,2.051562 -1.7184104,2.522412 -0.20217,0.47085 -0.57281,1.24439 -0.84236,1.748873 -1.14561,2.18609 -0.13478,6.86096 1.6510204,7.701764 0.40433,0.201793 1.01083,0.706276 1.31408,1.109861 0.53911,0.739908 0.53911,0.908069 -0.43802,3.430481 -1.4488604,3.699537 -1.5162504,3.766802 -3.8748604,2.825101 -1.85319,-0.773539 -1.92058,-0.773539 -2.35861,-0.168161 -0.67389,0.908069 -0.20216,1.278022 3.30205,2.354252 1.71842,0.538114 3.3020504,1.143493 3.4705304,1.378918 0.50541,0.605379 2.93141,1.513447 3.43682,1.345287 0.23587,-0.100897 0.43803,-0.571747 0.43803,-1.042597 0,-0.874437 -0.20216,-0.975333 -3.13358,-2.152459 -0.53911,-0.201793 -0.87605,-0.571746 -0.80866,-0.807171 0.10108,-0.201793 0.6065,-1.647976 1.11191,-3.195056 l 0.90975,-2.757837 h 1.71842 c 1.65102,0 3.90855,-0.9417 3.90855,-1.614343 0,-0.168161 0.37063,-0.470851 0.77497,-0.639012 0.43802,-0.201792 1.07822,-0.908068 1.38147,-1.580711 0.74127,-1.580712 1.61733,-7.029121 1.48255,-9.282476 l -0.10108,-1.782505 -1.71842,-0.538114 c -0.94344,-0.30269 -1.92058,-0.706276 -2.19013,-0.941701 -0.6065,-0.47085 -4.00964,-1.782504 -4.71722,-1.782504 -0.30325,0 -0.77497,0.269057 -1.07822,0.605379 z m 3.87486,2.589676 c 1.14561,0.47085 2.3923,0.840804 2.79663,0.840804 0.37064,0 0.87606,0.168161 1.11192,0.403586 0.5728,0.571747 0.53911,4.271284 -0.0674,4.506709 -0.50542,0.201793 -5.79544,-1.748872 -6.6378,-2.455147 -0.26955,-0.235425 -0.67389,-0.437218 -0.84236,-0.437218 -0.16847,0 -0.50541,-0.134529 -0.77497,-0.30269 -0.37064,-0.235425 -0.23586,-0.605379 0.6065,-1.849769 0.6065,-0.840804 1.213,-1.547079 1.41516,-1.547079 0.16848,0 1.2467,0.369954 2.39231,0.840804 z m -2.426,5.44841 c 0.26956,0.100896 0.80867,0.302689 1.1793,0.47085 0.37064,0.134529 1.58364,0.571747 2.69556,0.941701 2.62816,0.840804 2.83033,1.681608 0.94344,3.766802 -2.05536,2.253354 -4.07702,2.825101 -6.33455,1.748872 -2.72924,-1.311654 -4.0096304,-5.414778 -2.22383,-7.298179 0.77497,-0.807172 0.84236,-0.840804 2.02167,-0.336321 0.67388,0.302689 1.44885,0.605378 1.71841,0.706275 z"
       id="path12-8"
       style="fill:#000000;stroke:none;stroke-width:0.0336633" />
    <path
       d="m 33.619005,19.700559 c -0.20217,0.16816 -1.78581,0.639011 -3.53792,1.042597 -1.7521,0.403586 -3.50421,0.874436 -3.90855,1.008964 -0.97713,0.369954 -1.24669,2.286987 -0.94344,6.726432 0.37064,6.255582 1.88689,8.340776 6.50302,8.946155 l 1.58364,0.201793 0.6065,2.757837 c 0.97713,4.405813 1.01083,4.304917 -1.11192,4.708502 -1.95427,0.403586 -2.86402,1.210758 -2.12275,1.950666 0.33695,0.336321 0.84236,0.302689 2.52708,-0.201793 2.39231,-0.672643 3.67269,-0.975333 6.26716,-1.513447 2.15644,-0.437219 1.95428,-0.30269 2.12275,-1.378919 0.10108,-0.77354 0,-0.840804 -1.24669,-0.807172 -0.74128,0.03363 -1.95428,0.100897 -2.69556,0.168161 -1.31408,0.134529 -1.34777,0.100896 -1.65102,-1.210758 -0.13478,-0.739907 -0.50542,-2.118826 -0.74128,-3.026894 l -0.47172,-1.681608 1.34778,-1.109861 c 0.74127,-0.605379 1.61733,-1.681608 1.92058,-2.354252 0.30325,-0.672643 0.77497,-1.446183 1.01083,-1.681608 0.74128,-0.773539 0.50541,-2.892365 -0.57281,-5.044824 -0.53911,-1.143493 -1.01083,-2.253354 -1.01083,-2.455147 0,-0.706276 -2.79663,-5.347514 -3.20097,-5.347514 -0.20216,0 -0.50541,0.134529 -0.67388,0.30269 z m 1.14561,3.262319 c 1.44885,2.421516 1.38147,2.522412 -3.33575,3.73317 -2.32491,0.605379 -4.31288,0.975333 -4.48136,0.807172 -0.13477,-0.134529 -0.23586,-1.177126 -0.16847,-2.253355 l 0.10109,-1.984297 1.34777,-0.30269 c 0.74128,-0.134528 1.95428,-0.47085 2.69555,-0.706275 2.426,-0.739908 3.06619,-0.639011 3.84117,0.706275 z m 2.25752,5.381146 c 0.77497,4.103123 -1.92058,7.970822 -5.12155,7.399075 -1.7858,-0.369954 -2.86402,-1.076229 -3.90855,-2.623309 -0.70758,-1.008964 -0.94344,-1.748872 -0.87605,-2.589676 0.10108,-1.278022 -0.26956,-1.109861 4.8183,-2.219722 1.48255,-0.336322 2.93141,-0.739908 3.20096,-0.874437 1.07822,-0.605378 1.65103,-0.336321 1.88689,0.908069 z"
       id="path13-4"
       style="fill:#000000;stroke:none;stroke-width:0.0336633" />
  </g>
</svg>
