<?xml version="1.0" encoding="UTF-8" standalone="no"?>
<!-- Created with Inkscape (http://www.inkscape.org/) -->

<svg
   width="48"
   height="48"
   viewBox="0 0 48 48"
   version="1.1"
   id="svg1"
   inkscape:version="1.4.2 (f4327f4, 2025-05-13)"
   sodipodi:docname="rosso.svg"
   xmlns:inkscape="http://www.inkscape.org/namespaces/inkscape"
   xmlns:sodipodi="http://sodipodi.sourceforge.net/DTD/sodipodi-0.dtd"
   xmlns="http://www.w3.org/2000/svg"
   xmlns:svg="http://www.w3.org/2000/svg">
  <sodipodi:namedview
     id="namedview1"
     pagecolor="#ffffff"
     bordercolor="#000000"
     borderopacity="0.25"
     inkscape:showpageshadow="2"
     inkscape:pageopacity="0.0"
     inkscape:pagecheckerboard="0"
     inkscape:deskcolor="#d1d1d1"
     inkscape:document-units="px"
     inkscape:zoom="6.078125"
     inkscape:cx="2.0565553"
     inkscape:cy="32.411311"
     inkscape:window-width="1718"
     inkscape:window-height="1360"
     inkscape:window-x="1713"
     inkscape:window-y="0"
     inkscape:window-maximized="0"
     inkscape:current-layer="layer1" />
  <defs
     id="defs1" />
  <g
     inkscape:label="Livello 1"
     inkscape:groupmode="layer"
     id="layer1">
    <path
       d="m 13.287584,1.0538528 c -0.69781,0.6800915 -0.775344,1.2468419 -0.775344,4.7984209 0,3.5137989 -0.116302,4.2694503 -0.814111,5.4029403 -0.465206,0.717871 -1.201783,1.549096 -1.589454,1.85135 -0.4264395,0.264485 -1.2793181,1.284622 -1.8995928,2.229187 l -1.1242493,1.73801 v 14.244107 14.244119 l 1.1630159,1.133478 c 1.4343867,1.397963 3.1013752,1.662449 9.5367302,1.473535 5.039735,-0.113352 6.08645,-0.453398 7.365767,-2.38032 0.581508,-0.831224 0.659044,-2.531442 0.659044,-14.621934 0,-15.490949 0.07754,-15.188683 -3.217678,-18.173523 -0.891646,-0.831225 -1.783291,-1.889142 -1.977127,-2.380321 -0.193836,-0.528957 -0.348906,-2.6825735 -0.348906,-4.8739807 0,-4.94954234 -0.348904,-5.44072077 -3.876719,-5.44072077 -1.822059,0 -2.481101,0.15113271 -3.101376,0.75565227 z m 4.574529,1.4735353 c 0.348906,0.1889131 0.465206,0.9823568 0.387672,2.5314417 L 18.133483,7.2880174 H 16.38896 14.644437 L 14.528135,5.0588298 c -0.116302,-2.4180893 0.155068,-2.8714874 1.860825,-2.8714874 0.542741,0 1.201783,0.1511326 1.473153,0.3400457 z M 18.792526,11.0663 c 0.465207,1.209051 1.356852,2.531443 2.597403,3.702713 1.822057,1.738008 2.713704,3.551579 2.170962,4.420583 -0.155069,0.226693 -2.946306,0.377826 -7.404534,0.377826 H 9.0231928 v -1.095698 c 0,-0.793432 0.6202748,-1.738009 2.1709622,-3.476018 1.977128,-2.115835 2.558635,-3.060401 3.372746,-5.3651488 0.193836,-0.5289703 0.620277,-0.6800913 1.899593,-0.5667507 1.589455,0.1133526 1.666989,0.1889134 2.326032,2.0024935 z m 4.962202,19.420356 c 0.155068,6.61199 0.07754,9.256784 -0.232603,9.521258 C 23.01815,40.423532 9.7985368,40.347959 9.2170288,39.932304 8.9844261,39.743391 8.8681237,36.342933 8.9456582,30.599947 c 0.077536,-8.161075 0.1550693,-9.105652 0.7365773,-9.218993 0.3876715,-0.07561 3.6441155,-0.113353 7.2882325,-0.07561 l 6.590423,0.03776 z m 0.03876,11.826006 c 0.116303,1.246831 -0.155068,2.45588 -0.697809,3.022632 -0.54274,0.604518 -1.395618,0.680091 -6.706725,0.680091 -6.5904231,0 -6.9393283,-0.113353 -7.4820684,-2.191408 -0.4652066,-1.926922 -0.3489053,-1.964702 7.5208344,-1.964702 5.582478,0 7.327002,0.113341 7.365768,0.453387 z"
       id="path5-46"
       style="fill:#000000;stroke:none;stroke-width:0.0382718" />
    <path
       d="m 13.830326,25.38598 -1.318086,1.284611 v 4.042757 4.042757 l 1.318086,1.284612 c 1.78329,1.738009 3.333978,1.738009 5.156036,-0.03775 l 1.356852,-1.322397 -0.155069,-4.19389 -0.116301,-4.19389 -1.279318,-1.095698 c -1.744523,-1.511317 -3.256445,-1.473536 -4.9622,0.188913 z m 3.799184,1.246831 c 0.969181,0.869004 1.046714,7.065377 0.03876,8.123294 -0.775344,0.831225 -1.589455,0.869004 -2.519868,0.03776 -0.581508,-0.491167 -0.697808,-1.20905 -0.697808,-3.967186 0,-3.55159 0.465205,-4.836201 1.705757,-4.836201 0.426438,0 1.08548,0.264485 1.473153,0.642311 z"
       id="path6-0"
       style="fill:#000000;stroke:none;stroke-width:0.0382718" />
    <path
       d="m 30.22885,24.176929 c -0.852878,1.360172 -1.938361,7.25429 -1.744524,9.370127 0.271371,2.758145 2.170963,4.873982 5.504943,6.120812 0.387669,0.151133 0.503967,5.856338 0.07754,6.234164 -0.1163,0.151133 -1.124247,0.226694 -2.170963,0.151133 -1.550688,-0.0756 -1.93836,0.03776 -2.287265,0.680091 -0.310137,0.56674 -0.310137,0.831213 0.03876,1.057918 0.659041,0.377826 10.505917,0.491167 11.126192,0.113342 0.310131,-0.151133 0.42644,-0.60452 0.232595,-1.095698 -0.193833,-0.680092 -0.542738,-0.793433 -2.558635,-0.793433 H 36.160228 V 42.879412 39.74344 l 1.35686,-0.491179 c 4.884661,-1.700229 5.892615,-5.591854 3.60535,-13.450674 -0.736585,-2.455882 -0.736585,-2.455882 -5.776318,-2.455882 -4.341925,0 -4.613294,0.03776 -5.117268,0.831224 z m 8.916452,2.229177 c 0.27137,0.528959 0.54274,1.397964 0.581513,1.889141 0.116298,0.906786 0.116298,0.906786 -4.419458,1.020138 -5.078507,0.113353 -5.156041,0.07561 -4.148094,-2.455881 0.581507,-1.511315 0.969179,-1.624657 4.419462,-1.549096 2.907541,0.113353 3.140137,0.188913 3.566577,1.095698 z m 1.201788,6.120811 c 0.232607,2.720367 -2.170968,5.176248 -5.078508,5.176248 -2.442329,0 -5.233568,-2.720366 -5.311103,-5.138456 0,-1.435754 0.659043,-1.624667 5.582474,-1.549096 l 4.690839,0.07561 z"
       id="path11-3"
       style="fill:#000000;stroke:none;stroke-width:0.0382718" />
  </g>
</svg>
