<?xml version="1.0" encoding="UTF-8" standalone="no"?>
<!-- Created with Inkscape (http://www.inkscape.org/) -->

<svg
   width="48"
   height="48"
   viewBox="0 0 48 48"
   version="1.1"
   id="svg1"
   inkscape:version="1.4.2 (f4327f4, 2025-05-13)"
   sodipodi:docname="sidro.svg"
   xmlns:inkscape="http://www.inkscape.org/namespaces/inkscape"
   xmlns:sodipodi="http://sodipodi.sourceforge.net/DTD/sodipodi-0.dtd"
   xmlns="http://www.w3.org/2000/svg"
   xmlns:svg="http://www.w3.org/2000/svg">
  <sodipodi:namedview
     id="namedview1"
     pagecolor="#ffffff"
     bordercolor="#000000"
     borderopacity="0.25"
     inkscape:showpageshadow="2"
     inkscape:pageopacity="0.0"
     inkscape:pagecheckerboard="0"
     inkscape:deskcolor="#d1d1d1"
     inkscape:document-units="px"
     inkscape:zoom="6.078125"
     inkscape:cx="-11.105398"
     inkscape:cy="32.411311"
     inkscape:window-width="1718"
     inkscape:window-height="1360"
     inkscape:window-x="1713"
     inkscape:window-y="0"
     inkscape:window-maximized="0"
     inkscape:current-layer="layer1" />
  <defs
     id="defs1" />
  <g
     inkscape:label="Livello 1"
     inkscape:groupmode="layer"
     id="layer1">
    <path
       d="m 18.270312,1.8951117 c -0.314699,0.4185715 -0.559465,0.9069045 -0.559465,1.0115479 0,0.1395231 -0.629398,1.6045233 -1.433629,3.31369 -4.580622,9.7666664 -7.6227145,18.6264274 -7.6576807,22.1842844 0,3.418333 2.4126937,7.394761 5.4198187,8.789999 0.664366,0.313928 1.223831,0.7325 1.258797,0.906905 0.1049,1.953333 0,6.627382 -0.174833,6.941311 -0.174833,0.244161 -0.909131,0.313929 -2.063027,0.174404 -2.063029,-0.209283 -3.321825,0.383686 -2.937193,1.395242 0.2098,0.488333 1.538529,0.55809 14.231397,0.55809 12.168369,0 14.021597,-0.0698 14.19643,-0.523212 0.384633,-0.941787 -0.559465,-1.604524 -2.097995,-1.499888 l -1.433629,0.104647 -0.1049,-2.790474 -0.104899,-2.825359 1.433629,-0.802262 c 1.713363,-0.976666 3.356791,-3.278809 3.846324,-5.441428 0.314696,-1.395237 0.244762,-2.162619 -0.349666,-4.534522 -0.664366,-2.616072 -2.832293,-8.441191 -4.615589,-12.382738 -0.419599,-0.872024 -1.153896,-2.58119 -1.713361,-3.836905 -0.979065,-2.337024 -1.783296,-3.2090473 -2.377728,-2.616071 -0.314699,0.34881 -2.902226,6.348333 -3.356791,7.813333 -0.349666,1.185952 -0.769265,0.558096 -2.272828,-3.383452 C 24.669196,12.533802 23.305499,9.2549928 22.396369,7.1970157 19.599043,0.88356379 19.284343,0.46499231 18.270312,1.8951117 Z m 2.307795,5.7553562 c 2.028061,4.7438101 5.454785,13.6035711 6.259016,16.1498801 1.818263,5.929762 0.174833,10.359643 -4.68552,12.382737 -3.636525,1.499881 -8.671711,-0.348809 -10.489974,-3.906666 -1.258797,-2.441666 -1.398663,-4.011309 -0.594432,-6.941309 0.734298,-2.790475 2.482627,-7.813332 3.321825,-9.731785 0.244767,-0.592976 0.734298,-1.744047 1.048998,-2.616071 0.349665,-0.872023 0.804231,-2.057976 1.048997,-2.616071 0.244766,-0.5929764 0.90913,-2.1277386 1.398663,-3.4183338 0.664365,-1.6045233 1.083963,-2.2672613 1.32873,-2.0230948 0.174833,0.1744049 0.804231,1.3952376 1.363697,2.7207135 z M 33.795473,18.149634 c 0.804231,2.057977 1.678395,4.185715 1.923161,4.77869 0.874165,2.057977 2.307794,6.662262 2.517594,8.0575 0.699332,5.162381 -5.035187,9.103928 -9.685742,6.662261 -2.097995,-1.11619 -2.44766,-1.744047 -1.503563,-2.755595 0.4196,-0.453452 1.153897,-1.674285 1.64343,-2.720713 1.118929,-2.406786 1.188863,-4.953096 0.139865,-8.197024 -0.734297,-2.371905 -0.734297,-2.441666 -0.104899,-4.185714 0.3147,-0.941785 1.083963,-2.825357 1.678395,-4.150833 1.293764,-2.860237 1.293764,-2.860237 3.391759,2.511428 z m -8.391979,19.254285 c 0,0.174405 0.699332,0.802261 1.573496,1.395237 l 1.608462,1.116191 -0.104899,2.650948 -0.1049,2.685837 H 25.75316 23.130667 l -0.1049,-3.662503 c -0.06993,-3.139281 0,-3.732258 0.524499,-4.081068 0.699331,-0.523214 1.853228,-0.592975 1.853228,-0.104642 z m -4.265923,4.674043 -0.104899,3.17417 H 19.10951 17.186348 v -3.313685 -3.313695 l 1.573496,-0.174404 c 2.342761,-0.279049 2.482627,-0.03488 2.377727,3.627614 z m 11.888637,0.627858 -0.1049,2.546312 h -1.22383 -1.22383 l -0.1049,-2.546312 -0.104899,-2.511425 h 1.433629 1.433629 z"
       id="path1-3"
       style="fill:#000000;stroke:none;stroke-width:0.0349238" />
  </g>
</svg>
