<?xml version="1.0" encoding="UTF-8" standalone="no"?>
<!-- Created with Inkscape (http://www.inkscape.org/) -->

<svg
   width="48"
   height="48"
   viewBox="0 0 48 48"
   version="1.1"
   id="svg1"
   inkscape:version="1.4.2 (f4327f4, 2025-05-13)"
   sodipodi:docname="spumante.svg"
   xmlns:inkscape="http://www.inkscape.org/namespaces/inkscape"
   xmlns:sodipodi="http://sodipodi.sourceforge.net/DTD/sodipodi-0.dtd"
   xmlns="http://www.w3.org/2000/svg"
   xmlns:svg="http://www.w3.org/2000/svg">
  <sodipodi:namedview
     id="namedview1"
     pagecolor="#ffffff"
     bordercolor="#000000"
     borderopacity="0.25"
     inkscape:showpageshadow="2"
     inkscape:pageopacity="0.0"
     inkscape:pagecheckerboard="0"
     inkscape:deskcolor="#d1d1d1"
     inkscape:document-units="px"
     inkscape:zoom="6.078125"
     inkscape:cx="2.0565553"
     inkscape:cy="32.411311"
     inkscape:window-width="1718"
     inkscape:window-height="1360"
     inkscape:window-x="1713"
     inkscape:window-y="0"
     inkscape:window-maximized="0"
     inkscape:current-layer="layer1" />
  <defs
     id="defs1" />
  <g
     inkscape:label="Livello 1"
     inkscape:groupmode="layer"
     id="layer1">
    <path
       d="M 14.664168,0.87941613 13.552253,1.7202201 V 8.009434 c 0,6.894593 -0.202166,8.172616 -1.583637,9.652431 -1.448859,1.513447 -2.7629408,3.733169 -3.1335788,5.313881 -0.235861,0.874436 -0.336944,5.179353 -0.269555,11.670359 0.101083,11.434935 0.168472,11.804889 2.2912188,12.746589 1.010832,0.437218 2.190136,0.504482 7.176907,0.369954 l 5.963909,-0.168161 0.909749,-0.9417 0.943443,-0.908069 V 33.704405 21.697724 L 24.738794,20.016116 C 24.132295,19.108047 23.25624,18.132715 22.818213,17.89729 21.133493,17.022854 20.863938,15.845728 20.762855,8.9175023 20.729165,5.4197577 20.695465,2.2583346 20.661771,1.9556452 20.560688,-0.02865227 16.685832,-0.73492757 14.664168,0.87941613 Z m 4.279189,1.68160797 c 0.202166,0.4708502 0.336944,1.6479758 0.336944,2.6569406 0,1.9506653 -0.235861,2.1860904 -2.22383,2.1860904 -0.943444,0 -1.179304,-0.1345286 -1.347776,-0.8744362 -0.235861,-0.9080683 0.03369,-3.9349627 0.370638,-4.5067094 0.101083,-0.201793 0.741277,-0.3363216 1.38147,-0.3363216 0.943444,0 1.212999,0.1681608 1.482554,0.8744362 z m 0.202166,9.9887519 c 0.03369,3.329584 0.101084,3.699538 0.977138,5.011192 l 0.943443,1.412551 -0.977137,0.77354 c -2.190136,1.782504 -2.560775,1.849768 -4.312884,0.773539 -0.876054,-0.571747 -1.718414,-1.008965 -1.886886,-1.008965 -0.53911,0 -0.404333,-1.24439 0.134778,-1.446182 1.07822,-0.437219 1.68472,-2.32062 1.718414,-5.616571 0.03369,-1.748873 0.101083,-3.3295847 0.101083,-3.4641134 0.03369,-0.1345286 0.774971,-0.2354251 1.68472,-0.1681608 l 1.583637,0.1008965 z m -4.380272,9.316109 c 1.212999,0.739907 2.459692,1.345286 2.729247,1.345286 0.269555,0 1.347776,-0.605379 2.425997,-1.345286 2.156441,-1.513448 2.695552,-1.614344 3.537912,-0.706276 0.640193,0.706276 1.38147,4.708503 0.943443,5.145721 -0.168472,0.168161 -3.36944,0.235425 -7.176907,0.201793 l -6.873658,-0.100897 0.101083,-1.849769 c 0.134778,-2.085194 0.909749,-4.035859 1.617331,-4.035859 0.269556,0 1.482554,0.605379 2.695552,1.345287 z m 9.602904,7.130018 c 0.06739,0.235425 0.06739,2.791469 -0.03369,5.650202 l -0.168472,5.212985 -6.536714,0.100897 c -3.773772,0.06726 -6.671491,-0.03363 -6.907352,-0.235425 -0.269555,-0.201793 -0.336944,-1.950666 -0.269555,-5.717468 l 0.101083,-5.414777 h 6.839964 c 5.222632,0 6.907352,0.100896 6.97474,0.403586 z m 0,13.486496 c 0.370639,0.639011 -0.370638,2.892365 -1.07822,3.262319 -0.84236,0.47085 -10.883292,0.47085 -11.725652,0.03363 -0.370638,-0.235425 -0.774971,-0.807171 -0.876054,-1.311654 -0.134778,-0.504482 -0.269555,-1.177125 -0.336944,-1.513447 -0.06739,-0.30269 0.101083,-0.672643 0.336944,-0.840804 0.269555,-0.134529 3.36944,-0.201793 6.941046,-0.168161 5.121549,0.06726 6.536714,0.168161 6.73888,0.538115 z"
       id="path1-63"
       style="fill:#000000;stroke:none;stroke-width:0.0336633" />
    <path
       d="m 14.900029,31.652843 c -0.741277,0.77354 -1.38147,1.647976 -1.38147,1.950665 -0.101084,1.143494 0.101083,1.883401 0.572804,2.152459 0.269556,0.134528 0.471722,0.47085 0.471722,0.706275 0,1.378919 3.571606,2.051562 4.919382,0.941701 1.920581,-1.54708 1.718415,-5.246617 -0.370638,-6.491007 -1.617331,-1.008965 -2.695552,-0.807172 -4.2118,0.739907 z m 3.773773,1.210758 c 0.84236,0.77354 0.774971,2.286987 -0.134778,2.925998 -1.010832,0.706275 -1.482553,0.672643 -2.291219,-0.134529 -1.785803,-1.782504 0.53911,-4.506709 2.425997,-2.791469 z"
       id="path2-6"
       style="fill:#000000;stroke:none;stroke-width:0.0336633" />
    <path
       d="m 27.838679,7.5722159 c -0.30325,1.2107578 0.572804,2.1860904 1.38147,1.5134472 0.774971,-0.639011 0.505416,-2.1524582 -0.404333,-2.2869869 -0.572805,-0.1008965 -0.808665,0.1008965 -0.977137,0.7735397 z"
       id="path13-1"
       style="fill:#000000;stroke:none;stroke-width:0.0336633" />
    <path
       d="m 25.581154,9.6574098 c -0.808666,0.8071722 0.471721,2.3542522 1.583637,1.9170332 0.606499,-0.235425 1.010832,-1.311654 0.707582,-1.8161367 C 27.636512,9.3883525 25.918098,9.2874561 25.581154,9.6574098 Z"
       id="path14-6"
       style="fill:#000000;stroke:none;stroke-width:0.0336633" />
    <path
       d="m 29.624482,9.6237777 c -0.471722,0.4708503 -0.235861,1.4798153 0.471721,1.8497693 1.044527,0.538115 2.392301,-0.134529 2.257521,-1.143494 -0.0674,-0.5717467 -0.33694,-0.7735397 -1.280383,-0.840804 -0.673888,-0.067264 -1.314082,0 -1.448859,0.1345287 z"
       id="path15-5"
       style="fill:#000000;stroke:none;stroke-width:0.0336633" />
    <path
       d="m 27.838679,11.910765 c -0.370639,0.975333 0,1.71524 0.876054,1.71524 0.707582,0 0.84236,-0.168161 0.84236,-1.008965 0,-0.807171 -0.168472,-1.042597 -0.774971,-1.109861 -0.438027,-0.06726 -0.808666,0.100897 -0.943443,0.403586 z"
       id="path16-7"
       style="fill:#000000;stroke:none;stroke-width:0.0336633" />
    <path
       d="m 34.678644,13.020626 c -0.33695,0.30269 -0.26956,1.849769 0.0674,2.421516 0.67388,1.076229 1.98797,-0.874436 1.48255,-2.219723 -0.16847,-0.47085 -1.1793,-0.605379 -1.54994,-0.201793 z"
       id="path17-5"
       style="fill:#000000;stroke:none;stroke-width:0.0336633" />
    <path
       d="m 32.320034,15.711199 c -0.47172,0.470851 -0.20217,1.378919 0.47172,1.54708 1.04453,0.269057 1.65103,-0.06727 1.65103,-0.975333 0,-0.672643 -0.16847,-0.807172 -0.94345,-0.807172 -0.53911,0 -1.07822,0.100897 -1.1793,0.235425 z"
       id="path18-4"
       style="fill:#000000;stroke:none;stroke-width:0.0336633" />
    <path
       d="m 36.127504,16.282946 c 0,0.504482 0.23586,0.908068 0.64019,1.042597 0.94344,0.302689 1.71841,-0.168161 1.71841,-1.042597 0,-0.706275 -0.16847,-0.807172 -1.1793,-0.807172 -1.01083,0 -1.1793,0.100897 -1.1793,0.807172 z"
       id="path19-1"
       style="fill:#000000;stroke:none;stroke-width:0.0336633" />
    <path
       d="m 34.644944,17.661865 c -0.33694,0.9417 -0.23586,2.118826 0.23586,2.286986 0.80867,0.30269 1.31409,-0.302689 1.17931,-1.479815 -0.10108,-1.244389 -1.04453,-1.748872 -1.41517,-0.807171 z"
       id="path20"
       style="fill:#000000;stroke:none;stroke-width:0.0336633" />
    <path
       d="m 34.072144,23.480228 c -4.548745,0.100897 -4.211801,-0.201793 -5.155245,4.573974 -0.741276,3.665905 -0.673888,5.952892 0.168472,7.970822 0.640194,1.446183 0.977138,1.782504 2.493383,2.48878 0.94345,0.47085 1.92058,0.840804 2.12275,0.840804 0.57281,0 0.57281,6.726432 0,6.760064 -0.23586,0.03363 -1.213,0.03363 -2.15644,-0.03363 -1.819499,-0.06726 -2.695553,0.47085 -2.156443,1.345286 0.235861,0.369954 1.415165,0.47085 5.391103,0.47085 5.29002,0.03363 6.06499,-0.134528 5.59327,-1.345286 -0.16847,-0.47085 -0.5728,-0.538115 -2.3923,-0.403586 l -2.19014,0.201793 0.0337,-3.43048 v -3.396848 l 2.05536,-1.008965 c 1.14561,-0.571747 2.19013,-1.24439 2.32491,-1.513447 0.10108,-0.269058 0.43803,-0.941701 0.67389,-1.479815 0.87605,-1.849769 0.0674,-9.854223 -1.14561,-11.401303 -0.53911,-0.706275 -1.17931,-0.773539 -5.66066,-0.639011 z m 4.51505,3.497745 c 0.30325,0.975333 0.43803,1.883401 0.26955,2.051562 -0.13477,0.134528 -2.05536,0.201793 -4.27919,0.16816 -3.908546,-0.100896 -4.009629,-0.134528 -4.110712,-0.874436 -0.06739,-0.437218 0.101083,-1.042597 0.370638,-1.345286 0.269555,-0.30269 0.572804,-0.840804 0.673884,-1.177126 0.16848,-0.47085 0.67389,-0.571746 3.36944,-0.571746 h 3.13358 z m 1.11191,4.473077 c 0.37064,1.54708 -0.16847,2.993262 -1.71841,4.641238 -1.31408,1.345287 -1.71842,1.580712 -2.86403,1.580712 -1.61733,0 -2.9651,-0.571747 -3.20096,-1.412551 -0.13478,-0.336322 -0.50542,-0.77354 -0.842363,-0.9417 -0.808666,-0.437218 -1.516248,-2.656941 -1.212998,-3.834067 l 0.202166,-0.874436 h 4.717215 4.71722 z"
       id="path21"
       style="fill:#000000;stroke:none;stroke-width:0.0336633" />
  </g>
</svg>
