<?xml version="1.0" encoding="UTF-8" standalone="no"?>
<!-- Created with Inkscape (http://www.inkscape.org/) -->

<svg
   width="48"
   height="48"
   viewBox="0 0 48 48"
   version="1.1"
   id="svg1"
   inkscape:version="1.4.2 (f4327f4, 2025-05-13)"
   sodipodi:docname="temperatura_servizio.svg"
   xmlns:inkscape="http://www.inkscape.org/namespaces/inkscape"
   xmlns:sodipodi="http://sodipodi.sourceforge.net/DTD/sodipodi-0.dtd"
   xmlns="http://www.w3.org/2000/svg"
   xmlns:svg="http://www.w3.org/2000/svg">
  <sodipodi:namedview
     id="namedview1"
     pagecolor="#ffffff"
     bordercolor="#000000"
     borderopacity="0.25"
     inkscape:showpageshadow="2"
     inkscape:pageopacity="0.0"
     inkscape:pagecheckerboard="0"
     inkscape:deskcolor="#d1d1d1"
     inkscape:document-units="px"
     inkscape:zoom="6.078125"
     inkscape:cx="-11.105398"
     inkscape:cy="32.411311"
     inkscape:window-width="1718"
     inkscape:window-height="1360"
     inkscape:window-x="1713"
     inkscape:window-y="0"
     inkscape:window-maximized="0"
     inkscape:current-layer="layer1" />
  <defs
     id="defs1" />
  <g
     inkscape:label="Livello 1"
     inkscape:groupmode="layer"
     id="layer1">
    <path
       d="M 16.353993,0.86945991 C 16.119736,1.1032849 15.952411,1.5709351 15.952411,1.9383744 c 0,0.400843 -0.234257,1.336143 -0.501985,2.1044253 -0.468514,1.336143 -0.769703,2.7390932 -1.874056,8.6181223 -0.70278,3.774604 -0.568916,8.317491 0.33465,10.722548 0.401582,1.102318 1.137824,2.471864 1.606338,3.006322 0.468514,0.534457 1.070892,1.302739 1.372081,1.736986 0.635849,0.968704 4.484363,2.739093 5.923376,2.739093 0.602377,0 1.137823,0.200421 1.204755,0.400843 0.06694,0.233825 0.100393,3.7412 0.03347,7.816437 l -0.100393,7.38219 -4.317038,-0.167018 c -3.815053,-0.133615 -4.350499,-0.10021 -4.551295,0.400843 -0.501975,1.302739 0.133864,1.369547 9.838832,1.369547 7.563174,-0.0334 9.470701,-0.100211 9.939215,-0.501054 0.535456,-0.434247 0.535456,-0.501053 -0.06694,-0.9353 -0.435053,-0.334036 -1.606348,-0.434246 -4.517834,-0.367439 -2.141784,0.0668 -4.015849,0 -4.149703,-0.133615 -0.167335,-0.167017 -0.301189,-12.726763 -0.133864,-15.031609 0,-0.133614 0.602378,-0.233825 1.372081,-0.233825 1.807133,0 4.785552,-1.436354 5.722579,-2.772497 0.401582,-0.601264 1.271688,-1.603372 1.940998,-2.271443 1.639799,-1.670179 2.175245,-3.707797 2.141784,-8.150473 C 37.102519,13.729836 36.13203,7.8174038 35.061138,5.1451177 34.726488,4.3100283 34.224503,2.9738853 33.990246,2.1387959 L 33.521732,0.6356349 25.155384,0.53542415 c -6.258026,-0.0668068 -8.500212,0.0334034 -8.801401,0.33403576 z M 32.718568,4.1430104 c 0.736242,2.4384611 1.639809,6.4134866 1.639809,7.3821906 v 0.801685 h -9.269915 c -8.634076,0 -9.303376,-0.0334 -9.403779,-0.601264 -0.100393,-0.567861 1.00397,-5.9124328 1.572877,-7.5826116 0.167325,-0.46765 0.401582,-1.102318 0.501985,-1.4363538 0.167324,-0.5344571 0.736231,-0.5678607 7.261985,-0.5010536 l 7.094661,0.1002107 z m 2.710701,11.7580586 c 0.33465,2.405057 -0.03347,5.277765 -0.769703,6.246468 -0.368121,0.434248 -0.635849,1.068915 -0.635849,1.436354 0,0.36744 -1.037421,1.670179 -2.275637,2.939515 -2.00793,1.970811 -2.543376,2.304846 -4.149713,2.672286 -2.442973,0.567861 -5.254066,0.200421 -6.693079,-0.835089 -0.602378,-0.46765 -1.639809,-1.169125 -2.309109,-1.636776 -1.37208,-0.9353 -1.907526,-1.670179 -2.911496,-4.175447 -0.568907,-1.436354 -0.736232,-2.471864 -0.736232,-5.077343 0,-2.304847 0.133854,-3.306954 0.435043,-3.407165 0.200796,-0.0668 4.785552,-0.100211 10.10655,-0.0334 l 9.704968,0.0668 z"
       id="path8-3"
       style="fill:#000000;stroke:none;stroke-width:0.0334345" />
    <path
       d="m 20.30291,16.836369 c -0.870096,0.835089 -1.037431,1.169126 -0.870096,1.937407 0.234257,0.901897 1.907527,2.739093 2.543366,2.739093 0.167325,0 0.803173,-0.400843 1.338619,-0.935299 1.439013,-1.269336 1.505935,-2.872708 0.133854,-3.975026 -1.271677,-1.002107 -1.840594,-0.968704 -3.145743,0.233825 z m 2.34258,1.503161 c 0,0.634668 -0.66931,0.968704 -1.070892,0.567861 -0.501985,-0.501053 -0.06694,-1.436354 0.568907,-1.202529 0.267728,0.100211 0.501985,0.400843 0.501985,0.634668 z"
       id="path9-7"
       style="fill:#000000;stroke:none;stroke-width:0.0334345" />
    <path
       d="m 25.791233,21.646484 c -0.635839,0.634668 -1.137824,1.436354 -1.137824,1.837197 0,0.968703 1.67327,2.672286 2.844565,2.906111 0.836634,0.133614 1.171284,0 2.04139,-0.935301 1.606338,-1.670178 1.67327,-2.33825 0.435043,-3.7412 -1.405542,-1.603371 -2.610297,-1.636775 -4.183174,-0.0668 z m 2.811093,0.935301 c 0.535446,0.534456 0.501985,1.436352 -0.100393,1.937407 -0.435053,0.334035 -0.635839,0.334035 -1.171294,-0.167018 -0.836635,-0.73488 -0.836635,-1.135722 -0.06694,-1.703583 0.702771,-0.567861 0.836635,-0.567861 1.338609,-0.0668 z"
       id="path10-2"
       style="fill:#000000;stroke:none;stroke-width:0.0334345" />
  </g>
</svg>
