<?xml version="1.0" encoding="UTF-8" standalone="no"?>
<!-- Created with Inkscape (http://www.inkscape.org/) -->

<svg
   width="48"
   height="48"
   viewBox="0 0 48 48"
   version="1.1"
   id="svg1"
   inkscape:version="1.4.2 (f4327f4, 2025-05-13)"
   sodipodi:docname="vinificazione.svg"
   xmlns:inkscape="http://www.inkscape.org/namespaces/inkscape"
   xmlns:sodipodi="http://sodipodi.sourceforge.net/DTD/sodipodi-0.dtd"
   xmlns="http://www.w3.org/2000/svg"
   xmlns:svg="http://www.w3.org/2000/svg">
  <sodipodi:namedview
     id="namedview1"
     pagecolor="#ffffff"
     bordercolor="#000000"
     borderopacity="0.25"
     inkscape:showpageshadow="2"
     inkscape:pageopacity="0.0"
     inkscape:pagecheckerboard="0"
     inkscape:deskcolor="#d1d1d1"
     inkscape:document-units="px"
     inkscape:zoom="6.078125"
     inkscape:cx="2.0565553"
     inkscape:cy="32.411311"
     inkscape:window-width="1718"
     inkscape:window-height="1360"
     inkscape:window-x="1713"
     inkscape:window-y="0"
     inkscape:window-maximized="0"
     inkscape:current-layer="layer1" />
  <defs
     id="defs1" />
  <g
     inkscape:label="Livello 1"
     inkscape:groupmode="layer"
     id="layer1">
    <path
       d="m 30.807551,0.75121091 c -1.213,0.30268899 -2.72925,1.78250399 -3.47053,3.43047999 -0.64019,1.479815 -2.02166,1.580712 -3.50421,0.269057 -1.01084,-0.908068 -1.41517,-1.042597 -2.39231,-0.874436 -1.24669,0.168161 -2.42599,1.042597 -2.42599,1.71524 0,0.504483 -0.74128,0.840804 -1.78581,0.840804 -0.84236,0.03363 -2.59447,2.118826 -2.59447,3.094159 0,0.336322 0.30325,1.1771261 0.67389,1.8497691 0.6402,1.210758 0.6402,1.210758 -0.0337,2.18609 -0.57281,0.77354 -0.90975,0.941701 -2.15644,0.941701 -1.71842,0 -1.8532,0.201793 -1.8532,3.363216 v 2.320619 l 2.4597,2.589676 c 1.31408,1.446183 3.36944,3.531377 4.54874,4.607606 l 2.08905,2.01793 v 3.396848 c 0,2.219722 0.13478,3.565009 0.40433,3.834066 0.53912,0.538115 6.19977,0.538115 6.53672,0 0.13478,-0.201793 0.20216,-1.883401 0.16847,-3.73317 l -0.0674,-3.363216 1.95428,-1.883401 c 1.07822,-1.042597 3.13358,-3.127791 4.58244,-4.67487 l 2.59446,-2.791469 v -2.320619 c 0,-3.094159 -0.13477,-3.363216 -1.68472,-3.363216 -1.61733,0 -2.25752,-0.706276 -1.71841,-1.883401 1.07822,-2.4215161 -0.20217,-4.5067101 -2.79664,-4.5067101 -1.34777,0 -1.51624,-0.100896 -1.85319,-1.076229 -0.33694,-0.908068 -0.26955,-1.177125 0.47172,-2.152458 0.47173,-0.639011 1.28039,-1.24439 1.78581,-1.345286 1.04452,-0.269058 2.42599,-1.412551 2.42599,-2.01793 0,-0.30268899 -0.87605,-0.90806799 -1.11191,-0.77353999 -0.0337,0.03363 -0.6065,0.168161 -1.24669,0.30269 z m -7.78341,4.84303099 c 0.74128,0.874436 0.30325,2.354251 -0.77497,2.724205 -0.80867,0.269057 -1.04453,0.201793 -1.58364,-0.47085 -0.77497,-0.941701 -0.80866,-1.513448 -0.10108,-2.186091 0.64019,-0.672643 1.95427,-0.706275 2.45969,-0.06726 z m 4.34658,2.286987 c 1.01083,0.840804 0.16847,2.2869871 -1.28039,2.2869871 -1.58364,0 -2.19014,-1.2443901 -1.11192,-2.4215161 0.57281,-0.605379 1.48256,-0.571747 2.39231,0.134529 z m -7.8171,1.109861 c 0.33694,0.840804 -0.50542,1.8497691 -1.51625,1.8497691 -1.213,0 -1.85319,-0.739908 -1.58364,-1.8161371 0.30325,-1.278022 2.62816,-1.311654 3.09989,-0.03363 z m 11.62456,0.504482 c 0.77498,0.437218 0.87606,2.0851941 0.16848,2.6905731 -0.80867,0.639011 -1.98797,0.269057 -2.49339,-0.773539 -0.40433,-0.840804 -0.40433,-1.042597 0.13478,-1.6143441 0.64019,-0.706276 1.213,-0.807172 2.19013,-0.30269 z m -7.41276,1.2107581 c 0.43802,1.24439 -0.37064,2.48878 -1.65103,2.48878 -1.1793,0 -1.75211,-0.538115 -1.75211,-1.681608 0,-1.177126 0.57281,-1.6816081 1.92058,-1.6816081 0.90975,0 1.17931,0.1681611 1.48256,0.8744361 z m 3.84116,1.681608 c 0.97714,0.975333 0.50541,1.647976 -1.28039,1.748872 -1.38147,0.100897 -1.58364,0.03363 -1.58364,-0.571746 0,-1.479815 1.8195,-2.219723 2.86403,-1.177126 z m -8.25513,1.278022 c 0,0.605379 -0.67389,0.840804 -1.7858,0.639011 -1.54995,-0.302689 -1.07822,-1.109861 0.67388,-1.109861 0.70759,0 1.11192,0.168161 1.11192,0.47085 z m 15.09509,3.632274 0.10108,1.614343 h -10.44526 -10.47896 l -0.16847,-0.773539 c -0.13478,-0.403586 -0.0337,-1.177126 0.13478,-1.681608 l 0.37064,-0.908069 10.1757,0.06726 10.20941,0.100896 z m -1.48255,3.531376 c 0.26955,0.269058 -1.78581,2.455148 -2.32492,2.455148 -0.23586,0 -0.77497,0.504482 -1.21299,1.076229 -1.14561,1.547079 -2.72925,3.161423 -3.33575,3.363216 -0.40433,0.100897 -0.53911,0.941701 -0.67389,3.497745 l -0.16847,3.329584 -1.24669,0.100896 c -1.11192,0.100897 -1.28039,0 -1.48256,-0.739907 -0.10108,-0.504483 -0.13477,-1.883401 -0.0337,-3.094159 0.16847,-1.917033 0.10108,-2.253355 -0.47172,-2.757837 -1.38147,-1.143494 -2.66186,-2.421516 -2.66186,-2.656941 0,-0.403586 -1.7858,-2.118826 -2.22383,-2.118826 -0.43803,0 -2.15644,-1.883401 -2.15644,-2.387883 0,-0.336322 17.62217,-0.437218 17.99281,-0.06726 z"
       id="path16"
       style="fill:#000000;stroke:none;stroke-width:0.0336633" />
    <path
       d="m 22.889361,39.764516 c -0.30325,0.538115 -0.67389,1.008965 -0.84236,1.008965 -0.64019,0 -1.68472,2.186091 -1.68472,3.464113 0,1.748872 0.47172,2.48878 1.92058,3.094158 1.58364,0.672644 2.19014,0.639011 3.639,-0.201793 2.32491,-1.378918 2.49338,-3.195055 0.53911,-5.482042 -0.74128,-0.840804 -1.41517,-1.849768 -1.54994,-2.219722 -0.30325,-1.008965 -1.41517,-0.840804 -2.02167,0.336321 z m 2.02167,2.690573 c 1.07822,2.085194 0.23586,4.103124 -1.51625,3.531377 -1.213,-0.369954 -1.28039,-2.656941 -0.10109,-3.968595 0.74128,-0.807172 1.01084,-0.739907 1.61734,0.437218 z"
       id="path19"
       style="fill:#000000;stroke:none;stroke-width:0.0336633" />
  </g>
</svg>
