<?xml version="1.0" encoding="UTF-8" standalone="no"?>
<!-- Created with Inkscape (http://www.inkscape.org/) -->

<svg
   width="48"
   height="48"
   viewBox="0 0 48 48"
   version="1.1"
   id="svg1"
   inkscape:version="1.4.2 (f4327f4, 2025-05-13)"
   sodipodi:docname="vino_bevuto.svg"
   xmlns:inkscape="http://www.inkscape.org/namespaces/inkscape"
   xmlns:sodipodi="http://sodipodi.sourceforge.net/DTD/sodipodi-0.dtd"
   xmlns="http://www.w3.org/2000/svg"
   xmlns:svg="http://www.w3.org/2000/svg">
  <sodipodi:namedview
     id="namedview1"
     pagecolor="#ffffff"
     bordercolor="#000000"
     borderopacity="0.25"
     inkscape:showpageshadow="2"
     inkscape:pageopacity="0.0"
     inkscape:pagecheckerboard="0"
     inkscape:deskcolor="#d1d1d1"
     inkscape:document-units="px"
     inkscape:zoom="6.078125"
     inkscape:cx="-11.105398"
     inkscape:cy="32.411311"
     inkscape:window-width="1718"
     inkscape:window-height="1360"
     inkscape:window-x="1713"
     inkscape:window-y="0"
     inkscape:window-maximized="0"
     inkscape:current-layer="layer1" />
  <defs
     id="defs1" />
  <g
     inkscape:label="Livello 1"
     inkscape:groupmode="layer"
     id="layer1">
    <path
       d="M 8.0974462,1.0149463 C 7.335033,1.7163758 6.7715043,3.0190303 5.6113124,6.5261772 4.2190723,10.801556 4.1527742,11.202373 4.5505627,12.371423 c 0.2651825,0.801633 0.7955574,1.402859 1.5248264,1.803675 0.5966729,0.334014 1.1933459,0.768232 1.3259322,0.935238 0.099452,0.200409 1.0939036,0.634627 2.1546533,1.002043 2.6518744,0.835035 6.2319124,2.237894 8.4197094,3.273337 3.082807,1.43626 5.734681,1.336056 7.160065,-0.23381 0.795557,-0.868436 3.016509,-0.901838 3.944662,-0.0334 0.397789,0.334013 2.353538,1.169048 4.375595,1.90388 3.513739,1.20245 3.745778,1.235852 4.508191,0.73483 0.928153,-0.601225 1.756865,-3.206534 1.425384,-4.30878 -0.198894,-0.601225 -2.486134,-1.970683 -3.314845,-1.970683 -0.232038,0 -0.662971,-0.300612 -0.994452,-0.668028 -0.33149,-0.367415 -0.861865,-0.668028 -1.193345,-0.668028 -0.861856,0 -3.67948,-1.302654 -4.541335,-2.104288 -0.397789,-0.367414 -0.89501,-1.235852 -1.06075,-1.937281 -0.397789,-1.4362602 -1.491682,-2.9727246 -2.154653,-2.9727246 -0.265183,0 -0.662971,-0.3006125 -0.89501,-0.6346265 C 24.804259,5.8915527 20.760154,4.1546799 17.379011,3.0858351 16.583444,2.8520253 15.754733,2.4512085 15.522694,2.2173987 14.926021,1.649575 10.815619,0.11311053 9.854311,0.11311053 c -0.4309326,0 -1.2264899,0.40081678 -1.7568648,0.90183777 z M 11.47859,2.484608 c 0.430923,0.6012251 0.397779,0.8684363 -0.198894,2.4049007 -0.364635,0.9686405 -1.093904,2.6387105 -1.5911253,3.7075553 -0.5303748,1.0688448 -0.9613074,2.271296 -0.9613074,2.672113 -0.033154,0.801633 -0.7292691,1.870478 -1.2596439,1.870478 -0.6298171,0 -1.3922303,-1.035443 -1.3922303,-1.90388 0,-1.135648 2.2209415,-7.6823223 2.9170665,-8.6843643 C 9.6885707,1.6161715 10.848763,1.5827701 11.47859,2.484608 Z m 4.209845,1.8036755 c 0.464086,0.2338098 1.72372,0.668028 2.817624,1.002042 1.093894,0.3006125 2.154643,0.7014294 2.353537,0.8684364 0.430933,0.3674153 -2.552431,9.4859971 -3.381143,10.3210321 -0.430923,0.434218 -0.729259,0.400817 -2.685018,-0.300612 -1.2265,-0.400817 -2.585586,-1.068846 -3.049663,-1.402859 -0.430932,-0.334014 -1.060749,-0.634627 -1.39223,-0.634627 -0.8287116,0 -0.8287116,-1.169048 0.03315,-2.237893 0.364635,-0.46762 0.662971,-1.135648 0.662971,-1.43626 0,-0.334014 0.298337,-1.2358524 0.662971,-2.037486 0.364635,-0.8016336 0.662961,-1.7034713 0.662961,-2.004084 0,-0.3006125 0.232048,-1.1022461 0.497231,-1.7702741 0.563529,-1.336056 0.861865,-1.3694574 2.817614,-0.3674154 z m 8.386564,3.5405484 c 0.397779,0.2004083 1.06075,0.7014293 1.458529,1.0688447 l 0.729269,0.668028 -0.662971,0.9352394 c -0.364635,0.534422 -1.093894,1.202451 -1.624279,1.536464 -1.292788,0.768233 -1.491672,1.469662 -0.994451,3.841161 0.530375,2.404901 0.265192,2.738915 -1.955759,2.438302 -1.790009,-0.200408 -2.088346,-0.601225 -1.524827,-1.970683 0.497231,-1.269253 0.961308,-2.571906 2.055202,-6.145857 0.895009,-2.8391188 1.160201,-3.0729286 2.519287,-2.3714991 z m 3.745778,5.0102101 c 0.762413,0.868436 3.878364,2.972724 4.375595,2.972724 0.563519,0 0.762413,0.567824 0.530375,1.503063 -0.232039,0.968641 -0.861866,1.068845 -2.552432,0.334015 -0.662971,-0.267212 -2.1215,-0.501022 -3.215403,-0.501022 -1.856317,0 -2.022057,-0.0668 -2.320394,-0.868436 -0.629817,-1.67007 -0.397778,-2.705513 0.762414,-3.440344 1.325942,-0.868436 1.624278,-0.868436 2.419845,0 z m 8.75119,4.475787 c 0.762413,0.400817 0.994451,0.768233 0.994451,1.469662 0,1.469661 -0.596673,1.770274 -2.419836,1.102246 -0.861865,-0.300613 -1.55798,-0.701429 -1.55798,-0.835035 0,-0.46762 1.359086,-2.237893 1.690577,-2.237893 0.198884,0 0.762413,0.233809 1.292788,0.50102 z"
       id="path3-1"
       style="fill:#000000;stroke:none;stroke-width:0.0332747" />
    <path
       d="M 14.26306,7.0271982 C 13.368051,7.8956347 16.251963,9.7327116 17.876242,9.3318948 19.135876,8.9978809 18.837539,8.5302612 16.815482,7.6284234 14.793435,6.7265857 14.594541,6.6931842 14.26306,7.0271982 Z"
       id="path4-5"
       style="fill:#000000;stroke:none;stroke-width:0.0332747" />
    <path
       d="m 12.605638,11.60319 c -0.198895,0.534423 0.696115,1.235852 2.254085,1.770275 2.187807,0.73483 2.552432,-0.601225 0.430933,-1.569866 -1.690567,-0.768233 -2.45298,-0.835035 -2.685018,-0.200409 z"
       id="path5-4"
       style="fill:#000000;stroke:none;stroke-width:0.0332747" />
    <path
       d="m 34.284717,26.934432 c -0.397778,0.634627 -0.928153,2.538506 -1.22649,4.375584 -0.729269,4.342182 -0.364634,5.745041 1.856317,7.381708 0.861856,0.634627 1.790009,1.16905 2.088345,1.16905 0.265193,0 0.563529,0.334014 0.696125,0.734831 0.331481,1.269253 0.232039,4.776399 -0.16575,5.177216 -0.198884,0.200409 -0.961297,0.267212 -1.723711,0.200409 -1.591134,-0.167008 -2.718182,0.434218 -2.254095,1.20245 0.430923,0.701429 9.215266,0.768233 9.878237,0.100205 0.828712,-0.835035 -0.09945,-1.469663 -2.022057,-1.336057 l -1.690576,0.100205 -0.09944,-2.939323 -0.09944,-2.939324 1.790019,-0.768232 c 2.552422,-1.169049 3.016509,-2.037485 2.983355,-5.578034 -0.03315,-2.705513 -0.464077,-5.477829 -1.127048,-7.248103 -0.265183,-0.70143 -0.430923,-0.734831 -4.242999,-0.734831 h -3.944662 z m 7.491556,2.137689 c 0.397778,0.868437 0.696115,1.603268 0.662971,1.67007 -0.06631,0.0668 -5.867277,0.167008 -6.762287,0.133606 -0.563528,-0.0334 -0.530375,-0.801633 0.03315,-2.204492 l 0.497231,-1.169049 h 2.419836 2.419836 z m 0.895009,5.377626 c -0.03315,1.536464 -0.861865,2.738915 -2.519288,3.607351 -1.160192,0.601225 -1.72372,0.601225 -3.149105,-0.100204 -1.325932,-0.634626 -2.088345,-2.070887 -2.088345,-3.941365 v -1.202451 l 3.911518,0.100205 3.878364,0.100204 z"
       id="path22"
       style="fill:#000000;stroke:none;stroke-width:0.0332747" />
  </g>
</svg>
