<?xml version="1.0" encoding="UTF-8" standalone="no"?>
<!-- Created with Inkscape (http://www.inkscape.org/) -->

<svg
   width="48"
   height="48"
   viewBox="0 0 48 48"
   version="1.1"
   id="svg1"
   inkscape:version="1.4.2 (f4327f4, 2025-05-13)"
   sodipodi:docname="vitigno.svg"
   xmlns:inkscape="http://www.inkscape.org/namespaces/inkscape"
   xmlns:sodipodi="http://sodipodi.sourceforge.net/DTD/sodipodi-0.dtd"
   xmlns="http://www.w3.org/2000/svg"
   xmlns:svg="http://www.w3.org/2000/svg">
  <sodipodi:namedview
     id="namedview1"
     pagecolor="#ffffff"
     bordercolor="#000000"
     borderopacity="0.25"
     inkscape:showpageshadow="2"
     inkscape:pageopacity="0.0"
     inkscape:pagecheckerboard="0"
     inkscape:deskcolor="#d1d1d1"
     inkscape:document-units="px"
     inkscape:zoom="6.078125"
     inkscape:cx="2.0565553"
     inkscape:cy="32.411311"
     inkscape:window-width="1718"
     inkscape:window-height="1360"
     inkscape:window-x="1713"
     inkscape:window-y="0"
     inkscape:window-maximized="0"
     inkscape:current-layer="layer1" />
  <defs
     id="defs1" />
  <g
     inkscape:label="Livello 1"
     inkscape:groupmode="layer"
     id="layer1">
    <path
       d="m 26.429261,2.6968849 c -1.644211,1.7819605 -2.521124,3.8184805 -2.667275,6.4004943 -0.109615,2.1092598 -0.21923,2.4001828 -1.278832,3.2002478 l -1.169217,0.909157 -0.913451,-0.727326 c -1.351907,-1.01826 -2.813429,-1.272819 -4.311488,-0.618222 -1.717287,0.690961 -2.557661,2.03652 -2.521124,4.07304 0.03654,1.345559 -0.07308,1.672858 -0.767298,1.927417 -0.438457,0.181832 -1.242294,0.763701 -1.790365,1.309194 -0.876912,0.836429 -1.0230645,1.309195 -1.0230645,2.909313 0,1.745596 0.1096145,2.03652 1.2788315,3.05478 0.730761,0.618234 1.644212,1.127364 2.046129,1.127364 0.584609,0 0.657686,0.145467 0.438457,0.981895 -0.767298,2.836585 0.292304,5.273132 2.594201,5.891365 0.730761,0.181831 1.059602,0.472766 0.986526,0.800064 -0.109614,0.290924 -0.219227,1.200092 -0.328842,2.000146 -0.109614,1.27283 0.03654,1.709231 1.023065,2.836584 0.657685,0.727336 1.498059,1.309195 1.863439,1.309195 0.913452,0 1.242294,0.836428 0.694223,1.818324 -0.621147,1.163727 -0.146152,2.982052 1.096142,4.254872 1.863438,1.891053 4.421101,1.78196 6.357617,-0.218196 1.023065,-1.090999 1.205755,-2.000156 0.876912,-4.764001 -0.07308,-0.690973 0.07308,-0.945532 0.694223,-1.01826 0.438457,-0.07277 1.315369,-0.690973 1.936516,-1.418298 1.169218,-1.309195 1.205755,-1.636493 0.657684,-4.58217 -0.07308,-0.50913 0.219229,-0.800065 1.132679,-1.090999 2.22882,-0.76369 3.215348,-3.127509 2.448048,-5.818626 -0.255766,-0.872793 -0.18269,-0.981895 0.511533,-0.981895 0.438457,0 1.351907,-0.545495 2.046129,-1.236456 1.023067,-1.01826 1.242294,-1.52739 1.242294,-2.763856 0,-2.254716 -1.424984,-4.3276 -2.996119,-4.363975 -0.54807,0 -0.657684,-0.327299 -0.657684,-1.963781 0,-2.400193 -0.876913,-3.673013 -2.996119,-4.218507 -1.315369,-0.363674 -1.680749,-0.327299 -3.215346,0.472755 -1.205755,0.618233 -1.86344,0.800064 -2.119206,0.545505 -0.21923,-0.218206 -0.767299,-0.581869 -1.242294,-0.800064 -0.730761,-0.400028 -0.840374,-0.654598 -0.730761,-2.3638191 0.109614,-2.2910907 0.7673,-3.7457419 2.521125,-5.5640665 0.840375,-0.8364286 1.205755,-1.52739 1.096141,-1.8910527 -0.365381,-0.9455318 -1.607673,-0.6545973 -2.813429,0.5818582 z m 0.474995,11.6372621 c 0.876913,1.01826 0.767299,2.363819 -0.292305,3.382079 -2.228819,2.254726 -5.663394,-0.363663 -4.165335,-3.127509 0.803837,-1.52739 3.251885,-1.672857 4.45764,-0.25457 z m -7.271068,-0.327299 c 1.023064,0.727337 0.949988,3.091156 -0.109615,3.927584 -1.790363,1.454651 -4.421101,0.181832 -4.421101,-2.072895 0,-1.891052 2.849966,-3.05478 4.530716,-1.854689 z m 13.847914,-0.03633 c 0.328842,0.25457 0.73076,0.981895 0.840374,1.636493 0.438456,2.181987 -2.228819,3.782105 -4.128798,2.472911 -1.388445,-0.945521 -1.351907,-3.345704 0.03655,-4.254871 0.657684,-0.436391 2.594199,-0.327299 3.251884,0.145467 z m -17.501717,6.145934 c 0.694222,0.545495 0.949988,1.090989 0.949988,1.963781 0,1.309195 -1.315368,2.727482 -2.557662,2.727482 -1.242294,0 -2.557663,-1.418287 -2.557663,-2.763845 0,-2.400183 2.22882,-3.454818 4.165337,-1.927418 z m 7.161454,-0.03633 c 1.644211,1.636493 0.474993,4.727637 -1.790365,4.727637 -2.411509,0 -3.690341,-2.909313 -2.046128,-4.727637 0.876913,-0.945521 2.849965,-0.981896 3.836493,0 z m 6.869149,-0.145467 c 0.621147,0.436401 0.803837,0.909168 0.803837,2.145623 0,1.236466 -0.18269,1.709221 -0.803837,2.145623 -1.534597,1.090989 -3.324961,0.690962 -4.165335,-0.909157 -1.351907,-2.654753 1.68075,-5.127675 4.165335,-3.382089 z m 7.234531,0.400038 c 1.826901,2.436546 -1.242293,5.60043 -3.617265,3.745741 -2.046131,-1.600119 -0.657684,-5.018572 1.899977,-4.58217 0.657685,0.109103 1.424983,0.472766 1.717288,0.836429 z m -17.794021,6.545961 c 1.169216,0.981896 1.351907,2.654742 0.401917,3.854845 -1.023064,1.27282 -2.630738,1.309184 -3.836493,0.07277 -2.374972,-2.363819 0.840375,-6.036833 3.434576,-3.927574 z m 7.307607,0.327299 c 1.351905,1.745586 0.876912,3.782106 -1.096142,4.473067 -2.776891,0.981895 -4.896096,-2.400183 -2.813429,-4.58217 1.096142,-1.200091 2.923043,-1.127364 3.909571,0.109103 z m 6.942225,0 c 1.023065,1.27282 0.949988,2.509286 -0.146152,3.600274 -1.205755,1.236456 -2.813429,1.200092 -3.799956,-0.03633 -0.438456,-0.545494 -0.767298,-1.345559 -0.767298,-1.781961 0,-1.381923 1.351907,-2.727481 2.740352,-2.727481 0.876913,0 1.424984,0.25457 1.973054,0.945532 z m -10.77872,6.727793 c 2.521125,1.963781 -0.18269,6.255027 -2.849966,4.509431 -1.790364,-1.163727 -1.86344,-3.491171 -0.146152,-4.691263 1.096141,-0.7637 1.826902,-0.727335 2.996118,0.181832 z m 6.978765,0.145457 c 1.461521,1.418297 1.169216,3.491181 -0.584609,4.363974 -1.644211,0.872804 -3.288422,-0.03633 -3.799955,-2.072884 -0.219228,-0.800064 -0.03654,-1.200091 0.840374,-2.109249 1.351908,-1.309194 2.374972,-1.381933 3.54419,-0.181841 z m -3.398038,7.091467 c 0.876912,0.909156 1.059603,1.309183 0.840375,2.109248 -0.584607,2.363818 -3.105733,3.091144 -4.530716,1.309194 -1.023065,-1.309194 -0.949989,-2.181987 0.292305,-3.454818 1.351906,-1.345558 2.009591,-1.345558 3.398036,0.03633 z"
       id="path2-0"
       style="fill:#000000;stroke:none;stroke-width:0.0364522" />
  </g>
</svg>
